<svg xmlns="http://www.w3.org/2000/svg" viewBox="0 0 4279.39 3485.42"><defs><style>.cls-1{fill:#4e1820;}.cls-2{fill:#e48c25;}.cls-13,.cls-2,.cls-6,.cls-7{stroke:#671d20;}.cls-10,.cls-12,.cls-13,.cls-2,.cls-3,.cls-5,.cls-6,.cls-7,.cls-8,.cls-9{stroke-miterlimit:10;}.cls-13,.cls-2,.cls-3{stroke-width:25px;}.cls-12,.cls-13,.cls-3,.cls-5,.cls-6{fill:none;}.cls-3{stroke:#6a1b1f;}.cls-4{fill:#661f1e;}.cls-10,.cls-12,.cls-5{stroke:#681d22;}.cls-10,.cls-5{stroke-width:17px;}.cls-12,.cls-6{stroke-width:18px;}.cls-10,.cls-7,.cls-8,.cls-9{fill:#eaad6b;}.cls-7,.cls-8,.cls-9{stroke-width:10px;}.cls-8{stroke:#69222b;}.cls-9{stroke:#6a232e;}.cls-11{fill:#b56528;}.cls-14{fill:#671d20;}.cls-15{fill:#661f22;}.cls-16{fill:#681a20;}</style></defs><title>Asset 20</title><g id="Layer_2" data-name="Layer 2"><g id="Layer_1-2" data-name="Layer 1"><path class="cls-1" d="M884.16,2201.19s-123.14,14.88-101,42.15c0,0-83.73,151.24,780.66,99.18,0,0,1568.72-66.95,1726.33-141.33,0,0,234-37.19,224.1-128.93,0,0-24.63-47.11-76.34-19.84,0,0-364.48,136.3-817.61,146.26,0,0-1004.76,124-1174.69,91.77C1445.64,2290.45,1002.36,2320.2,884.16,2201.19Z"/><path class="cls-2" d="M844.58,2161.53A344.38,344.38,0,0,1,788.74,2102c-78.64-107.39-83.92-254.94-45.84-382.49A651.58,651.58,0,0,1,922.84,1430.1c84.71-78.66,192.31-135.81,258.24-233.3,64.58-95.49,205.11-131.16,315.4-112.32,19.59,3.35,39.82,8.33,59,3.18,16.42-4.4,30-15.67,43.29-26.19,80.11-63.13,176.12-109.94,277.9-116.5s209.15,31.58,271.82,112c163.13-104.9,401.6-69.54,527.27,78.19,158.47-63.51,345.38-35.14,490.77,54.34s251.3,234.46,314.93,392.88c33.36,83.06,56.19,172.26,49.59,261.53s-45.68,178.83-117.34,232.48c-72.08,54-166.26,65.88-255.78,75.57-173.68,18.8-347.53,36-521.39,53-442.8,43.44-886.82,86.25-1331.69,78.64-94.66-1.62-190.31-5.68-281.52-31.08C958.54,2234.53,895.63,2204.69,844.58,2161.53Z"/><path class="cls-3" d="M1099.29,1316.52s57.73-142.26,158.15-173.25c0,0,78.63,2.17,200.12,204.25,0,0,250.42,396.7,353.32,420.26,0,0-238-1.24-332.24-101.66S1178.84,1320.8,1099.29,1316.52Z"/><path class="cls-3" d="M1595.85,1077.21s57.25-94.55,155.81-100.13c0,0,174.79,126.45,280.79,351.46,0,0,167.36,318,269.64,329.14,0,0-308.69-68.8-386.79-219.43S1677.67,1071.63,1595.85,1077.21Z"/><path class="cls-3" d="M2162.43,1071.64S2257.26,988,2329.79,1014c0,0,137.6,124.59,241.74,358.9,0,0,167.36,290.09,267.78,319.84,0,0-199,11.16-338.44-137.61,0,0-189.68-223.14-221.29-303.1Z"/><path class="cls-3" d="M2685.37,1143.12s86.78-52.07,167.36-32.24c0,0,126.45,151.25,168.6,296.29,0,0,137.61,292.57,276.46,301.25,0,0-340.92-14.87-425.22-235.54S2685.37,1143.12,2685.37,1143.12Z"/><path class="cls-4" d="M1533.89,1795.36a5.86,5.86,0,0,1,2.64.46,25.54,25.54,0,0,1,2.46,1c1.62.75,3.15,1.6,4.69,2.43,3.06,1.7,6.06,3.43,9,5.17,6,3.44,11.85,6.88,17.8,10.11,11.87,6.5,23.82,12.48,36,17.69a370.27,370.27,0,0,0,75.34,23.37c25.81,5.14,52.19,7.59,79,8.32,13.39.38,26.87.22,40.47-.13,6.81-.15,13.63-.47,20.51-.71,3.43-.16,6.87-.32,10.33-.44s6.92-.33,10.43-.37c-3.18,1.44-6.41,2.76-9.64,4.07s-6.53,2.47-9.83,3.59-6.62,2.19-10,3.2-6.71,2-10.09,2.82a299.7,299.7,0,0,1-41.36,7.63,278.69,278.69,0,0,1-84.69-3.46,256.57,256.57,0,0,1-41.11-11.79,240,240,0,0,1-38.37-18.69,231.61,231.61,0,0,1-34.09-25.13q-7.86-7-15-14.65c-2.4-2.51-4.72-5.1-7.05-7.64q-1.72-1.93-3.51-3.78c-.59-.61-1.19-1.21-1.83-1.76A5.38,5.38,0,0,0,1533.89,1795.36Z"/><path class="cls-4" d="M2050.85,1708.42a186.85,186.85,0,0,0,29.13,15,281,281,0,0,0,30.08,10.52c10.15,2.93,20.4,5.33,30.74,7.3l3.87.75,3.9.65c2.61.4,5.18,1,7.8,1.26l7.83,1.14,7.87.93c2.61.38,5.26.58,7.89.83l4,.4c1.31.14,2.63.26,4,.34,5.3.37,10.59.86,15.93,1.08l4,.23c1.34.07,2.67.2,4,.22l8,.29,4,.19,4,.06,8.09.22c5.41.13,10.82.09,16.27.26,2.73,0,5.45-.05,8.19,0l8.22.09q8.24-.06,16.59.11c5.55,0,11.14,0,16.84.41-5.14,2.38-10.38,4.46-15.66,6.46s-10.68,3.54-16.07,5.19q-8.15,2.19-16.4,4.09c-2.76.58-5.54,1.08-8.31,1.59s-5.55,1.11-8.35,1.45l-8.42,1.11-4.22.51-4.23.35-8.5.63c-2.83.19-5.68.2-8.52.28l-4.27.09c-1.42,0-2.85,0-4.27,0l-8.56-.23c-1.43,0-2.85-.13-4.28-.25l-4.27-.31c-2.85-.25-5.71-.43-8.55-.83l-8.53-1.1-8.49-1.49c-2.83-.49-5.64-1.16-8.44-1.8l-4.2-1c-1.4-.34-2.78-.76-4.17-1.14a188.28,188.28,0,0,1-32.41-12.07,157.9,157.9,0,0,1-29.3-18.33,122.17,122.17,0,0,1-12.62-11.76A69.06,69.06,0,0,1,2050.85,1708.42Z"/><path class="cls-4" d="M2404.17,1614.39a137.87,137.87,0,0,0,9.38,10.74c.83.85,1.61,1.72,2.45,2.56l2.52,2.49c1.65,1.67,3.4,3.25,5.09,4.87,6.9,6.38,14.11,12.34,21.5,18a370.59,370.59,0,0,0,46.77,30c4.11,2.13,8.18,4.3,12.3,6.39l12.46,6c4.24,1.87,8.48,3.69,12.68,5.61s8.56,3.49,12.82,5.25l3.21,1.3,3.26,1.2,6.5,2.42,6.49,2.41,6.6,2.17c2.2.71,4.39,1.48,6.58,2.22l3.28,1.12c1.1.36,2.22.67,3.33,1l13.31,4c2.21.71,4.47,1.25,6.7,1.87l6.73,1.81,6.72,1.82c2.24.59,4.53,1,6.78,1.61l13.56,3.27c4.55,1,9.13,1.85,13.68,2.87,9.09,2.12,18.33,3.49,27.5,5.31,4.59.94,9.23,1.53,13.86,2.29l13.88,2.26,27.95,3.88c4.67.55,9.36,1.06,14.05,1.64s9.37,1.24,14.08,1.71l14.13,1.47c4.72.52,9.44,1.1,14.17,1.59,9.47.85,19,1.8,28.5,3.06-9.45,1.53-19,2.77-28.49,3.9s-19.09,1.59-28.67,2.26c-9.59.45-19.19.6-28.81.77-4.8,0-9.61-.17-14.42-.27s-9.63-.18-14.43-.45c-9.61-.71-19.25-1.16-28.84-2.28s-19.21-2.15-28.75-3.82c-19.15-2.86-38.06-7.41-56.8-12.56l-13.94-4.32c-1.16-.37-2.33-.71-3.48-1.1l-3.45-1.21c-2.3-.82-4.6-1.61-6.88-2.45l-6.87-2.5-6.78-2.76-6.77-2.77c-1.13-.46-2.26-.91-3.38-1.4l-3.32-1.55a335,335,0,0,1-51.23-28.35,274.87,274.87,0,0,1-44.75-37.66,213,213,0,0,1-18.54-22.52c-2.8-4-5.45-8-7.86-12.22A92.91,92.91,0,0,1,2404.17,1614.39Z"/><path class="cls-4" d="M2991.58,1708.42l16.85,4.81,16.67,4.6c11.07,3,22.06,5.92,33.08,8.62,22,5.45,43.94,10.45,66,14.63s44.3,7.73,66.76,10.87c5.63.67,11.26,1.58,16.91,2.2,2.83.37,5.67.69,8.5,1.09l8.54,1c5.71.8,11.43,1.31,17.2,2.09,2.89.4,5.78.69,8.68,1s5.82.76,8.76,1.27a217.24,217.24,0,0,1-34.43,7.88c-2.92.42-5.83.83-8.76,1.21s-5.85.57-8.79.85c-1.47.13-2.94.29-4.41.39l-4.4.23c-3,.15-5.89.31-8.84.41a323.82,323.82,0,0,1-35.37-1.1l-4.41-.38-4.4-.5c-2.93-.34-5.86-.68-8.79-1.08l-8.75-1.35c-2.92-.44-5.81-1-8.72-1.57a332.33,332.33,0,0,1-34.38-8.49,321.13,321.13,0,0,1-33.24-12.12,287.85,287.85,0,0,1-31.56-15.94c-5.07-3-10.06-6.18-14.88-9.59A130,130,0,0,1,2991.58,1708.42Z"/><path class="cls-5" d="M674.78,374.65s-981.85,937.22-74.39,2149.66"/><path class="cls-6" d="M3620.32,374.65s952.1,937.22,89.26,2149.66"/><path class="cls-7" d="M230.09,1664s-32.23-81.82-193.4-86.78c0,0-28.45,208.27,210.17,218.19C246.86,1795.36,209.7,1747.61,230.09,1664Z"/><path class="cls-8" d="M257,1864.07s-45.24-107.62-250.2-74.73c0,0-27.88,132.57,137.15,158.26,19.52,3,130.05-13,130.05-13Z"/><path class="cls-9" d="M326.68,2047.72S272.13,1889,44,1970.86c0,0,34.71,119,121.49,133.89,0,0,69.42,17.36,121.49,0C287,2104.75,306.85,2119.63,326.68,2047.72Z"/><path class="cls-9" d="M111.92,2175.21s217.37-104.69,291.77,62.31c0,0,39.32,77.17-126.95,79.5C276.74,2317,184.28,2307.56,111.92,2175.21Z"/><path class="cls-9" d="M246.42,1672.8s20.49-120.39,224.84-129.06c0,0,5.65,92.32-35.88,141.73,0,0-69.82,78.24-166.56,98.17C268.82,1783.64,236.67,1744.21,246.42,1672.8Z"/><path class="cls-9" d="M288.93,1850s10.9-106.8,189.62-126.41c0,0,10.38,80.64-23.14,126.41,0,0-56.64,72.73-140.32,95.9C315.09,1945.91,284.58,1913.21,288.93,1850Z"/><path class="cls-9" d="M335.73,1992s10.89-106.8,189.62-126.42c0,0,10.38,80.65-23.15,126.42,0,0-56.64,72.73-140.32,95.9C361.88,2087.85,331.37,2055.15,335.73,1992Z"/><path class="cls-9" d="M411.11,2145.92s15.66-110.06,201.3-123c0,0,7.42,83.86-29.13,129.84,0,0-61.57,72.93-149.07,93.47C434.21,2246.22,404,2211.14,411.11,2145.92Z"/><path class="cls-10" d="M4054.53,1664.65s81.82-83,193.39-80.52c0,0,42.15,52.07-79.34,195.88,0,0-30.47,37.19-126.81,22.31C4041.77,1802.32,4081.8,1755.08,4054.53,1664.65Z"/><path class="cls-10" d="M4014.18,1877.18s29.75-119.43,255.38-78.31c0,0,12.4,33.68-106.61,157.65,0,0-74.39,47.11-161.17,0C4001.78,1956.52,4041.45,1916.85,4014.18,1877.18Z"/><path class="cls-10" d="M3979.84,2046.61s-2.11-64.74,183.66-90.63c0,0,79.16-3.58,106.43,23.69,0,0-27.28,104.13-145.05,148.76C4124.88,2128.43,3930.25,2158.19,3979.84,2046.61Z"/><path class="cls-10" d="M3894.31,2227.18s64.46-131.41,297.53-74.38c0,0-2.48,94.21-148.77,148.76C4043.07,2301.56,3868.54,2319.84,3894.31,2227.18Z"/><path class="cls-10" d="M4045.89,1667.64s-102.62-126-205.25-115.24c0,0-30.81,102.3,85.11,225.12,0,0,52.56,53.29,100.12,45.41C4025.87,1822.93,4080.94,1764.12,4045.89,1667.64Z"/><path class="cls-10" d="M4000.6,1837.87s-95.08-109-190.16-99.72c0,0-28.55,88.52,78.85,194.8,0,0,48.7,46.12,92.76,39.29C3982.05,1972.24,4033.07,1921.36,4000.6,1837.87Z"/><path class="cls-10" d="M3947.18,1990.15s-83.92-96.2-167.83-88c0,0-25.2,78.13,69.59,171.94,0,0,43,40.7,81.87,34.67C3930.81,2108.74,3975.84,2063.83,3947.18,1990.15Z"/><path class="cls-10" d="M3884.31,2118.8s-97.68-123.15-195.37-112.67c0,0-29.33,100,81,220.1,0,0,50,52.11,95.3,44.4C3865.25,2270.63,3917.67,2213.13,3884.31,2118.8Z"/><path class="cls-11" d="M821.58,1680.18s-34.71,365,262.82,459,1395.91-12.66,1395.91-12.66,808.29-62,900-146.29c0,0,216.95-272.73-67-600,0,0-34.71-47.1,12.4-8.67s133.82,199.59,133.82,199.59,86.85,226.87,42.22,343.4c0,0-27.27,156.2-264.06,182.24L2587.54,2168s-1133.71,117.15-1227.93,80c0,0-428.94,34.71-539.27-203.31,0,0-53.31-79.34-36.57-144.43C783.77,1900.23,783.15,1727.91,821.58,1680.18Z"/><path class="cls-12" d="M3731.9,761.44S3935,967.62,3925.17,1570.06"/><path class="cls-13" d="M4057.56,865.58s117.6,173.65,116.64,729"/><path class="cls-13" d="M215.5,865.58S49.72,1356.5,111.92,1577.17"/><path class="cls-13" d="M526.86,766.4s-254.95,584.42-168.81,798"/><polygon class="cls-14" points="1237.6 736.65 1149.47 692.01 1062.74 739.3 1077.96 641.69 1006.18 573.82 1103.71 558.13 1146.09 468.89 1191.15 556.8 1289.12 569.52 1219.43 639.54 1237.6 736.65"/><polygon class="cls-14" points="3223 736.65 3134.87 692.01 3048.14 739.3 3063.36 641.69 2991.58 573.82 3089.11 558.13 3131.49 468.89 3176.55 556.8 3274.51 569.52 3204.83 639.54 3223 736.65"/><path class="cls-14" d="M1678.94,181.44a250.41,250.41,0,0,1,15.26,21.71q7.13,11.21,13.48,22.91c2.15,3.89,4.17,7.83,6.21,11.78,1,2,2,4,3,6l2.9,6c1.9,4,3.73,8.08,5.54,12.15l5.19,12.31a491.19,491.19,0,0,1,29.2,103.31l.57,3.34.47,3.35.94,6.7.93,6.71c.27,2.24.47,4.49.7,6.74l.68,6.75c.21,2.25.51,4.5.61,6.76l.81,13.56c.07,1.13.15,2.27.19,3.4l.06,3.4.13,6.8.12,6.81c.07,2.27-.08,4.54-.1,6.81l-.35,13.63-1,13.62c-.17,2.27-.29,4.54-.51,6.81l-.79,6.79c-.56,4.52-1,9.05-1.66,13.56l-2.25,13.5-.56,3.37c-.18,1.12-.38,2.25-.64,3.36l-1.45,6.69-1.46,6.68-.74,3.34c-.24,1.12-.48,2.23-.8,3.33L1750,566.6c-.62,2.19-1.17,4.41-1.85,6.58l-2.15,6.5-4.31,13-.86,2.6-1.53,2.16-.89,1.26-1,1.49c-.68,1-1.38,2.05-2.05,3.13-1.37,2.11-2.72,4.28-4,6.47-2.66,4.37-5.21,8.86-7.68,13.4q-7.39,13.65-13.64,28c-4.14,9.51-7.88,19.21-11.15,29.07l-2.36,7.42-2.13,7.49-.54,1.87-.47,1.89-.94,3.78-.94,3.79-.82,3.8-.82,3.81-.41,1.91-.34,1.92-1.33,7.69c-.62,5.15-1.5,10.32-1.86,15.52-.61,5.21-.63,10.42-1,15.67,0,5.23-.12,10.52.27,15.77.09,5.31.77,10.54,1.28,15.86.31,2.64.77,5.26,1.15,7.92l.6,4,.82,3.94,1.63,7.94c.72,2.6,1.38,5.23,2.07,7.87.35,1.32.68,2.65,1,4l1.25,3.9c.85,2.61,1.64,5.26,2.47,7.91-1.57-2.26-3.17-4.53-4.71-6.84l-2.34-3.47c-.72-1.19-1.39-2.41-2.09-3.61-1.38-2.42-2.79-4.85-4.15-7.31L1680.6,807c-.61-1.27-1.22-2.55-1.79-3.84l-1.56-3.93c-1-2.63-2.11-5.26-3.06-7.93-1.69-5.4-3.55-10.82-4.82-16.38-1.5-5.53-2.38-11.16-3.45-16.82-.42-2.83-.77-5.67-1.12-8.53s-.57-5.71-.77-8.58c-.52-5.75-.59-11.49-.65-17.26l.25-8.64.06-2.16.15-2.16.3-4.31A277.31,277.31,0,0,1,1678.22,639a325.23,325.23,0,0,1,12.76-32.1c2.46-5.23,5-10.43,7.73-15.56,1.37-2.57,2.78-5.12,4.26-7.68.72-1.28,1.5-2.57,2.26-3.85l1.2-2,.64-1,.74-1.15-2.39,4.77,3.46-12,1.75-6c.57-2,1-4,1.51-6.06l3-12.12c.27-1,.47-2,.67-3.05l.62-3.06,1.23-6.12,1.25-6.12c.24-1,.41-2,.56-3.07l.5-3.09,2-12.33c.61-4.12,1-8.27,1.58-12.4l.78-6.21c.23-2.07.37-4.15.57-6.23l1.08-12.48.67-12.52c.28-4.17.32-8.36.41-12.55l.13-6.28.07-3.14,0-3.15-.13-12.59c-.09-4.2-.31-8.4-.46-12.61-.09-2.1-.14-4.2-.26-6.3l-.43-6.31-.43-6.31-.21-3.16L1725,382l-1.18-12.63-1.49-12.62-.37-3.16-.44-3.15-.9-6.3-.9-6.32-1-6.29q-4.1-25.22-9.91-50.33l-3-12.54c-1.12-4.15-2.09-8.35-3.21-12.52s-2.23-8.34-3.44-12.49-2.33-8.34-3.61-12.48C1690.55,214.51,1685.1,198,1678.94,181.44Z"/><path class="cls-14" d="M2108.6,0a248.62,248.62,0,0,1,15.25,21.7q7.14,11.21,13.49,22.91c2.14,3.89,4.17,7.84,6.21,11.78,1,2,2,4,3,6l2.89,6q2.85,6,5.54,12.14l5.19,12.32a490.6,490.6,0,0,1,29.2,103.31l.58,3.33.47,3.35.94,6.7.93,6.72c.26,2.24.46,4.49.7,6.74l.68,6.75c.21,2.25.5,4.49.6,6.76l.82,13.56c.07,1.13.14,2.26.18,3.39l.07,3.4.13,6.81.12,6.81c.06,2.27-.08,4.54-.11,6.81l-.35,13.63-.94,13.62c-.17,2.26-.3,4.54-.51,6.8l-.79,6.79c-.56,4.52-1,9.06-1.66,13.57l-2.25,13.49-.57,3.38c-.18,1.12-.37,2.24-.63,3.36l-1.45,6.69-1.47,6.68-.73,3.34c-.25,1.11-.49,2.23-.8,3.33l-3.61,13.2c-.62,2.2-1.16,4.41-1.85,6.59l-2.14,6.5-4.31,13-.87,2.6L2169,416l-.88,1.25-1,1.49c-.69,1-1.38,2.06-2.06,3.13-1.36,2.11-2.71,4.28-4,6.48-2.66,4.37-5.22,8.86-7.69,13.4-4.92,9.09-9.49,18.43-13.63,27.94s-7.89,19.22-11.15,29.08l-2.37,7.42-2.12,7.49-.55,1.87-.46,1.89-.94,3.78-.94,3.78-.82,3.81-.83,3.81-.41,1.91-.33,1.92-1.34,7.69c-.61,5.15-1.5,10.32-1.86,15.52-.6,5.21-.62,10.41-.94,15.67,0,5.23-.12,10.52.26,15.77.1,5.3.77,10.54,1.28,15.86.31,2.64.77,5.26,1.15,7.92l.6,4,.82,3.94,1.64,7.94c.71,2.6,1.38,5.23,2.07,7.87.35,1.32.68,2.65,1.05,4l1.25,3.91c.84,2.61,1.64,5.26,2.46,7.91-1.57-2.26-3.16-4.53-4.71-6.85l-2.34-3.47c-.72-1.19-1.39-2.4-2.09-3.61-1.38-2.42-2.79-4.85-4.14-7.31l-3.66-7.59c-.61-1.27-1.21-2.54-1.79-3.83l-1.55-3.94c-1-2.63-2.12-5.25-3.07-7.93-1.68-5.4-3.54-10.81-4.81-16.37-1.5-5.53-2.38-11.17-3.46-16.82-.41-2.83-.77-5.68-1.11-8.53s-.57-5.72-.78-8.59c-.51-5.74-.58-11.48-.65-17.26l.25-8.63.07-2.17.14-2.15.31-4.31a276.84,276.84,0,0,1,14.08-67.51,324.26,324.26,0,0,1,12.76-32.1c2.45-5.23,5-10.44,7.73-15.56,1.37-2.57,2.78-5.12,4.26-7.68.72-1.28,1.5-2.57,2.26-3.85l1.19-2,.64-1,.75-1.14-2.4,4.76,3.47-12,1.74-6c.57-2,1-4,1.52-6.06l3-12.13c.27-1,.47-2,.67-3l.62-3.06,1.23-6.12,1.25-6.11c.23-1,.4-2.05.56-3.08l.5-3.08,2-12.33c.61-4.12,1-8.27,1.58-12.4l.77-6.21c.24-2.07.38-4.16.57-6.23l1.09-12.48.66-12.52c.28-4.18.33-8.36.41-12.55l.13-6.28.07-3.15,0-3.14-.13-12.59c-.09-4.2-.32-8.4-.46-12.61-.09-2.1-.15-4.21-.27-6.31l-.43-6.3-.42-6.32-.21-3.16-.3-3.15-1.18-12.63L2152,175.3l-.37-3.16-.45-3.15-.89-6.31-.9-6.31-1-6.3q-4.11-25.2-9.91-50.33l-3-12.53c-1.12-4.15-2.1-8.36-3.21-12.52s-2.24-8.35-3.44-12.5-2.33-8.34-3.62-12.48C2120.2,33.07,2114.75,16.53,2108.6,0Z"/><path class="cls-14" d="M2524.21,181.44a248.25,248.25,0,0,1,15.26,21.71q7.14,11.21,13.49,22.91c2.14,3.89,4.16,7.83,6.21,11.78,1,2,2,4,3,6l2.89,6c1.9,4,3.74,8.08,5.54,12.15l5.19,12.31A491.19,491.19,0,0,1,2605,377.58l.58,3.34.47,3.35.94,6.7.93,6.71c.26,2.24.46,4.49.7,6.74l.68,6.75c.2,2.25.5,4.5.6,6.76l.82,13.56c.06,1.13.14,2.27.18,3.4l.07,3.4.12,6.8.13,6.81c.06,2.27-.08,4.54-.11,6.81l-.35,13.63-.94,13.62c-.18,2.27-.3,4.54-.51,6.81l-.8,6.79c-.55,4.52-1,9.05-1.65,13.56l-2.25,13.5L2604,530c-.18,1.12-.38,2.25-.63,3.36l-1.45,6.69-1.47,6.68-.74,3.34c-.24,1.12-.48,2.23-.79,3.33l-3.61,13.21c-.62,2.19-1.17,4.41-1.85,6.58l-2.14,6.5-4.32,13-.86,2.6-1.53,2.16-.88,1.26-1,1.49c-.68,1-1.37,2.05-2.05,3.13-1.37,2.11-2.71,4.28-4,6.47-2.66,4.37-5.22,8.86-7.69,13.4q-7.4,13.65-13.64,28c-4.14,9.51-7.88,19.21-11.14,29.07l-2.37,7.42-2.13,7.49-.54,1.87-.47,1.89-.94,3.78-.93,3.79-.82,3.8-.83,3.81-.41,1.91-.33,1.92-1.34,7.69c-.62,5.15-1.5,10.32-1.86,15.52-.61,5.21-.62,10.42-1,15.67,0,5.23-.12,10.52.27,15.77.1,5.31.77,10.54,1.28,15.86.31,2.64.77,5.26,1.15,7.92l.6,4,.82,3.94,1.63,7.94c.72,2.6,1.39,5.23,2.08,7.87.35,1.32.67,2.65,1,4l1.24,3.9c.85,2.61,1.64,5.26,2.47,7.91-1.57-2.26-3.17-4.53-4.71-6.84l-2.34-3.47c-.72-1.19-1.39-2.41-2.09-3.61-1.38-2.42-2.79-4.85-4.15-7.31l-3.65-7.59c-.61-1.27-1.21-2.55-1.79-3.84l-1.55-3.93c-1-2.63-2.12-5.26-3.07-7.93-1.69-5.4-3.54-10.82-4.81-16.38-1.51-5.53-2.39-11.16-3.46-16.82-.41-2.83-.77-5.67-1.11-8.53s-.57-5.71-.78-8.58c-.51-5.75-.59-11.49-.65-17.26l.25-8.64.06-2.16.15-2.16.3-4.31A277.31,277.31,0,0,1,2523.49,639a322.86,322.86,0,0,1,12.77-32.1c2.45-5.23,5-10.43,7.72-15.56,1.38-2.57,2.78-5.12,4.26-7.68.72-1.28,1.5-2.57,2.26-3.85l1.2-2,.64-1,.74-1.15-2.39,4.77,3.46-12,1.75-6c.57-2,1-4,1.52-6.06l3-12.12c.28-1,.48-2,.68-3.05l.61-3.06,1.24-6.12,1.25-6.12c.23-1,.4-2,.56-3.07l.49-3.09,2-12.33c.61-4.12,1-8.27,1.58-12.4l.77-6.21c.23-2.07.38-4.15.57-6.23l1.09-12.48.66-12.52c.28-4.17.32-8.36.41-12.55l.13-6.28.07-3.14,0-3.15-.12-12.59c-.09-4.2-.32-8.4-.46-12.61-.09-2.1-.15-4.2-.27-6.3l-.43-6.31-.42-6.31-.21-3.16-.31-3.15-1.17-12.63-1.49-12.62-.38-3.16-.44-3.15-.89-6.3-.9-6.32-1-6.29q-4.09-25.22-9.9-50.33l-3-12.54c-1.13-4.15-2.1-8.35-3.22-12.52s-2.23-8.34-3.44-12.49-2.33-8.34-3.61-12.48C2535.82,214.51,2530.37,198,2524.21,181.44Z"/><path class="cls-15" d="M1085,2507.13a89.88,89.88,0,0,1-1.21,15.72,25.26,25.26,0,0,1-4.25,10.71,19.13,19.13,0,0,1-7,6,18.52,18.52,0,0,1-8.19,1.91H776.75V2751h271.82a20.94,20.94,0,0,1,8.19,1.67,17.92,17.92,0,0,1,7,5.47,23.21,23.21,0,0,1,4.25,10.24,91.31,91.31,0,0,1,1.21,16.43,84.76,84.76,0,0,1-1.21,15.48,25,25,0,0,1-4.25,10.48,21.82,21.82,0,0,1-7,6.19,17,17,0,0,1-8.19,2.14H776.75v256.7a10.27,10.27,0,0,1-2.43,6.43q-2.43,3.11-8.49,4.76a113.64,113.64,0,0,1-15.78,2.86,218.85,218.85,0,0,1-25.48,1.19,222,222,0,0,1-24.87-1.19,112.56,112.56,0,0,1-16.38-2.86q-6.08-1.66-8.5-4.76a10.27,10.27,0,0,1-2.43-6.43V2505.22q0-18.57,12.44-25.95a50.89,50.89,0,0,1,26.39-7.38h353.12a18,18,0,0,1,15.17,8.09,27.68,27.68,0,0,1,4.25,11.2A93.94,93.94,0,0,1,1085,2507.13Z"/><path class="cls-15" d="M1961.08,3054.34a81.64,81.64,0,0,1-1.21,15,27.21,27.21,0,0,1-4.25,10.72,18.59,18.59,0,0,1-7,6.19,20,20,0,0,1-8.8,1.9H1563.07a50.75,50.75,0,0,1-26.39-7.38q-12.45-7.38-12.44-25.95v-549.6q0-18.57,12.44-25.95a50.84,50.84,0,0,1,26.39-7.38H1935.6a20.16,20.16,0,0,1,8.8,1.9,14.7,14.7,0,0,1,6.37,6.19,41.13,41.13,0,0,1,3.94,10.72,70.89,70.89,0,0,1,1.52,16,65.81,65.81,0,0,1-1.52,15,37.09,37.09,0,0,1-3.94,10.48,15,15,0,0,1-6.37,6,20,20,0,0,1-8.8,1.9h-307v193.36h263.32a18.1,18.1,0,0,1,8.79,2.14,19.86,19.86,0,0,1,6.68,6,26,26,0,0,1,3.94,10.48,88.84,88.84,0,0,1,1.22,15.72,77.65,77.65,0,0,1-1.22,14.76,25.43,25.43,0,0,1-3.94,10,15.59,15.59,0,0,1-6.68,5.48,22.22,22.22,0,0,1-8.79,1.67H1628.6v220.5h311.25a20,20,0,0,1,8.8,1.91,19.2,19.2,0,0,1,7,5.95,25.16,25.16,0,0,1,4.25,10.47A88,88,0,0,1,1961.08,3054.34Z"/><path class="cls-15" d="M2833.56,2915.27q0,43.35-20.32,77.16t-56.43,57.38q-36.11,23.58-84.94,35.49t-105.27,11.9a476.82,476.82,0,0,1-73.11-5.24,486.67,486.67,0,0,1-60.07-12.86q-26.39-7.6-44.29-15.71t-24.87-13.81a33.8,33.8,0,0,1-10.32-14.53q-3.34-8.81-3.34-23.57a102.14,102.14,0,0,1,1.22-17.39,35.08,35.08,0,0,1,3.64-11.19,13.59,13.59,0,0,1,6.06-6,20.27,20.27,0,0,1,8.5-1.67q8.49,0,24,8.1a412,412,0,0,0,39.74,17.62q24.26,9.52,58.55,17.86t79.17,8.33q34,0,62.19-7.14t48.54-20.24q20.33-13.09,31.25-32.15t10.92-43.34q0-26.18-15.17-44.76t-40-32.63a385.41,385.41,0,0,0-56.73-25.71q-31.86-11.67-65.23-23.82t-64.92-26.91a276.33,276.33,0,0,1-56.42-34.76,165.89,165.89,0,0,1-40.35-46.91q-15.47-26.91-15.47-64.53,0-38.58,17.9-68.82t49.75-50.72q31.85-20.48,75.84-31.2t94.95-10.71a391.34,391.34,0,0,1,52.49,3.57,443.3,443.3,0,0,1,49.75,9.52,326.82,326.82,0,0,1,41.56,13.34q18.19,7.39,24,11.91t7.59,7.14a23.65,23.65,0,0,1,3,6.67,54.85,54.85,0,0,1,1.82,9.76,146.44,146.44,0,0,1,.61,14.76,113.1,113.1,0,0,1-.91,15.24,47.93,47.93,0,0,1-2.73,11.2,13.05,13.05,0,0,1-12.74,8.81q-6.69,0-20.94-6.67t-34.88-15a361.18,361.18,0,0,0-48.84-15.24q-28.21-6.9-63.41-6.91-32.76,0-57,6.91t-40,18.33q-15.8,11.43-23.67,27.15a73.31,73.31,0,0,0-7.88,33.34q0,25.71,15.17,44.29t40.34,32.86a391.07,391.07,0,0,0,57.34,26.19q32.14,11.91,65.53,24t65.52,26.67a277.75,277.75,0,0,1,57.34,34.29,161.18,161.18,0,0,1,40.65,46.68Q2833.56,2878.61,2833.56,2915.27Z"/><path class="cls-15" d="M3685.41,2915.27q0,43.35-20.33,77.16t-56.42,57.38q-36.12,23.58-84.95,35.49t-105.26,11.9a477,477,0,0,1-73.12-5.24,486.89,486.89,0,0,1-60.06-12.86q-26.4-7.6-44.29-15.71t-24.88-13.81a33.87,33.87,0,0,1-10.31-14.53q-3.35-8.81-3.34-23.57a103.31,103.31,0,0,1,1.21-17.39,35.33,35.33,0,0,1,3.64-11.19,13.61,13.61,0,0,1,6.07-6,20.24,20.24,0,0,1,8.5-1.67q8.48,0,24,8.1a414.24,414.24,0,0,0,39.74,17.62q24.27,9.52,58.55,17.86t79.18,8.33q34,0,62.19-7.14t48.54-20.24q20.32-13.09,31.25-32.15t10.91-43.34q0-26.18-15.16-44.76T3521,2846.93a384.93,384.93,0,0,0-56.73-25.71q-31.85-11.67-65.22-23.82t-64.92-26.91a276.05,276.05,0,0,1-56.42-34.76,165.73,165.73,0,0,1-40.35-46.91q-15.48-26.91-15.47-64.53,0-38.58,17.89-68.82t49.76-50.72q31.84-20.48,75.84-31.2t94.95-10.71a391.08,391.08,0,0,1,52.48,3.57,442.44,442.44,0,0,1,49.75,9.52,326.48,326.48,0,0,1,41.57,13.34q18.19,7.39,24,11.91t7.58,7.14a23.65,23.65,0,0,1,3,6.67,55.77,55.77,0,0,1,1.82,9.76,146.87,146.87,0,0,1,.6,14.76,113.1,113.1,0,0,1-.91,15.24,47,47,0,0,1-2.73,11.2,13,13,0,0,1-12.74,8.81q-6.67,0-20.93-6.67t-34.89-15a360.28,360.28,0,0,0-48.84-15.24q-28.21-6.9-63.4-6.91-32.76,0-57,6.91t-40,18.33q-15.78,11.43-23.66,27.15a73.32,73.32,0,0,0-7.89,33.34q0,25.71,15.17,44.29t40.35,32.86A391.07,391.07,0,0,0,3440.9,2720q32.14,11.91,65.52,24t65.53,26.67a277.93,277.93,0,0,1,57.33,34.29,161,161,0,0,1,40.65,46.68Q3685.41,2878.61,3685.41,2915.27Z"/><path class="cls-16" d="M1168.26,3312.9H1207c27.9,0,46.85,11.62,46.85,41.32,0,16.79-7.7,31.77-23.94,36.93v1c20,3.87,31.64,17.3,31.64,40.54,0,33.32-20.82,49.59-51.42,49.59h-41.85Zm35.81,71.28c23.32,0,32.69-9.3,32.69-28.15,0-18.34-10.83-25.05-31.86-25.05h-19.36v53.2Zm3.54,80.06c23.32,0,36.85-9.55,36.85-32.54,0-20.92-12.91-29.44-36.85-29.44h-22.07v62Z"/><path class="cls-16" d="M1325,3312.9h20l46,169.42h-18.74l-23.52-94.53c-4.79-18.85-9.37-37.44-13.54-57.07h-.83c-4.37,19.63-8.75,38.22-13.53,57.07l-23.95,94.53H1279Zm-21.65,100.46h62.67v17.57h-62.67Z"/><path class="cls-16" d="M1417.67,3312.9h17.7v84.71h.63l57.25-84.71h20l-77.87,115.44v54h-17.7Zm38.73,74.89,10.62-17,51.22,111.57h-19.78Z"/><path class="cls-16" d="M1546.13,3312.9h84.53v18.33h-67v52.95h56.63v18.34h-56.63V3464h69.13v18.33h-86.62Z"/><path class="cls-16" d="M1667.93,3312.9h42.68c27.69,0,47.89,12.39,47.89,47.78,0,33.83-20.2,50.1-47.89,50.1h-25v71.54h-17.69Zm40.18,80.32c21.24,0,32.9-10.85,32.9-32.54,0-22.21-11.66-30.22-32.9-30.22h-22.49v62.76Zm12.7.26,41.64,88.84h-19.78l-35.6-77.48Z"/><path class="cls-16" d="M1826,3421.89l-45.81-109h18.53l20.41,50.1c5.2,13.17,10,26.09,15.61,39.52h.84c5.41-13.43,10.82-26.35,16-39.52l19.78-50.1h17.9l-45.8,109v60.43H1826Z"/><path class="cls-16" d="M2030.81,3438.42c0-48.82,58.92-58.37,58.92-94.79,0-9.81-3.33-18.59-12.49-18.59-9.58,0-15.2,10.58-15.2,24.53,0,31.77,27.28,73.87,52.68,97.89,9.78,10.07,19.15,16.78,27.48,20.14l-4.79,17.82c-10.2-3.87-21.24-11.62-33.1-23.5-29.15-28.93-57.26-77.22-57.26-111.83,0-22.73,12.08-40.29,30-40.29,17.08,0,26.65,13.69,26.65,33.57,0,42.1-56.21,55.79-56.21,93.75,0,18.86,11.66,31.26,26.23,31.26,10.62,0,20.61-8.27,28.73-19.89,10.41-15,17.7-34.35,22.28-57.6h16c-5.41,25.31-13.95,48.56-26.23,67.93-11,15.75-24.57,26.6-42.89,26.6C2047.47,3485.42,2030.81,3465.79,2030.81,3438.42Z"/><path class="cls-16" d="M2293.14,3312.9h41.22c30.19,0,50.6,12.65,50.6,49.84,0,35.9-20.62,52.43-50.6,52.43h-23.73v67.15h-17.49Zm39.14,84.71c23.73,0,35.19-10.85,35.19-34.87,0-24.27-11.66-32.28-35.19-32.28h-21.65v67.15Z"/><path class="cls-16" d="M2449.29,3312.9h20l46,169.42h-18.74L2473,3387.79c-4.79-18.85-9.37-37.44-13.53-57.07h-.84c-4.37,19.63-8.74,38.22-13.53,57.07l-23.94,94.53h-17.91Zm-21.66,100.46h62.67v17.57h-62.67Z"/><path class="cls-16" d="M2535.68,3460.37l10.41-15c10.42,12.65,24.57,20.92,40,20.92,18.74,0,29.57-11.11,29.57-26.6,0-18.08-10.62-23.25-24.36-30.48l-19.78-10.85c-13.54-6.71-29.36-18.59-29.36-43.64,0-25.83,18.74-44.94,44.76-44.94,17.08,0,32.07,8.52,42.06,20.92l-9.16,13.94c-9-9.81-19.36-15.75-33.52-15.75-15.82,0-26.44,9.3-26.44,24.54,0,16.27,12.7,22.21,24.36,27.89l19.15,10.59c16.87,8.26,30.19,20.14,30.19,45.19,0,26.87-18.32,48.3-48.3,48.3C2565.25,3485.42,2548,3475.61,2535.68,3460.37Z"/><path class="cls-16" d="M2700.37,3331.23h-45.18V3312.9H2763v18.33h-45.18v151.09h-17.49Z"/><path class="cls-16" d="M2792.18,3312.9h42.68c27.69,0,47.89,12.39,47.89,47.78,0,33.83-20.2,50.1-47.89,50.1h-25v71.54h-17.7Zm40.18,80.32c21.24,0,32.9-10.85,32.9-32.54,0-22.21-11.66-30.22-32.9-30.22h-22.48v62.76Zm12.71.26,41.64,88.84h-19.78l-35.61-77.48Z"/><path class="cls-16" d="M2950.2,3421.89l-45.8-109h18.53l20.4,50.1c5.21,13.17,10,26.09,15.62,39.52h.83c5.41-13.43,10.83-26.35,16-39.52l19.78-50.1h17.91l-45.81,109v60.43H2950.2Z"/></g></g></svg>