<svg xmlns="http://www.w3.org/2000/svg" viewBox="0 0 1641.83 1562.74"><defs><style>.cls-1{fill:#be892c;}.cls-2{fill:#9b5725;}.cls-3{fill:#fdcea9;}.cls-4{font-size:246.63px;font-family:SegoeScript, Segoe Script;}.cls-4,.cls-9{fill:#60351c;}.cls-5{fill:#f47523;}.cls-6{fill:#f68b42;}.cls-7{fill:#fcc861;}.cls-8{fill:#f9e373;}.cls-9{font-size:62.88px;font-family:SegoeScript-Bold, Segoe Script;font-weight:700;}.cls-10{letter-spacing:-0.12em;}</style></defs><title>Asset 11</title><g id="Layer_2" data-name="Layer 2"><g id="Layer_1-2" data-name="Layer 1"><path class="cls-1" d="M978.74,1201.06h23a0,0,0,0,1,0,0v9.6a0,0,0,0,1,0,0h-23a3,3,0,0,1-3-3v-3.6A3,3,0,0,1,978.74,1201.06Z" transform="translate(1977.45 2411.72) rotate(180)"/><path class="cls-1" d="M976.45,1214.72l-15.77-2.35a1.18,1.18,0,0,1-1-1.16v-10.48a1.17,1.17,0,0,1,1-1.15l15.76-2.59a1.18,1.18,0,0,1,1.36,1.16v15.42A1.16,1.16,0,0,1,976.45,1214.72Z"/><path class="cls-1" d="M679.41,1201.06h23a0,0,0,0,1,0,0v9.6a0,0,0,0,1,0,0h-23a3,3,0,0,1-3-3v-3.6A3,3,0,0,1,679.41,1201.06Z"/><path class="cls-1" d="M702.89,1197.07l14.93,2.55a1.56,1.56,0,0,1,1.3,1.58l-.21,9.8a1.56,1.56,0,0,1-1.34,1.52l-15,2.13a1.55,1.55,0,0,1-1.78-1.58l.3-14.49A1.57,1.57,0,0,1,702.89,1197.07Z"/><path class="cls-2" d="M820.91,32.55,1336,213.64l273.39,457.43-94.86,519.72-419.41,340H546.75l-419.41-340L32.47,671.07l273.4-457.43,515-181.09m0-32.55a22.84,22.84,0,0,0-7.56,1.29L292.11,184.55a22.82,22.82,0,0,0-12,9.81L3.23,657.62A22.78,22.78,0,0,0,.37,673.41l96.1,526.47a22.81,22.81,0,0,0,8.07,13.62l424.59,344.15a22.81,22.81,0,0,0,14.36,5.09h554.85a22.83,22.83,0,0,0,14.36-5.09l424.58-344.15a22.83,22.83,0,0,0,8.08-13.62l96.1-526.47a22.83,22.83,0,0,0-2.86-15.79L1361.72,194.36a22.8,22.8,0,0,0-12-9.81L828.47,1.29A22.75,22.75,0,0,0,820.91,0Z"/><path class="cls-3" d="M820.91,47.73A22.84,22.84,0,0,0,813.35,49h0l-1.32.47h0l-.17.06h0l-.09,0h0l-.08,0h0l0,0h0l-.08,0h0l-.2.07h0l-.19.07h0l-.08,0h0l-.05,0-.09,0h0l-.05,0h0l-.1,0,0,0h-.05l0,0h0l-.06,0L773.45,63.05l8.3,23.58,39.16-13.77,36.26,12.75L865.46,62l-36-12.64h0l-.14,0h0l-.06,0h0l-.06,0h0l-.06,0h0l-.11,0h-.16l0,0h0l-.32-.11h0l-7.56,21.51h0V47.73Zm-94.63,31.9L679.11,96.22l8.3,23.58,47.17-16.58-8.3-23.59ZM631.94,112.8l-23.57,8.29h0l-.5.17-.07,0-.25.08h0l-.2.07-.23.08-.09,0,0,0-.23.08h-.05l-.21.08-.07,0-.08,0,0,0-.07,0-.16.05h0l0,0h0l-.15,0-.06,0-.32.11h0l-.17.06h0l-20.43,7.19L593.07,153l47.17-16.58-8.3-23.59ZM537.61,146l-19,6.68h0l-.06,0h0l-.18.06-27.9,9.81,8.29,23.59,47.17-16.59L537.61,146Zm-94.34,33.17L396.1,195.72l8.29,23.59,47.17-16.59-8.29-23.58Zm-94.34,33.17-23,8.07h-.39l-.07,0-.06,0h0l-.21.07h0l-.12,0h0l-.06,0h0l-.09,0h0l-.05,0h0l-.11,0h0l-.21.08h0l-.61.22h0a22.71,22.71,0,0,0-12,9.81h0L308,237.47l21.46,12.83,3.5-5.86,24.3-8.55-8.29-23.58Zm-66.62,68.08-18.1,30.27h0l-.13.22h0L264,311h0l0,.06-7.32,12.24,21.46,12.82,25.66-42.92-21.46-12.82ZM231,366.23l-25.65,42.91L226.81,422l25.65-42.92L231,366.23Zm-51.3,85.83-16.37,27.4,0,.05-.24.4-.06.1,0,0L154.05,495l21.46,12.83,25.65-42.92L179.7,452.06ZM128.4,537.9l-2.8,4.68,0,.06,0,0,0,.06,0,0,0,0-.09.15v0l0,.06,0,.05-.18.29,0,0v0l0,.05,0,.07-.06.1,0,.08h0l-.14.23,0,.07v0l-.08.13,0,.06-.09.15,0,0,0,.06-.12.2,0,.06,0,.07-.09.14v0l-.23.37h0l-21.17,35.44,21.45,12.82,25.66-42.91L128.4,537.9ZM77.09,623.74l-25.2,42.17h0l0,.05v0l0,0v0l0,0h0l0,0h0l-.22.38a1.09,1.09,0,0,0-.08.15l20,10.94,1.89,1.13,25.2-42.17L77.09,623.74Zm2.73,87.38-24.6,4.49.91,5v0h0l.06.31v0h0v.05l0,.18h0v0h0l0,.19v0h0v.1L64.2,764.8l24.59-4.49-9-49.19Zm18,98.38L73.18,814l9,49.18,24.59-4.49-9-49.18Zm18,98.37-24.59,4.49,9,49.19,24.6-4.49-9-49.19Zm18,98.38-24.6,4.48,9,49.19,24.59-4.49-9-49.18Zm17.95,98.37-24.59,4.49s1.71,9.4,3.65,20l0,.11v.12l0,.11v0L136,1158.3l24.59-4.49-9-49.19Zm23.73,75.55-15.75,19.43,22.19,18,16.66,13.5,15.74-19.42-38.84-31.49Zm77.68,63-15.74,19.42L276.07,1294h0l.08.07,15.74-19.42-38.84-31.49Zm77.69,63L315,1325.53,318,1328h0l.25.2,0,0,0,0,0,0,0,0L353.84,1357l15.74-19.42-38.84-31.49Zm77.68,63-15.74,19.42L413,1405h0l.45.36v0l.2.15L431.52,1420l15.74-19.43-38.84-31.48Zm77.69,63-15.75,19.42,38.41,31.13h0l.31.26h0l.08.06h0l0,0h0L525,1463.53l-38.84-31.48Zm74.28,63-12.25,19.23c.6.38,1.21.73,1.84,1h0l0,0h0l0,0h0l.13.07h0l0,0h0l0,0h.06l0,0h0l.07,0h0l0,0h.09l0,0h0l.05,0h.07l0,0h.06l0,0h0l.1.05h0l0,0h0l0,0h0l.05,0h0l.11,0h0l.05,0h0l0,0h0l.22.09h0l.27.11h0a22.63,22.63,0,0,0,4.65,1.31h.06l.24,0h0l.36.05h0l.23,0h.07l.18,0h2.68v-22.8Zm37.07-2.2H560.39v2.2h0v22.8h37.07v-25Zm100,0h-50v25h50v-25Zm100,0h-50v25h50v-25Zm100,0h-50v25h50v-25Zm100,0h-50v25h50v-25Zm84,0h-34v25h34v-22.8h0l14.36,17.71h0l.37-.31-14.73-18.17v-1.43Zm0,2.2v22.8a22.81,22.81,0,0,0,14.36-5.09l-14.36-17.71Zm76.68-65-38.84,31.49L1135,1481l38.84-31.48-15.74-19.43Zm77.68-63L1197,1398.62,1212.7,1418l7.24-5.86.06-.06h0l.15-.13,0,0,31.33-25.4-15.74-19.42Zm77.69-63-38.84,31.48,15.74,19.42,15.61-12.65,0,0,.27-.23,22.92-18.57-15.74-19.42Zm77.68-63-38.84,31.48,15.74,19.43,24.09-19.53,0,0,.08-.07.13-.1.08-.07.19-.15h0l.21-.17,0,0,14-11.36-15.75-19.42Zm77.69-63L1430,1209.72l15.74,19.42,38.84-31.49-15.74-19.42Zm21.88-76.65-9,49.19,24.59,4.49,5.34-29.22v-.11l3.62-19.86-24.59-4.49Zm18-98.37-9,49.19,24.59,4.49,9-49.19-24.6-4.49Zm18-98.38-9,49.19,24.6,4.49,9-49.19-24.6-4.49Zm18-98.37-9,49.19,24.59,4.49,9-49.19-24.59-4.49Zm18-98.37-9,49.18,24.59,4.49.22-1.21h0l0-.2h0l0-.21h0v0h0V760h0l0-.1v-.07h0v-.11l0-.27v-.1l0-.09h0v0h0v0h0v-.11h0v0l0-.09v0h0v0l0-.1h0v0h0l8.43-46.17-24.59-4.48Zm.58-87-21.46,12.82,25.65,42.92L1588.8,664l-4.94-8.28h0c-.15-.27-.31-.53-.48-.8l0,0-.11-.18h0c-.11-.2-.23-.39-.35-.59l-.09-.16-.06-.08,0-.05-.09-.15,0-.08,0-.05,0,0,0,0,0-.1h0l-.2-.33h0l-.06-.09,0,0,0-.06,0,0-.06-.09v0l-18.87-31.57Zm-51.3-85.84-21.46,12.83L1516,591l21.46-12.82-25.65-42.92Zm-51.31-85.84-21.46,12.83,25.66,42.92,21.45-12.83-10.42-17.44,0,0-.57-.95,0-.05-.28-.47h0l-.14-.23,0,0-.06-.1-.17-.29,0-.05-.06-.09,0,0-13.83-23.14Zm-51.3-85.83-21.46,12.82,25.65,42.92,21.46-12.83-25.65-42.91Zm-51.3-85.84-21.46,12.83,25.65,42.91,21.46-12.82-16.39-27.42v0l-.55-.92,0-.06-.12-.2v0l0-.08,0-.05,0,0,0-.08,0-.07,0,0,0-.08-.33-.55,0,0,0,0,0-.05-.06-.1v0l0-.08,0,0-.26-.43,0,0-7.44-12.46Zm-40-56.62-7.56,21.5L1330,230.93a22.75,22.75,0,0,0-12-9.81Zm-28-9.84-8.3,23.59,27.22,9.57,1.92,3.21,21.46-12.83-2.33-3.89h0l-19.57,11.69h0l7.56-21.5h0l-.31-.11h0l-.37-.13h0l-.1,0h0l-.05,0H1317l0,0h0l-.05,0-.24-.08h0l0,0h0l-.1,0h-.09l-.06,0,0,0h0l-.25-.09h0L1290,211.28Zm-94.34-33.17-8.29,23.59,47.17,16.58,8.29-23.58-.62-.22H1242l-.07,0h0l-.06,0h0l-.48-.17h-.06l0,0h0l-.19-.06h0l-.22-.08h0l-.18-.06h0l0,0h0l0,0h-.07l-.06,0h0l-.11,0h0l-.13-.05h0l-.13,0h0l-.28-.09h0l-.59-.21h0l-.64-.23h0l-42.81-15.06ZM1101.31,145,1093,168.53l47.17,16.59,8.29-23.59L1101.31,145ZM1007,111.78l-8.29,23.58L1045.85,152l8.29-23.59L1007,111.78ZM912.63,78.61l-8.29,23.58,47.17,16.59,8.29-23.59-8.95-3.14h0l-.49-.17-.07,0,0,0-.08,0h0l-.07,0,0,0-.09,0h-.06l-.13,0h-.1l-.09,0-.08,0,0,0h-.11l-.09,0h0l-.05,0h0l0,0h0l0,0h0l-.22-.08-.09,0h0l-36-12.65ZM820.91,47.73v22.8L828.47,49a22.75,22.75,0,0,0-7.56-1.29Z"/><path class="cls-1" d="M513.75,487.51c4.25-6.79,9-13.28,13.79-19.69s9.9-12.64,15.13-18.74c10.41-12.25,21.54-23.92,33.16-35.13a466,466,0,0,1,76.76-59.68c7-4.26,14-8.37,21.25-12.27l5.43-2.87c1.81-1,3.65-1.88,5.5-2.78,3.7-1.77,7.34-3.67,11.11-5.31a360.11,360.11,0,0,1,46.23-17.6l6-1.75c2-.58,4-1.18,6-1.65,4-1,8-2,12.1-2.92s8.13-1.71,12.21-2.49l12.31-2.05a321,321,0,0,1,49.88-3,326.84,326.84,0,0,1,49.75,5l12.23,2.54c1,.2,2,.44,3,.71l3,.77,6,1.55c4.05,1,8,2.25,12,3.45l6,1.83c2,.59,3.91,1.38,5.87,2.06a338.17,338.17,0,0,1,45.41,19.76L994.75,343l10.6,6.25c1.75,1.07,3.54,2.08,5.26,3.19l5.14,3.37c3.41,2.26,6.86,4.46,10.23,6.76A491,491,0,0,1,1099.59,426c1.42,1.43,2.78,2.92,4.13,4.42l4.06,4.47c2.71,3,5.43,5.94,8.1,8.94,5.19,6.15,10.38,12.28,15.45,18.49s9.83,12.68,14.64,19.07c4.64,6.54,9.28,13.06,13.77,19.67-5.82-5.51-11.51-11.1-17.18-16.68l-17.35-16.36-17.65-15.9c-6.06-5.09-11.94-10.34-18-15.34a617.47,617.47,0,0,0-76.29-54.39c-3.34-2-6.74-3.82-10.1-5.74l-5-2.85c-1.69-.94-3.43-1.77-5.14-2.66l-10.26-5.33L972.24,361c-14-6.26-28.2-12.13-42.8-16.52A312.79,312.79,0,0,0,840,329.52a318.86,318.86,0,0,0-90.09,11.22,388.2,388.2,0,0,0-43.6,14.53c-7.15,2.83-14.21,5.94-21.22,9.16s-14,6.66-20.83,10.26c-27.52,14.34-53.76,31.52-78.9,50.42A671.47,671.47,0,0,0,513.75,487.51Z"/><path class="cls-1" d="M546.33,391.3a32.36,32.36,0,0,1-5.06-1.93,46.94,46.94,0,0,1-4.35-2.34,48.4,48.4,0,0,1-7.29-5.45,52.79,52.79,0,0,1-10.49-13.2,51.72,51.72,0,0,1-5.83-15.82,48.08,48.08,0,0,1-.84-9.07,46.72,46.72,0,0,1,.28-4.93,31.75,31.75,0,0,1,1-5.33,31.65,31.65,0,0,1,5.08,1.92,46.9,46.9,0,0,1,4.35,2.33,47.5,47.5,0,0,1,7.3,5.45,51.74,51.74,0,0,1,10.46,13.22,52.62,52.62,0,0,1,5.8,15.83,48.15,48.15,0,0,1,.85,9.07,46.87,46.87,0,0,1-.28,4.93A31.69,31.69,0,0,1,546.33,391.3Z"/><path class="cls-1" d="M658.37,317.84a32.75,32.75,0,0,1-5.06-1.93,47.63,47.63,0,0,1-11.63-7.79,53,53,0,0,1-16.32-29,48,48,0,0,1-.85-9.07,46.87,46.87,0,0,1,.28-4.93,32,32,0,0,1,1-5.33,31.16,31.16,0,0,1,5.07,1.93,47.06,47.06,0,0,1,4.36,2.32,48.57,48.57,0,0,1,7.29,5.45,53,53,0,0,1,16.26,29.06,48,48,0,0,1,.85,9.06,46.51,46.51,0,0,1-.27,4.93A32.8,32.8,0,0,1,658.37,317.84Z"/><path class="cls-1" d="M892.44,181.78a33.46,33.46,0,0,1-4-3.46,43.69,43.69,0,0,1-7.83-10.9,47.27,47.27,0,0,1-4.73-15.29,46.66,46.66,0,0,1,.58-16,43.92,43.92,0,0,1,2.63-8.3,44.38,44.38,0,0,1,2.12-4.26,32.19,32.19,0,0,1,2.94-4.37,31.46,31.46,0,0,1,4,3.46,42.54,42.54,0,0,1,3.15,3.56,43.81,43.81,0,0,1,4.7,7.34,46.7,46.7,0,0,1,4.69,15.29,47.23,47.23,0,0,1-.6,16,44.71,44.71,0,0,1-2.64,8.3,43.1,43.1,0,0,1-2.11,4.26A31,31,0,0,1,892.44,181.78Z"/><path class="cls-1" d="M1017.63,187.39a33.7,33.7,0,0,1-2.59-4.89,49.21,49.21,0,0,1-1.78-4.73,50.46,50.46,0,0,1-2-9.16,56.08,56.08,0,0,1,.61-17.44,55.37,55.37,0,0,1,5.86-16.42A49.92,49.92,0,0,1,1023,127a49,49,0,0,1,3.42-3.73,32.73,32.73,0,0,1,4.23-3.58,32.51,32.51,0,0,1,2.61,4.89,49.46,49.46,0,0,1,1.8,4.73,50.74,50.74,0,0,1,2,9.17,56.82,56.82,0,0,1-6.54,33.85,50.55,50.55,0,0,1-5.25,7.77,46.8,46.8,0,0,1-3.41,3.73A33.41,33.41,0,0,1,1017.63,187.39Z"/><path class="cls-1" d="M1007.63,318.86a31.9,31.9,0,0,1-1.25-5.29,45.84,45.84,0,0,1-.51-4.93,48.24,48.24,0,0,1,.41-9.16,53,53,0,0,1,5-16.22,52.21,52.21,0,0,1,9.82-13.84,47.79,47.79,0,0,1,7-5.88,46.72,46.72,0,0,1,4.24-2.57,31.88,31.88,0,0,1,5-2.21,32.94,32.94,0,0,1,1.27,5.3,47.54,47.54,0,0,1,.12,14.09,53.92,53.92,0,0,1-14.91,30,48.32,48.32,0,0,1-7,5.88,49,49,0,0,1-4.23,2.58A33,33,0,0,1,1007.63,318.86Z"/><path class="cls-1" d="M1098.08,390.23a30.54,30.54,0,0,1-.73-5.35,44.71,44.71,0,0,1,0-4.9,47,47,0,0,1,1.28-9,51.47,51.47,0,0,1,6.53-15.42A50.85,50.85,0,0,1,1116.17,343a47.41,47.41,0,0,1,7.53-5,44.72,44.72,0,0,1,4.46-2.08,30.85,30.85,0,0,1,5.15-1.64,32.78,32.78,0,0,1,.74,5.35,46.32,46.32,0,0,1-1.22,13.88,52.4,52.4,0,0,1-17.65,27.94,47.19,47.19,0,0,1-12,7.11A33.23,33.23,0,0,1,1098.08,390.23Z"/><text class="cls-4" transform="translate(195.48 691.97) scale(0.89 1)">Fess Bakery</text><path class="cls-5" d="M1317.58,961.13c-125.51,34-519.29,71.24-519.29,71.24C673.32,1051.62,459,987.1,366,956c-12.09,12.27-18.55,24.68-18.53,36.77.08,70.47,220.18,103.28,491.64,103s491.48-33.69,491.39-104.17C1330.45,981.52,1326,971.3,1317.58,961.13Z"/><path class="cls-6" d="M798.29,1032.37s393.78-37.29,519.29-71.24c-26.9-32.53-94.31-64.52-186.37-87.38l0,33.72,0,19.23s-29.41,12.49-56.6-5.58c-9.16-6.09-11.4-25.42-10.34-48.38-.25-4.14-.31-8.56-.22-13.18-32.09-5.7-66.23-10.31-101.95-13.56l.07,61.67,0,19.24s-29.41,12.49-56.6-5.59c-9.16-6.09-11.39-25.43-10.33-48.39a217,217,0,0,1,.79-31.28q-28.25-1.15-57.37-1.15-23.87,0-47.16.88c3,109-54.54,97.13-54.54,97.13l-14.73-12.43c-4.72-4-5.73-18.45-4.93-36.26-.78-11.7.22-27.7,1.91-43.88-26,2.36-51.26,5.44-75.48,9.13.29,6.5.31,12.75,0,18.62,1.17,24.92-1.54,46.46-12,55.9-22.77,20.45-79.94,1.67-95-52.65-81.22,21.34-142,49.79-170.81,79C459,987.1,673.32,1051.62,798.29,1032.37Z"/><path class="cls-7" d="M737,919.27l-14.73-12.43c-2.84-2.4-4.34-8.59-4.91-17-.8,17.81.21,32.27,4.93,36.26l14.73,12.43s57.54,11.83,54.54-97.13l-.16.12C787.48,929.63,737,919.27,737,919.27Z"/><path class="cls-7" d="M631.8,929.59c10.49-9.44,13.2-31,12-55.9-.88,16.41-4.39,29.76-12.06,36.66-19.6,17.62-64.74,6.12-86.52-32.12-3.15-.38-6-.83-8.48-1.29C551.86,931.26,609,950,631.8,929.59Z"/><path class="cls-7" d="M905.65,902.08c-6.44-4.28-9.45-15.12-10.31-29.15-1.06,23,1.17,42.3,10.33,48.39,27.19,18.08,56.6,5.59,56.6,5.59l0-19.24S932.83,920.16,905.65,902.08Z"/><path class="cls-7" d="M1074.66,901.88c-6.44-4.28-9.46-15.11-10.32-29.14-1.06,23,1.18,42.29,10.34,48.38,27.19,18.07,56.6,5.58,56.6,5.58l0-19.23S1101.84,920,1074.66,901.88Z"/><path class="cls-8" d="M717.4,889.82c.63-13.8,2.34-29.6,4.26-44.1l-2.35.22C717.62,862.12,716.62,878.12,717.4,889.82Z"/><path class="cls-8" d="M721.66,845.72c-1.92,14.5-3.63,30.3-4.26,44.1.57,8.43,2.07,14.62,4.91,17L737,919.27s50.44,10.36,54.4-77.77a61.93,61.93,0,0,1-69.78,4.22Z"/><path class="cls-8" d="M643.83,873.69c.31-5.87.29-12.12,0-18.62l-1.45.22C643.05,861.54,643.55,867.71,643.83,873.69Z"/><path class="cls-8" d="M631.77,910.35c7.67-6.9,11.18-20.25,12.06-36.66-.28-6-.78-12.15-1.45-18.4a144.15,144.15,0,0,1-97.13,22.94C567,916.47,612.17,928,631.77,910.35Z"/><path class="cls-8" d="M895.34,872.93c.46-10,1.54-20.64,2.95-31.2l-2.16-.08A217,217,0,0,0,895.34,872.93Z"/><path class="cls-8" d="M930.49,852.82a62.26,62.26,0,0,1-32.2-11.09c-1.41,10.56-2.49,21.22-2.95,31.2.86,14,3.87,24.87,10.31,29.15,27.18,18.08,56.59,5.59,56.59,5.59L962.17,846A62.32,62.32,0,0,1,930.49,852.82Z"/><path class="cls-8" d="M1064.34,872.74c.2-4.22.5-8.57.9-13l-1.12-.2C1064,864.18,1064.09,868.6,1064.34,872.74Z"/><path class="cls-8" d="M1099.14,873.55a91.24,91.24,0,0,1-33.9-13.79c-.4,4.41-.7,8.76-.9,13,.86,14,3.88,24.86,10.32,29.14,27.18,18.07,56.59,5.59,56.59,5.59l0-33.72A90.93,90.93,0,0,1,1099.14,873.55Z"/><path class="cls-1" d="M718,1219.35v-28.12a3,3,0,0,1,2.16-2.91c16.23-4.38,121.52-30.3,238,0a3,3,0,0,1,2.19,2.92v28.06a3,3,0,0,1-2.29,2.94c-17.12,3.8-127.5,26.23-237.83,0A3,3,0,0,1,718,1219.35Z"/><text class="cls-9" transform="translate(658.37 1341.92)">ES<tspan class="cls-10" x="84" y="0">T</tspan><tspan x="120.53" y="0">. 2024</tspan></text></g></g></svg>