<svg xmlns="http://www.w3.org/2000/svg" viewBox="0 0 2060.74 1482.09"><defs><style>.cls-1{fill:#4f2f10;}.cls-2{fill:none;stroke:#7c4a24;stroke-width:80px;}.cls-2,.cls-3{stroke-miterlimit:10;}.cls-13,.cls-3{fill:#f9aa4b;}.cls-3{stroke:#4f2f10;stroke-width:10px;}.cls-4{fill:#ffca70;}.cls-5{fill:#e07b26;}.cls-6{fill:#ffd88a;}.cls-7{fill:#fec268;}.cls-8{fill:#ffcb70;}.cls-9{fill:#e27a27;}.cls-10{fill:#fcde8a;}.cls-11{fill:#fddb8a;}.cls-12{fill:#fddc8a;}.cls-14{fill:#ef9121;}.cls-15{fill:#2b160f;}.cls-16{fill:#2c140b;}</style></defs><title>Asset 18</title><g id="Layer_2" data-name="Layer 2"><g id="Layer_1-2" data-name="Layer 1"><path class="cls-1" d="M363.93,968.89a859.35,859.35,0,0,0,51.91,96.1,776.45,776.45,0,0,0,63.57,87,751.87,751.87,0,0,0,74.35,76.4,742.64,742.64,0,0,0,83.76,64.54,713.4,713.4,0,0,0,789.7-.08,741.65,741.65,0,0,0,83.76-64.53,753.77,753.77,0,0,0,74.35-76.38,777.63,777.63,0,0,0,63.59-86.94,862.52,862.52,0,0,0,52-96.07,590.84,590.84,0,0,1-34.69,105.16,648.09,648.09,0,0,1-53.25,98.4,681.42,681.42,0,0,1-153.6,165.15,693.52,693.52,0,0,1-201,107.45,706.12,706.12,0,0,1-225.95,37l-28.74-.62c-1.19,0-2.39-.08-3.59-.16l-3.58-.22-7.18-.45-14.35-.91c-1.19-.09-2.39-.14-3.58-.27l-3.58-.38-7.15-.75-14.29-1.53-3.58-.38c-1.19-.14-2.37-.34-3.56-.5l-7.11-1.05-14.22-2.13A700,700,0,0,1,806.47,1445l-6.81-2.25-6.73-2.49-13.45-5-6.71-2.54-6.61-2.77-13.22-5.57c-17.56-7.56-34.74-15.94-51.58-24.9a693.46,693.46,0,0,1-95.83-61.94,681.67,681.67,0,0,1-153.6-165.12A648.8,648.8,0,0,1,398.67,1074,590.83,590.83,0,0,1,363.93,968.89Z"/><path class="cls-1" d="M367.5,503A588.88,588.88,0,0,1,403.2,399.6a647.35,647.35,0,0,1,53.74-96.54A680.25,680.25,0,0,1,610.11,141.32a692.17,692.17,0,0,1,95-60.58C721.83,72,738.84,63.79,756.22,56.4L769.29,51l6.55-2.72,6.63-2.47,13.31-4.88,6.66-2.44,6.74-2.2a706.14,706.14,0,0,1,446.47-.07,692.37,692.37,0,0,1,199.1,105.06A680,680,0,0,1,1607.93,303a646.25,646.25,0,0,1,53.72,96.57A587.68,587.68,0,0,1,1697.31,503a867.09,867.09,0,0,0-52.8-94.09,781.57,781.57,0,0,0-64-85,754,754,0,0,0-74.28-74.62,744.43,744.43,0,0,0-83.3-63,714.38,714.38,0,0,0-781.22-.08,744.34,744.34,0,0,0-83.31,63,754.14,754.14,0,0,0-74.27,74.64,779.52,779.52,0,0,0-63.93,85.05A862.74,862.74,0,0,0,367.5,503Z"/><circle class="cls-2" cx="1032.41" cy="741.05" r="347.49"/><circle class="cls-1" cx="1032.41" cy="741.05" r="247.62"/><path class="cls-3" d="M97.22,891.94S.8,870.12,5.14,798.8c0,0-7.06-81.77,92.08-133.42,0,0,99.14-53.49,218.66-73.78l165.69-22.13,54.87-4.92s56.49,48.57,244.46-19.67c0,0,38.57-18.45,77.68-22.75,0,0,120.6-19.68,223.82,0,0,0,121.68,78.08,236.31,8.61,0,0,3.8-8,134.72.61,0,0,157,11.68,182,28.28,0,0,77.68,78.7,256.41,63.94,0,0,135.81,35,161.89,129.73,0,0,29.87,102.68-140.16,134,0,0-163.79,33.2-217.57,24l-300.28,1.62L1164.7,927s-375.11,23.06-383.8,15.68L570.66,931.6,321.31,918.69S118,905.32,97.22,891.94Z"/><path class="cls-4" d="M534.46,571.72s31.85,54,253.15-22.75c0,0-178.18,150.63-176,160.47s-114.08,89-231.83,83.46c0,0-125.08,4.61-74.56-35,0,0,96.16-58.56,129.57-100.06,0,0,71.7-73.78,84.74-77.47C519.52,580.33,530.91,570.46,534.46,571.72Z"/><path class="cls-4" d="M1083,529.17s102.67,71,231.42,8.3c0,0-109.74,113.13-115.71,122.35,0,0-106.48,91.61-158.09,91.61,0,0-113,31.36-142.33,14.76,0,0-65.73-8-32.59-33.82,0,0,91.81-61.48,140.15-133.42C1005.89,599,1058.79,531.71,1083,529.17Z"/><path class="cls-4" d="M1631.21,562.13s65.88,79.83,253.3,66.92c0,0-205.35,86.69-203.72,95,0,0-97.78,60.87-158.08,68.24,0,0-104.31,19.37-123-3.68,0,0-14.67-24.9,39.11-55.34,0,0,66-56.25,90.45-95.91C1529.22,637.35,1580.28,576.42,1631.21,562.13Z"/><path class="cls-5" d="M26.75,817.65s-12.5-35,5.43-19.06c0,0,58.13,49,97.65,45.8,0,0,153.6,29.51,246.49,18.45l123.05,2.48L769.09,861l294.17-16.6,264.83-14.52,277.05-10.38s171.94-14.19,191.5-25.08c0,0,119-21,163-59.76,0,0,14.67-9.23,24.44-32.28,0,0,61.93,18.16,48.08,81.47,0,0,6.52,47.64-115.71,75.31,0,0-113.27,31.35-214.31,27.67l-181.71.3s-216.76.62-220.83,7.07c0,0-261.35,12.92-271.24,18.45l-266.78,3.23L430.92,904.34s-253.42-.92-262.39-13.84C168.53,890.5,57.71,887.74,26.75,817.65Z"/><path class="cls-6" d="M39.29,743.77s-26.15,19.44-7.43-2.39c0,0,33.25-36.06,75.34-58,0,0,45.39-24.6,76.93-35,0,0,125.09-41.07,172.58-36.38l35-2.72s26.94.52.36,9.25c0,0-36.81,7.54-42.48,8.75s-145.2,30.85-156.69,39.28c0,0-36.28,10.83-62.86,24.63s-46.53,25-68.08,37.12S41.1,742.47,39.29,743.77Z"/><path class="cls-7" d="M132.88,685.36a3,3,0,0,1,1.35-.11,31.2,31.2,0,0,1,4.35,1,35.69,35.69,0,0,1,8.28,3.43,24.84,24.84,0,0,1,10.06,10.64,30.35,30.35,0,0,1,2.29,16.21A64.31,64.31,0,0,1,155,732.47c-3.62,9.49-8.23,18.62-14.61,26s-14.66,12.95-23.7,14.36c-6.17,1-12.46,0-18.49-1.74A12.13,12.13,0,0,1,94,769.23a12.62,12.62,0,0,1-3-3.89c-6.43-11.61-5.69-27-.36-39.34s14.64-21.84,24.69-29.47a128.72,128.72,0,0,1,15.22-10A12.22,12.22,0,0,1,132.88,685.36Z"/><path class="cls-8" d="M169.61,699.16S268.75,623.21,341,619.73c0,0,65.63-.24,32,37.7,0,0-88.9,87-160.33,59.43C212.71,716.86,172.36,706.68,169.61,699.16Z"/><path class="cls-8" d="M730.74,647.81A60,60,0,0,1,741.88,640c9.19-5.3,18.78-9.94,28.89-12.43,5.78-1.43,13.74-2.53,18.63,2.17a15.13,15.13,0,0,1,4,9.21,40.29,40.29,0,0,1-.54,10.45c-1.81,11.93-5.13,23.84-11.6,33.47a69.62,69.62,0,0,1-16.3,16.5c-5.31,4-11,7.54-17.2,9.23s-13,1.37-18.63-2c-5.93-3.57-10.11-10.38-11.58-17.79s-.43-15,1.83-22c2.17-6.77,5.53-13.13,10.26-17.94Z"/><path class="cls-4" d="M870.37,550.09s115.23-1.47,42.45,33.83c0,0-88.8,51.48-126.93,31.38,0,0-28.15-7.35,10-39.71C795.86,575.59,822.28,554.51,870.37,550.09Z"/><path class="cls-4" d="M1297.57,619.88a5.48,5.48,0,0,1,1.26-2.45c10.88-14.2,22.51-27.8,35.89-38.93,16-13.29,34.08-22.35,53.92-24.41a217.74,217.74,0,0,1,64.18,2.89,220.25,220.25,0,0,1,25.11,6.46c6.26,2,12.55,4.37,17.82,8.67a5.84,5.84,0,0,1,2.3,3.18c.44,2.23-1.25,4.22-2.82,5.66A156.66,156.66,0,0,1,1478,594.7c-36.22,25-78.67,35.51-120.49,43.59-10.66,2.06-21.54,4-32.25,2.27s-21.4-7.67-27-18.16a4.55,4.55,0,0,1-.69-2.16C1297.55,620.12,1297.56,620,1297.57,619.88Z"/><path class="cls-9" d="M529.81,569.49s-32.08,2-56.42,20.57c0,0-43.6,27.21-64.78,58.56,0,0-88.41,83-100.64,85.77s-23.06,28-17.76,42.74c0,0,3.23-16.53,12.09-20.91,0,0,61.38-40,64.91-43.65,0,0,33-22,53.11-45.65l39.26-37.58,29.65-28S519.76,570.1,529.81,569.49Z"/><path class="cls-10" d="M596,734.35s-22.46,31.68,9.43,5.25,50.21-41.15,67.52-59.23S756,603.55,756,603.55s50-48.44,65.4-55.35c0,0,6.19-10.46-17.73.26,0,0-119.38,95-119.62,98.42,0,0-76.84,72.4-80.27,80.75C603.79,727.63,598.39,730.77,596,734.35Z"/><path class="cls-11" d="M1317.27,557.77c-1.36.93,63-28.59,11.4,7.69s-80.94,83.61-80.94,83.61-49.43,55-76.6,66.41c0,0-59.48,28.58-22.54-2.46s47-37.2,59.48-52S1273,588.21,1282,583.9,1317.27,557.77,1317.27,557.77Z"/><path class="cls-12" d="M1880.68,650.83s63-4.3,13.58,8c0,0-107.56,51.64-110,56.25s-131,76.55-152.65,59c0,0,99.42-48.41,114.49-60.63C1746.09,713.48,1863.3,651.55,1880.68,650.83Z"/><path class="cls-13" d="M539.77,583.19s48.08,14.3,68.86,11.07c0,0,6.11,12.91-11.82,28.13,0,0-90.86,95-125.49,100.52,0,0-98.6,54.87-145,36.89,0,0-.81-12.45,32.19-30,0,0,80.05-54.87,109.49-86.23C468,643.6,525.1,586.42,539.77,583.19Z"/><path class="cls-13" d="M1083.8,549s16.29-.61,19.28,2.15c0,0,59.51,26.57,60,26.44,17.38-4.3-22.54,66.09-76.33,88.84,0,0-143.41,109.79-195,79.49,0,0-19-5.71,51.61-48.75,0,0,88.55-83,107.56-116.2C1050.93,581,1071.06,548.69,1083.8,549Z"/><path class="cls-13" d="M1528.53,666s74.16-91.3,104.31-83c0,0,54.59,39.66,68.45,36,0,0,12.22,14.75-13.86,24.9,0,0-128.75,64.55-132.82,78.39,0,0-119,74.7-129.56,53.49,0,0,9.78-28.59,69.26-75.63Z"/><path class="cls-14" d="M567,808.88s84.85,2.57,43.5,56.56c0,0-64.18,32.57-80.58-12C529.94,853.45,525.66,816.59,567,808.88Z"/><path class="cls-14" d="M1550.91,810.53s67-59,65.34,12.42c0,0-31.29,71.29-69,48.65C1547.28,871.6,1523.29,846.21,1550.91,810.53Z"/><path class="cls-14" d="M914.14,828.81s43.81,32.87,5.64,47.38c0,0-43.64-5.79-38.69-36.5C881.09,839.69,890.06,817.74,914.14,828.81Z"/><path class="cls-14" d="M985.59,828.73s23.28,1.22,11.94,26.92c0,0-17.61,15.5-22.11-5.71C975.42,849.94,974.24,832.4,985.59,828.73Z"/><path class="cls-14" d="M976.45,884.54s15.77.58,8.09,12.69c0,0-11.93,7.31-15-2.69C969.56,894.54,968.76,886.27,976.45,884.54Z"/><path class="cls-14" d="M654.66,857.78s30.77,1.59,15.77,34.94c0,0-23.27,20.11-29.22-7.41C641.21,885.31,639.66,862.55,654.66,857.78Z"/><path class="cls-14" d="M1654.66,793.18s30.78,1.59,15.78,34.93c0,0-23.28,20.12-29.22-7.41C1641.22,820.7,1639.66,797.94,1654.66,793.18Z"/><path class="cls-15" d="M527.55,323.26A717.47,717.47,0,0,1,656.27,207l11.86,17.25a713.11,713.11,0,0,0-96.92,82.09l46.06,44.75a648.86,648.86,0,0,1,80.21-69L709.43,299a635.55,635.55,0,0,0-77.36,66.51l62.71,60.93c-7,7.18-13.81,14.67-20.3,22.32Z"/><path class="cls-15" d="M959.15,197.91a640.3,640.3,0,0,0-97.62,21.69q10.59,33.18,21.2,66.38a560.67,560.67,0,0,1,95.45-20.2c.92,8.32,1.38,12.48,2.31,20.8a521.28,521.28,0,0,0-117.85,28.63Q827.8,225.06,793,134.91a715.65,715.65,0,0,1,159.5-39.6c1,8.31,1.51,12.46,2.52,20.77a716.44,716.44,0,0,0-118.33,25.67q9.3,29.08,18.59,58.18a664.75,664.75,0,0,1,101.21-22.49Z"/><path class="cls-15" d="M1083.28,255.91c15.53,9.88,32.35,16.31,49.85,20.46,19.15,4.54,47.95,3.16,55.3-19.66,7.66-23.76-18.61-39.72-35.36-49.08-23.6-13.18-64.44-31.69-61.58-65,4-46,72.79-42.85,102.38-35.6,21.42,5.23,43.86,13.92,61.76,28.56-6.83,6.2-10.19,9.34-16.79,15.69a133.36,133.36,0,0,0-51.25-24.54c-16.7-4-54.92-7.57-59.23,17.64-4,23.44,30,37.84,46,47.33,25.09,14.88,58,39.56,44.8,73.49-14.37,37.06-60.16,37.12-92.17,31-17.62-3.39-37.82-9.54-53-20.12C1077.6,268,1079.46,263.94,1083.28,255.91Z"/><path class="cls-15" d="M1309.58,336.73c9.72,16.47,22.2,30.49,36.24,42.88,14.79,13.05,42.35,28.31,60.07,10.9,18.32-18,1-45.48-10-62-15.08-22.76-44.75-59.62-26.42-88.28,25.59-40,87.71-1.07,110.42,19.4,17.53,15.8,34.14,35.25,43.91,57.84-9.18,1.93-13.74,3-22.77,5.16A146.84,146.84,0,0,0,1465,274c-12.89-11.48-47.09-34.8-62.6-14.13-14.41,19.22,10.25,48.95,20.46,65.32,15.49,24.84,36.21,65.12,7.57,89.34-30.75,26-74.19.8-99.41-20.33-14.56-12.2-30.15-27.06-39.24-44.05C1298.81,344.67,1302.37,342,1309.58,336.73Z"/><path class="cls-16" d="M563.29,935.4a446.78,446.78,0,0,1,32.22,33c12.35,13.82,24.56,29.41,29.52,47.61,3.21,11.79,2,25-5.1,35.35-10.46,15.32-32,14.66-46.54,5.9l-.3.4c12.39,18.24,21.19,44.65,8,64.79A34.22,34.22,0,0,1,548,1137.36c-26.81-3.46-49.2-26.93-66.23-46.12a345.8,345.8,0,0,1-30-39Zm-28.62,70.4c6.56,7.73,9.88,11.52,16.6,19,11.34,11,34.44,29.41,48.36,10.45,13.13-17.9-1.28-39.48-13.69-53.1-7.91-8.66-12.82-13.42-16-16.06Q552.3,985.93,534.67,1005.8ZM482.18,1065a186.39,186.39,0,0,0,16.28,20.1c13.44,14.88,44,40.35,60.69,16.68,15.33-21.71-4.89-49.61-19.77-66.2-6.24-6.94-9.33-10.47-15.44-17.67Z"/><path class="cls-16" d="M694.66,1200.19q-20.56,19-41.88,37-12.54-8-24.74-16.63a1085.18,1085.18,0,0,0,131.09-118.5c9.63,5.42,14.49,8,24.27,13A1444.38,1444.38,0,0,0,789,1306.59q-13.82-5.28-27.41-11.19-1.92-30.44-2.77-60.89C736.9,1224,715.61,1212.58,694.66,1200.19Zm65.23,15.54q-.2-27.57.5-55.11c.63-11.33,1.52-22.53,3.1-33.78l-.47-.25A302.76,302.76,0,0,1,742.93,1151q-17.88,18.45-36.44,36.18C724,1197.34,741.66,1207,759.89,1215.73Z"/><path class="cls-16" d="M913.32,1162.49c8.56,2,12.85,2.93,21.45,4.61q-6.21,42-12.43,83.92l.83.16c5.94-5.75,11.7-11.08,17-16a790.58,790.58,0,0,0,59.7-59.23c10.78.83,16.18,1.12,27,1.44a776.7,776.7,0,0,1-68.66,69.28A937.16,937.16,0,0,0,1028.78,1354c-10.61-.2-21.25-.67-31.83-1.4a980.5,980.5,0,0,1-57.54-93.74c-8.08,6.49-12.2,9.67-20.59,15.9L909,1341.14c-10.64-2.07-16-3.22-26.53-5.7Q897.89,1249,913.32,1162.49Z"/><path class="cls-16" d="M1205.51,1250.58c-24.12,6.05-48.25,10.89-72.84,14.58q3.38,31.59,6.76,63.18a808,808,0,0,0,87.24-18.07c1.55,7.44,2.33,11.15,3.88,18.59a785.1,785.1,0,0,1-115.88,21.7q-6.8-87.91-13.6-175.84a664.36,664.36,0,0,0,90-16.55c1.51,7.45,2.27,11.17,3.78,18.62a697.49,697.49,0,0,1-70.13,14.28q3,27.69,5.92,55.38c24-3.61,47.63-8.34,71.2-14.26C1203.32,1239.55,1204.05,1243.22,1205.51,1250.58Z"/><path class="cls-16" d="M1273.79,1131.71a367.09,367.09,0,0,1,37.94-22.15c15.14-7.82,32.6-16.39,50.49-13.14,11.83,2.15,21.39,10.59,26.67,21.14,10.14,20.27,2.55,43.63-12.46,59.22.12.28.18.42.31.7,15.34-3.38,30.42,4.15,40.33,15.4s21.33,25,35,32.64q-12.25,8.42-24.87,16.32c-11.71-7.46-21-19.33-29.55-29.65-13.4-16.25-29.78-20.51-48.91-10.64-8.62,4.53-13,6.71-21.67,10.9q12.81,35.29,25.63,70.58c-10.08,4.85-15.15,7.17-25.35,11.61Zm47.51,64.79c9.27-4.46,13.88-6.78,23-11.63,18.32-9.54,34.42-30.55,24.9-51.68s-32.89-17.37-49.76-8.41c-9.89,5.26-16.76,9.67-19.76,12.26Q1310.5,1166.77,1321.3,1196.5Z"/><path class="cls-16" d="M1561,1136l-42-57.18a713.78,713.78,0,0,1-101.15-38.06c8.42-6.88,12.58-10.43,20.8-17.75,15.28,7,30.8,13.57,46.58,19.39,11.76,4.34,23.51,8.68,35.24,13.12l.44-.45c-2.55-14-4.46-28.18-6.63-42.27q-4.48-28.41-10.21-56.55,9.46-11,18.45-22.42a1112.9,1112.9,0,0,1,16.26,124.57l43.94,55.6Q1572,1125.2,1561,1136Z"/></g></g></svg>