<svg xmlns="http://www.w3.org/2000/svg" viewBox="0 0 1817.39 1519.75"><defs><style>.cls-1{fill:#fee266;}.cls-1,.cls-10,.cls-2,.cls-3,.cls-4,.cls-5,.cls-6,.cls-7,.cls-8,.cls-9{stroke:#231f20;stroke-width:30px;}.cls-1,.cls-10,.cls-12,.cls-2,.cls-3,.cls-4,.cls-5,.cls-6,.cls-7,.cls-8,.cls-9{stroke-miterlimit:10;}.cls-2{fill:#f8a284;}.cls-3{fill:#c35a27;}.cls-4{fill:#f9a050;}.cls-5{fill:#f68a4f;}.cls-6{fill:#bb4226;}.cls-7{fill:#dd8231;}.cls-8{fill:#483d16;}.cls-9{fill:#dcdbdb;}.cls-10{fill:none;}.cls-11,.cls-12{fill:#231f20;}.cls-12{stroke:#fff;}</style></defs><title>Asset 17</title><g id="Layer_2" data-name="Layer 2"><g id="Layer_1-2" data-name="Layer 1"><path class="cls-1" d="M432.5,890.8c2.22-32.48,38.79-67.93,57.25-89.67a500.06,500.06,0,0,1,90.93-83.07c67.47-48.15,145.77-80.7,226.82-97.46,61.76-12.77,125.94-16.84,187.92-5.17,92.5,17.41,175.37,68.86,247.54,129.29A1033.28,1033.28,0,0,1,1409.8,921.88c3.43,4.64,7,9.69,7.11,15.45.28,10.81-11,18-21.06,21.83-30.57,11.59-63.85,13.47-96.53,14.43-70.26,2.06-140.57.47-210.84-1.12l-499.34-11.3c-43-1-88.1-2.48-125.53-23.74-12.71-7.22-24.76-17.37-29.3-31.27A40,40,0,0,1,432.5,890.8Z"/><path class="cls-2" d="M1070.49,621l51.43-217.92c15.64-66.25,41.76-160.64,108.84-194,10.24-5.08,22.12-8.15,33.13-5.09,13.82,3.86,23.37,16.42,30.06,29.12,14.19,27,20.14,57.47,23.81,87.72,16.84,139-11.11,279.68-49.65,414.32A805.81,805.81,0,0,0,1070.49,621Z"/><path class="cls-3" d="M751.82,367.51S886.54,315.21,995.91,423c0,0,82.42,89.55,81.62,116.49,0,0-13.47,76.87-17.43,79.25,0,0-49.93-18.23-110.95-19.81,0,0-128.42-7.35-168,15.85Z"/><path class="cls-4" d="M634.13,668.66s-41.6-398.23-38-416.06c0,0-25-140.27,25-173.56,0,0,52.3-61.81,89.15,137.9,0,0,30.91,134.32,41.61,269.84l11.62,137S660.15,648.58,634.13,668.66Z"/><path class="cls-4" d="M542.05,735.09a5935.36,5935.36,0,0,1-97.8-599.44c-2.7-24.37-5.24-50.11,1.61-74,5-17.36,20.07-48.71,42.26-46.5,6.86.68,12.82,4.94,17.93,9.57,18.61,16.87,30.23,40.06,39.27,63.49,19,49.18,28.33,101.48,35.9,153.64C602.19,386.13,610.31,532,625.94,677Z"/><path class="cls-5" d="M523.32,742.83l0,0L493.48,544.57c-1.06-7-2.15-14.16-5-20.66-3.4-7.64-9.13-14-15.2-19.74-28.5-26.95-65.64-42.55-102.2-56.78-51.91-20.21-104.9-38.9-160-46.84-21.2-3.05-43.1-4.46-63.83,1C79,419.42,57.65,514.16,67.86,574.4c7.9,46.64,31.46,89.61,61.75,126,4.13,4.95,8.63,10,14.65,12.31,9.77,3.78,20.85-.55,29.43-6.54s16.09-13.74,25.65-18c13.48-6,29.42-4.3,43.07,1.35s25.47,14.87,37.1,24c11.05-17.76,36.89-18.36,57-12.53A147.81,147.81,0,0,1,383.13,724c29.82,22.09,52.31,56,87.68,67.17A198.74,198.74,0,0,1,523.32,742.83Z"/><path class="cls-6" d="M105,844.83c-11.69-3.78-24.47-2.8-36.8-2.39-14,.46-28.92-.22-40.34-8.94-52.27-39.91,70.49-99,96.43-104.6,13.09-2.86,26.52-4.16,39.28-8.42,14.8-5,28.36-13.8,43.37-18,29.1-8.11,62.1,3.63,81.08,28.83,11.53-22.68,41.65-27.12,63.49-16.52s37.3,31.94,52,52.37,30.5,41.57,52.6,51.52c-22.22,27.2-35.13,63.11-35.71,99.4A185.58,185.58,0,0,0,327.84,932c-16.56,7.07-33.64,16.77-51.15,13.32-27.09-5.34-43.26-39.9-70.5-44.29-10-1.61-20.31,1.19-30.28-.68-27.64-5.18-40.44-42.09-66.33-53.77A42.66,42.66,0,0,0,105,844.83Z"/><path class="cls-7" d="M1289.13,756.63S1356.49,430.91,1345.4,400c0,0,163.25-53.09,241.71,106.2s19,307.48,19,307.48-27.74,85.59-67.36,120.46H1437.33S1459.52,905.61,1289.13,756.63Z"/><path class="cls-8" d="M1316.83,781.31l263.94-252.92s40.41-28.53,64.19-4.76l53.89,58.65s19.81,30.11-11.89,60.23L1427.84,902.43S1358,807.58,1316.83,781.31Z"/><path class="cls-8" d="M1649,523.32c-.23-5.28,4.88-9.62,13.09-19.12L1725.22,431c14.85-17.21,33.7-36.05,56.24-33.11a25.27,25.27,0,0,1,12.47,4.92c9.71,7.68,10.09,22.56,6,34.25-5.23,14.91-15.91,27.17-26.35,39l-84.34,95.78q-15.48-16.86-31-33.72C1652,531.26,1649.12,527.06,1649,523.32Z"/><path class="cls-9" d="M91.73,966.64l74.49,386.73s934.35-28.53,1459.78,11.89c0,0,78.45-343.92,71.32-390.69,0,0-150.57-27.35-250.43-23.39,0,0-24.3,30.25-70.26,29.19l-229.7,4.49-297.18-2.37-294.81-2.38s-57.06,3.18-98.66-29.32C456.28,950.79,282.32,933,91.73,966.64Z"/><path class="cls-10" d="M186.91,709.58s-64.48,102-63.26,147"/><path class="cls-10" d="M298.56,717.14s-79.31,149.52-87.88,185.52"/><path class="cls-10" d="M406.43,765.91S402,842,381,875.34c0,0-16.64,39.09-31.33,48.93"/><path class="cls-11" d="M266.49,461.71a91.75,91.75,0,0,1,.15,12.39c-.19,4.07-.52,8.11-1,12.1a194.47,194.47,0,0,1-4.45,23.55,225.55,225.55,0,0,1-16.48,44.64,207.68,207.68,0,0,1-11.78,20.88,171.83,171.83,0,0,1-14.42,19.45A131.21,131.21,0,0,1,201,611.88l-2.42,1.91c-.83.62-1.67,1.24-2.53,1.82l-2.56,1.76c-.43.29-.84.6-1.28.87l-1.35.8c-1.79,1.07-3.58,2.11-5.44,3.06s-3.79,1.77-5.76,2.51l19-42.67c6.18-13.73,12.48-27.32,19.18-40.84s13.73-27,21.58-40.24c3.92-6.65,8.06-13.24,12.49-19.79,2.22-3.27,4.52-6.52,6.93-9.75S263.71,464.87,266.49,461.71Z"/><path class="cls-11" d="M357.75,497.25a111.27,111.27,0,0,1-1.36,12.68c-.65,4.14-1.45,8.22-2.35,12.26a241.9,241.9,0,0,1-6.68,23.66,290.35,290.35,0,0,1-19.43,44.63c-3.83,7.15-8,14.17-12.47,21a222.35,222.35,0,0,1-14.6,19.89,159.78,159.78,0,0,1-17.38,18.16c-1.64,1.39-3.23,2.78-4.94,4.09l-2.6,1.93c-.85.64-1.73,1.26-2.67,1.84s-1.82,1.19-2.75,1.74-1.94,1.06-2.89,1.57a33.22,33.22,0,0,1-6.07,2.41c1-2,2-3.69,2.86-5.63s1.68-3.72,2.51-5.54,1.56-3.72,2.34-5.54l2.28-5.54c3-7.37,6-14.7,9.24-21.94,6.34-14.48,13.21-28.71,20.73-42.66a449.15,449.15,0,0,1,24.77-40.91q6.82-10,14.53-19.55,3.87-4.78,8.05-9.44C351.66,503.25,354.55,500.19,357.75,497.25Z"/><path class="cls-11" d="M432.4,553.53a80.6,80.6,0,0,1,.42,10.46c0,3.44-.28,6.8-.57,10.16a163,163,0,0,1-3.09,19.66,196.77,196.77,0,0,1-12.23,37.26A170.14,170.14,0,0,1,397,665.39a106.79,106.79,0,0,1-13.91,15.21,62,62,0,0,1-8.59,6.43,32.93,32.93,0,0,1-4.92,2.5,15.32,15.32,0,0,1-5.37,1.23,22.84,22.84,0,0,0,2.4-4.46c.66-1.47,1.18-3,1.72-4.5,1-3,2-6,2.89-9.09,1.84-6.06,3.66-12.09,5.64-18.08a377,377,0,0,1,13.53-35.29,294.47,294.47,0,0,1,17.62-34c3.37-5.52,7-11,11-16.3,2-2.65,4.06-5.3,6.28-7.9A91.74,91.74,0,0,1,432.4,553.53Z"/><path class="cls-11" d="M488.63,645.34a65.42,65.42,0,0,1,.39,14.18,97.87,97.87,0,0,1-2,14,101.79,101.79,0,0,1-3.94,13.59,96.8,96.8,0,0,1-5.82,13,80.09,80.09,0,0,1-17.73,22.71,60.94,60.94,0,0,1-12.08,8.14,43.16,43.16,0,0,1-13.77,4.17c3.49-3.31,6.71-6.42,9.66-9.69s5.6-6.67,8.13-10.12a197.77,197.77,0,0,0,13.46-21.84c4.11-7.58,7.85-15.46,11.7-23.47S484.19,653.76,488.63,645.34Z"/><path class="cls-11" d="M520.22,270.17a27.19,27.19,0,0,1,2-7,38.84,38.84,0,0,1,3.21-6,43.52,43.52,0,0,1,8.85-9.8,38.82,38.82,0,0,1,11.7-6.74,24.22,24.22,0,0,1,3.39-1,29.87,29.87,0,0,1,3.55-.59,30.67,30.67,0,0,1,3.71,0,17.78,17.78,0,0,1,3.72.84c-.82,1.06-1.57,2-2.3,2.79s-1.41,1.78-2.09,2.57c-1.36,1.69-2.69,3.19-4.06,4.72a86.54,86.54,0,0,1-8.75,8.27,69.89,69.89,0,0,1-10.2,7A46,46,0,0,1,520.22,270.17Z"/><path class="cls-11" d="M533.7,343.42a27.19,27.19,0,0,1,2-7,38.84,38.84,0,0,1,3.21-6,43.29,43.29,0,0,1,8.85-9.8,38.82,38.82,0,0,1,11.7-6.74,24.22,24.22,0,0,1,3.39-1,29.87,29.87,0,0,1,3.55-.59,30.65,30.65,0,0,1,3.71,0,17.78,17.78,0,0,1,3.72.84c-.82,1.06-1.57,2-2.31,2.79s-1.4,1.78-2.08,2.57c-1.36,1.69-2.7,3.19-4.06,4.72a86.54,86.54,0,0,1-8.75,8.27,69.89,69.89,0,0,1-10.2,7A46,46,0,0,1,533.7,343.42Z"/><path class="cls-11" d="M553.78,435.38a21,21,0,0,1,.79-6.12,29,29,0,0,1,2-5.23,30.43,30.43,0,0,1,6.49-8.5,27.76,27.76,0,0,1,9.37-5.78,21.87,21.87,0,0,1,5.8-1.28,20.75,20.75,0,0,1,3.16.08,12.39,12.39,0,0,1,3.17.91c-.59,1-1.11,1.9-1.61,2.66s-.94,1.64-1.38,2.36-.89,1.51-1.35,2.18-.91,1.42-1.38,2a45.75,45.75,0,0,1-6.32,7.14,41.37,41.37,0,0,1-8,5.75A33,33,0,0,1,553.78,435.38Z"/><path class="cls-11" d="M548.6,556.12a37.71,37.71,0,0,1,2.36-8.39,58.46,58.46,0,0,1,3.68-7.49,63.87,63.87,0,0,1,10.07-13,55.21,55.21,0,0,1,13.4-10,38.54,38.54,0,0,1,8.13-3.16c.73-.16,1.46-.33,2.19-.46s1.49-.21,2.24-.26a21.51,21.51,0,0,1,2.27,0,20.68,20.68,0,0,1,2.27.31c-2.07,2.25-3.74,4.26-5.41,6.31s-3.26,4-4.91,6c-3.28,3.88-6.68,7.63-10.31,11.23a119.79,119.79,0,0,1-11.69,10.28A68.48,68.48,0,0,1,548.6,556.12Z"/><path class="cls-11" d="M564.59,651.58a24.73,24.73,0,0,1,1.38-6.69,34.2,34.2,0,0,1,2.61-5.76,37.79,37.79,0,0,1,7.7-9.49A34.25,34.25,0,0,1,586.9,623a26.47,26.47,0,0,1,6.47-1.63,27.18,27.18,0,0,1,3.49,0,15.37,15.37,0,0,1,3.53.81c-.72,1.06-1.37,2-2,2.77s-1.19,1.75-1.76,2.53-1.13,1.63-1.71,2.36-1.13,1.55-1.72,2.25a67.78,67.78,0,0,1-7.6,8,57.91,57.91,0,0,1-9.17,6.72A40.67,40.67,0,0,1,564.59,651.58Z"/><path class="cls-11" d="M625.94,255a22.23,22.23,0,0,1,1.41-3.95,32.6,32.6,0,0,1,1.87-3.57,43.37,43.37,0,0,1,4.67-6.34,50.08,50.08,0,0,1,12-9.8,46.13,46.13,0,0,1,14.64-5.58c1.32-.22,2.64-.41,4-.53a32.14,32.14,0,0,1,4-.07c.68,0,1.35.06,2,.12a18.9,18.9,0,0,1,2.05.32,25.72,25.72,0,0,1,4,1.09,117.51,117.51,0,0,1-12,9.29c-3.84,2.73-7.72,5.09-11.69,7.45A132.83,132.83,0,0,1,640.48,250,77.32,77.32,0,0,1,625.94,255Z"/><path class="cls-11" d="M638.35,335.47a22.41,22.41,0,0,1,1.41-3.94,33.69,33.69,0,0,1,1.87-3.58,43.82,43.82,0,0,1,4.67-6.33,49.85,49.85,0,0,1,12-9.8,46.15,46.15,0,0,1,14.64-5.59c1.32-.22,2.64-.41,4-.52a32.11,32.11,0,0,1,4.05-.07c.68,0,1.34.05,2,.11a18.41,18.41,0,0,1,2,.33,25.55,25.55,0,0,1,4,1.09,120.08,120.08,0,0,1-12,9.29c-3.84,2.73-7.72,5.08-11.69,7.44a130.55,130.55,0,0,1-12.46,6.5A77.32,77.32,0,0,1,638.35,335.47Z"/><path class="cls-11" d="M638.35,435.38a50,50,0,0,1,2.25-6c.85-1.95,1.78-3.85,2.76-5.71a108.17,108.17,0,0,1,6.53-10.74,127.28,127.28,0,0,1,16.17-19.06A114.53,114.53,0,0,1,686,378.43c.9-.56,1.86-1,2.79-1.55s1.86-1,2.81-1.48,1.87-1,2.87-1.4l3-1.22a54.58,54.58,0,0,1,12.37-3.45c-5.78,6.48-11.41,12.1-17,17.79s-11.2,11.29-17,16.79-11.56,11-17.7,16.28A182.67,182.67,0,0,1,638.35,435.38Z"/><path class="cls-11" d="M647.58,497.25A27.41,27.41,0,0,1,649,492.5c.28-.76.6-1.5.92-2.25s.69-1.44,1-2.17A56.37,56.37,0,0,1,656,480a64.21,64.21,0,0,1,13.54-13.2,58.11,58.11,0,0,1,17-8.6c1.56-.45,3.11-.86,4.68-1.21s3.21-.48,4.81-.66c.81-.07,1.61-.15,2.42-.19s1.64,0,2.46.07a33.87,33.87,0,0,1,4.9.55c-5,4.51-9.79,7.71-14.37,11.32s-9.17,6.7-13.74,10.08-9.26,6.59-14.17,9.8A143,143,0,0,1,647.58,497.25Z"/><path class="cls-11" d="M674.07,588.08a46.2,46.2,0,0,1,3.8-8.87,72.12,72.12,0,0,1,5-7.86,83.42,83.42,0,0,1,12.43-13.51,76.61,76.61,0,0,1,7.31-5.67,62.5,62.5,0,0,1,8.1-4.75,48.69,48.69,0,0,1,9-3.42c.8-.19,1.6-.38,2.4-.54s1.63-.27,2.45-.36S726.2,543,727,543a21.05,21.05,0,0,1,2.51.2c-2.34,2.4-4.36,4.58-6.38,6.78s-4,4.35-6,6.43c-4,4.19-8.23,8.2-12.63,12a148.26,148.26,0,0,1-14,10.84A81.5,81.5,0,0,1,674.07,588.08Z"/><path class="cls-11" d="M786.13,486.78a75,75,0,0,1,3.44-7.69c1.26-2.49,2.62-4.92,4-7.31A151.79,151.79,0,0,1,803,458a158.91,158.91,0,0,1,22.84-24.36,117.89,117.89,0,0,1,28.37-18.44,72.56,72.56,0,0,1,16.32-5.28,47.06,47.06,0,0,1,17-.44,113,113,0,0,0-14.69,6.92,138.51,138.51,0,0,0-13.25,8.4c-8.53,6-16.63,12.61-24.64,19.46q-6,5.16-11.94,10.47L811,465.41C803,472.56,795,479.8,786.13,486.78Z"/><path class="cls-11" d="M813.32,573.57c1.63-3.59,3.45-7.09,5.39-10.49s4-6.78,6.07-10.08c4.23-6.6,8.8-13,13.61-19.18a262,262,0,0,1,32.2-34.45c3-2.58,6-5.16,9.11-7.62,1.55-1.24,3.11-2.46,4.72-3.63s3.16-2.4,4.81-3.51l4.95-3.34c1.65-1.12,3.38-2.12,5.08-3.16s3.43-2,5.19-3,3.49-1.93,5.31-2.78a110.24,110.24,0,0,1,22.49-8.46,70.48,70.48,0,0,1,23.7-2.16,126.54,126.54,0,0,0-21.32,8.62,170.31,170.31,0,0,0-19.34,11.52c-6.19,4.26-12.24,8.68-18.11,13.4l-4.39,3.56c-1.47,1.17-2.91,2.4-4.34,3.64-2.91,2.39-5.74,4.91-8.58,7.4-11.32,10.06-22.35,20.55-33.29,31.28S824.73,562.75,813.32,573.57Z"/><path class="cls-11" d="M924.66,581.49a44.84,44.84,0,0,1,3.53-9.93,70.41,70.41,0,0,1,5.13-8.94A76.88,76.88,0,0,1,947,547.3a61.93,61.93,0,0,1,18-10.89,41.11,41.11,0,0,1,10.5-2.54,25.37,25.37,0,0,1,10.75,1c-3.13,1.84-5.86,3.58-8.45,5.45s-5,3.7-7.44,5.68c-4.81,3.87-9.47,7.89-14.24,11.92s-9.6,8.14-14.72,12.13A135.75,135.75,0,0,1,924.66,581.49Z"/><path class="cls-11" d="M1196.63,391.51c2.65-2.64,5.26-5,7.88-7.25s5.24-4.42,7.84-6.58c5.22-4.25,10.51-8.2,15.81-12.16s10.75-7.73,16.32-11.51c2.88-1.8,5.65-3.74,8.69-5.49a85.74,85.74,0,0,1,9.49-5.1,61.35,61.35,0,0,1-10.74,18.72c-1.13,1.38-2.28,2.75-3.49,4.05s-2.49,2.54-3.78,3.77-2.63,2.39-4,3.54-2.73,2.28-4.19,3.29a83.28,83.28,0,0,1-18.62,10.4,69.36,69.36,0,0,1-10.29,3.2A42.56,42.56,0,0,1,1196.63,391.51Z"/><path class="cls-11" d="M1169.18,452.65c3.65-2.27,7.19-4.29,10.71-6.28l5.26-2.92c.87-.5,1.75-1,2.63-1.42s1.73-1,2.61-1.43c6.94-3.77,13.88-7.31,20.81-10.9.89-.42,1.74-.89,2.6-1.35l2.61-1.34c1.75-.87,3.51-1.73,5.23-2.65s3.51-1.76,5.29-2.61,3.52-1.77,5.31-2.62c3.63-1.64,7.15-3.48,10.92-5.06a113.44,113.44,0,0,1,11.6-4.61,73.66,73.66,0,0,1-7.53,10.16,89.72,89.72,0,0,1-9,8.71c-1.59,1.33-3.18,2.69-4.84,3.94s-3.38,2.41-5.1,3.57c-.86.58-1.72,1.17-2.61,1.71l-2.68,1.59c-1.81,1-3.59,2.09-5.45,3s-3.74,1.82-5.63,2.69-3.84,1.6-5.78,2.36-3.92,1.38-5.9,2c-1,.3-2,.62-3,.89l-3,.76q-3,.75-6.14,1.25c-2,.38-4.15.59-6.23.8s-4.2.29-6.33.25A38.19,38.19,0,0,1,1169.18,452.65Z"/><path class="cls-11" d="M1152.46,532.33c10.12-4.2,19.85-8,29.54-12s19.29-7.72,28.83-11.74c1.21-.46,2.39-1,3.58-1.5l3.57-1.52c2.39-1,4.8-1.95,7.16-3s4.78-2,7.19-3c1.21-.48,2.38-1,3.58-1.55l3.61-1.54c4.88-1.92,9.62-4.15,14.59-6.07s9.82-4.12,15.14-5.74c-1.77,2.1-3.65,4.07-5.57,6s-3.86,3.87-6,5.59a135.69,135.69,0,0,1-12.92,9.87c-2.26,1.5-4.5,3-6.82,4.44s-4.71,2.7-7.09,4c-1.19.65-2.37,1.32-3.59,1.91l-3.67,1.75c-2.47,1.13-4.9,2.34-7.43,3.33s-5,2-7.59,2.94-5.15,1.72-7.74,2.54-5.23,1.47-7.86,2.15c-1.32.32-2.63.67-4,.94l-4,.78c-2.67.53-5.36.93-8.06,1.26s-5.42.56-8.13.76-5.45.22-8.2.12A56.77,56.77,0,0,1,1152.46,532.33Z"/><path class="cls-11" d="M1147.8,612c3.5-1.86,6.88-3.45,10.24-5s6.7-3,10-4.39c6.62-2.83,13.24-5.34,19.86-7.9s13.31-4.9,20.13-7.26c3.47-1.06,6.87-2.29,10.47-3.27a97.37,97.37,0,0,1,11.13-2.72A68.06,68.06,0,0,1,1213,597.32a92.37,92.37,0,0,1-20.14,10.51c-1.78.65-3.57,1.28-5.37,1.87s-3.65,1-5.49,1.53a84.8,84.8,0,0,1-11.22,2,75.46,75.46,0,0,1-11.46.49c-1.93-.1-3.84-.22-5.77-.51A34.37,34.37,0,0,1,1147.8,612Z"/><path class="cls-11" d="M1382.45,517.64a104.07,104.07,0,0,1,13.83-5.61c4.67-1.56,9.39-2.87,14.15-4a194.85,194.85,0,0,1,28.92-4.64,153.73,153.73,0,0,1,29.56.15,84.7,84.7,0,0,1,14.85,2.9,43.34,43.34,0,0,1,7.2,2.86,15.83,15.83,0,0,1,6,4.89,21.73,21.73,0,0,0-7-1.13c-2.35,0-4.69.05-7,.21-4.69.31-9.37.78-14.07,1.28-9.39,1-18.83,2-28.32,2.79s-19,1.4-28.7,1.57A201.09,201.09,0,0,1,1382.45,517.64Z"/><path class="cls-11" d="M1352.49,601.06a105.44,105.44,0,0,1,13.83-5.61c4.67-1.56,9.39-2.87,14.15-4a194.83,194.83,0,0,1,28.92-4.63A152.13,152.13,0,0,1,1439,587a83.79,83.79,0,0,1,14.85,2.9,44.18,44.18,0,0,1,7.2,2.85,15.77,15.77,0,0,1,6,4.9,21.46,21.46,0,0,0-7-1.13c-2.35,0-4.69,0-7,.2-4.69.32-9.37.78-14.07,1.28-9.39,1-18.83,2-28.32,2.8s-19,1.4-28.7,1.56A201.09,201.09,0,0,1,1352.49,601.06Z"/><path class="cls-11" d="M1322.76,694.71a68.67,68.67,0,0,1,16.36-7.66,112.73,112.73,0,0,1,16.69-4.07,126.22,126.22,0,0,1,16.94-1.68c2.85-.09,5.73,0,8.62,0l4.39.17c1.48,0,3,.12,4.59,0a15.24,15.24,0,0,1-3.26,3.62c-.61.53-1.25,1-1.89,1.47s-1.29.87-2,1.31a54.73,54.73,0,0,1-8.15,4.13,78.45,78.45,0,0,1-17,4.72,87,87,0,0,1-17.46,1.13,75,75,0,0,1-8.88-.88A47.1,47.1,0,0,1,1322.76,694.71Z"/><path class="cls-11" d="M661.18,770.49A100.78,100.78,0,0,1,664,756.74c1.17-4.45,2.56-8.76,4.06-13a207.84,207.84,0,0,1,10.56-24.42,249.06,249.06,0,0,1,28.6-43.91,234.71,234.71,0,0,1,17.7-19.56,193,193,0,0,1,20.27-17.51A139.94,139.94,0,0,1,768.73,624c2.17-1,4.23-2,6.52-2.79a62.79,62.79,0,0,1,6.83-2.26c1.18-.3,2.32-.64,3.49-.9s2.43-.42,3.62-.6a32,32,0,0,1,7.25-.22c-1.52,2-3,3.55-4.26,5.49-.66.91-1.31,1.75-1.92,2.66s-1.23,1.83-1.82,2.73c-2.38,3.61-4.65,7.23-6.9,10.81-4.51,7.17-9,14.29-13.6,21.25-9.23,14-19.06,27.47-29.67,40.5a389.55,389.55,0,0,1-34.48,37.43C697.53,744,690.94,749.7,684,755.17c-3.5,2.73-7.1,5.4-10.88,8A125.84,125.84,0,0,1,661.18,770.49Z"/><path class="cls-11" d="M797,775.09a107.17,107.17,0,0,1,2.44-14.21c1-4.62,2.3-9.09,3.68-13.51A223.08,223.08,0,0,1,813,721.8a252.57,252.57,0,0,1,12.48-24q6.84-11.64,14.79-22.59a249.48,249.48,0,0,1,17.07-21.1A207,207,0,0,1,877,634.85a151.83,151.83,0,0,1,23-16.43,90,90,0,0,1,13.21-6.27c1.18-.41,2.32-.86,3.5-1.22s2.44-.66,3.63-1a33.14,33.14,0,0,1,7.4-.9c-1.44,2.13-2.82,3.85-4,5.91-.61,1-1.24,1.86-1.79,2.88s-1.14,2-1.69,2.93l-.83,1.43c-.26.51-.54,1-.81,1.48-.53,1-1.08,1.95-1.62,2.9l-3.17,5.79c-4.22,7.7-8.41,15.34-12.81,22.81a518.06,518.06,0,0,1-28.45,43.55A407.9,407.9,0,0,1,839,739.31q-9.18,9.68-19.48,18.74c-3.45,3-7,6-10.74,8.81A132,132,0,0,1,797,775.09Z"/><path class="cls-11" d="M938.12,779.87a82.7,82.7,0,0,1,.4-12.67c.36-4.12,1-8.12,1.7-12.07a167.42,167.42,0,0,1,6-22.93,195.3,195.3,0,0,1,20.17-41.92,182.93,182.93,0,0,1,13.8-19A150.32,150.32,0,0,1,996.89,654a106.46,106.46,0,0,1,20.43-14.36,60,60,0,0,1,12.18-4.95,36.17,36.17,0,0,1,6.64-1.24,18.68,18.68,0,0,1,6.69.56,31.19,31.19,0,0,0-3.82,4.77c-.54.83-1,1.59-1.52,2.45s-1,1.62-1.39,2.45c-1.77,3.3-3.38,6.62-5,9.95-3.16,6.63-6.22,13.29-9.48,19.82a398.39,398.39,0,0,1-21.5,38.29,304.56,304.56,0,0,1-26.65,36,222.11,222.11,0,0,1-16.12,16.76c-2.9,2.69-5.89,5.35-9.09,7.91A103.55,103.55,0,0,1,938.12,779.87Z"/><path class="cls-11" d="M1074.35,797.16a55.91,55.91,0,0,1,.25-9.68,83.11,83.11,0,0,1,1.36-8.92,97.35,97.35,0,0,1,5-16.29,109,109,0,0,1,16.51-27.92,103,103,0,0,1,24.36-22.11,80.08,80.08,0,0,1,15.84-8,54.08,54.08,0,0,1,9.25-2.51,31.87,31.87,0,0,1,5-.52,12.74,12.74,0,0,1,5.18.8,20.34,20.34,0,0,0-1.91,4.3c-.5,1.39-.91,2.77-1.36,4.13-.86,2.72-1.69,5.4-2.59,8a140.32,140.32,0,0,1-6.1,14.88,131,131,0,0,1-16.65,26.17,125.2,125.2,0,0,1-22.68,21.84,108.75,108.75,0,0,1-14.2,8.94q-3.85,2-8.11,3.77A62.89,62.89,0,0,1,1074.35,797.16Z"/><circle class="cls-12" cx="338.56" cy="1134.38" r="21.29"/><circle class="cls-12" cx="1444.32" cy="1160.71" r="22.71"/><path class="cls-11" d="M1695.59,1001.2s-116.16-8.31-153.85-2.6c0,0,128.89,27,142.64,32.22C1684.38,1030.82,1697.63,1022,1695.59,1001.2Z"/><path class="cls-11" d="M1646.94,1257.24s-45.7,7-48.6,13.5c0,0,27.57,7.56,37.72,7.56Z"/><path class="cls-11" d="M1635.81,1291.9H1549.2s43.47,26.48,77.59,38.62Z"/><path class="cls-11" d="M126,1094.13c6.27-.68,13,0,19.3.07q9.78.12,19.56.44c12.84.45,25.68,1.24,38.45,2.65a110.38,110.38,0,0,1,17.36,3,20.75,20.75,0,0,1,6,2.47c4.64,3.07,6.63,8.79,8.32,14.1q-29.13,1.53-58.2,4c-11.68,1-23.36,2.12-34.94,3.91-3.79.58-7.63,1.26-11,3q-.5-8.51-1.74-17c-.42-2.81-.89-5.61-1.44-8.4C127,1099.89,125.72,1096.6,126,1094.13Z"/><path class="cls-11" d="M141.55,1184.4c1.48.44,60.84,3.07,67.77,9.65s-5.44,10.1-5.44,10.1l-56.4,13.6Z"/><path class="cls-11" d="M150.76,1230.47s33.23-4,37.74,0c0,0-14.25,12.32-32.67,18Z"/><path class="cls-11" d="M634.31,1079.35q-2.35,4.83-6.83,31.05t-4.47,44q8.57-1.56,17.63-2.7l26.08-3.41a138.65,138.65,0,0,0,17.38-4.41q11.29-3.4,15.4-3.41,14.65,0,14.65,13.65,0,2.7-4.16,6.82a23.16,23.16,0,0,1-11,5.82q-6.88,1.71-33.21,5-32.29,4.26-38.31,6.46c-4,1.48-6.39,2.94-7.14,4.41s-1.53,8.34-2.36,20.61-1.24,22.24-1.24,29.92l.5,17.62q0,14.51-9.19,14.5-5.72,0-10.56-5t-4.84-13.36q0-33,14.16-139,3.35-24.72,3.35-26.57a35.7,35.7,0,0,0-1.49-8.25c-1.32-4.64-2-7.86-2-9.66q0-3.84,3.73-8.32t7.08-4.47l16.39,2.13q7.56,0,28.18-2.84,35-4.83,48-4.84,11.43,0,16.39,4t5,7.82a17.88,17.88,0,0,1-4,11.73q-4,4.89-8.62,4.9a20.69,20.69,0,0,1-4.6-.57q-13.53-2.57-20.61-2.56-13.29,0-34.46,2.77T634.31,1079.35Z"/><path class="cls-11" d="M882.15,1069.26a64.22,64.22,0,0,1-6.77-.15,45.1,45.1,0,0,0-13.1,1.42,65.52,65.52,0,0,1-11.92,2.28,65.63,65.63,0,0,0-7.82,1.14q-5.34,1.14-21.11,1.27-23.71.43-29.86,3.7t-6.89,13.5a137.28,137.28,0,0,1-2.61,17.2q-6.09,28-6.08,37.24l1.86.14q5.83.42,23.59-1.85T828,1140.6q18.13-5,27.69-5,15.52,0,15.52,9.52,0,11.65-10.37,14.28t-43.27,6.76q-40.23,5.11-42.9,9.16T769,1201.43q-3,22-3,28.14v1.57c.42,4.74,3.06,7.44,8,8.1l2.23.14a69.12,69.12,0,0,0,16.27-1.28l23.84-4q13.29-2.13,26.94-5,17-4.12,21.61-4.12c2.32,0,4.9,1.11,7.76,3.34s4.28,5.75,4.28,10.58q0,5.27-2.23,7.25-12.68,6.4-32.66,7.11-17.25.7-53.89,6.68-18.49,3.12-24.33,3.13-14.54,0-18.19-2.63c-2.45-1.76-3.91-6-4.41-12.87l-.5-4.83v-.57q0-2.27,2.24-9.24,3.1-10.08,7.26-38.37t5.4-44.77q.63-5.68,2-13.79,5.46-34,5.46-53.72c0-.66-.83-2.42-2.48-5.26a8,8,0,0,1-.87-1.42q-.87-3.27-1.61-5.4a11.65,11.65,0,0,1-.87-4.69v-1.42c0-2.08,1.11-3.93,3.35-5.54a11.14,11.14,0,0,1,6.46-2.42h.37a95.39,95.39,0,0,1,11.92.85h.49q2.86,0,27.57-2.7t59-9.38a36.87,36.87,0,0,1,4.34-.71l1.87-.14q9.67-.7,13.34,2.2t4.54,11.3a11.62,11.62,0,0,1-3.23,7.68Q884,1069,882.15,1069.26Z"/><path class="cls-11" d="M1034.38,1094q0-18.91-8.57-23.1t-21.36-4.19q-26.33,0-47.74,11.86t-21.42,28.5q0,11.94,9.5,20.82t41.41,19.54q30.91,10.24,44,21.11t13.1,26.22q0,15.49-18.26,33.47a120.41,120.41,0,0,1-44,27.36q-25.77,9.39-43.77,9.38-15,0-22.79-4t-7.76-10.16a31.21,31.21,0,0,1,2.3-10.45q2.29-6.18,4.66-6.18a14.34,14.34,0,0,1,5.09,1,66.48,66.48,0,0,0,26.32,5.68q23.46,0,49.79-15.7t26.32-29.35q0-5.84-8-11.16t-40.55-17.13q-40.35-14.62-49.6-28.49t-9.25-29.21q0-29.57,29.68-47.68t62.08-18.12q21.48,0,33,8.31t11.55,18.41q0,4.83-2.61,14.07T1034.38,1094Z"/><path class="cls-11" d="M1196.78,1094q0-18.91-8.56-23.1t-21.36-4.19q-26.33,0-47.74,11.86t-21.42,28.5q0,11.94,9.5,20.82t41.41,19.54q30.92,10.24,44,21.11t13.09,26.22q0,15.49-18.25,33.47a120.49,120.49,0,0,1-44,27.36q-25.77,9.39-43.77,9.38-15,0-22.79-4t-7.76-10.16a31.21,31.21,0,0,1,2.3-10.45q2.3-6.18,4.66-6.18a14.34,14.34,0,0,1,5.09,1,66.48,66.48,0,0,0,26.32,5.68q23.46,0,49.79-15.7t26.32-29.35q0-5.84-8-11.16t-40.54-17.13q-40.35-14.62-49.6-28.49t-9.25-29.21q0-29.57,29.68-47.68T1168,1044q21.48,0,33,8.31t11.54,18.41q0,4.83-2.6,14.07T1196.78,1094Z"/><path class="cls-11" d="M497,1442.35h17.52c12.09,0,20.56,3.87,20.56,14.44,0,5.69-3.27,11-10.26,12.82v.35c8.57,1.4,13.44,6,13.44,14,0,11.69-9.2,17.28-22.31,17.28H497Zm16.42,24.51c9.14,0,12.84-3.11,12.84-9.13,0-5.86-4.21-8-12.54-8h-7.75v17.17Zm1.45,27.09c9.34,0,14.57-3.15,14.57-10.47,0-6.73-5-9.48-14.57-9.48h-8.9v20Z"/><path class="cls-11" d="M549.39,1489.68c0-9.86,9-14.71,31.15-16.38-.32-5.43-3.23-9.8-11-9.8-5.32,0-10.56,2.43-14.87,5l-3.42-6c4.94-3,12.25-6.23,19.88-6.23,12.12,0,18.43,7,18.43,18.57v26.48H582.1l-.71-5.7h-.29c-4.7,3.67-10.81,6.78-16.83,6.78C555.86,1502.37,549.39,1497.43,549.39,1489.68Zm31.15-.34V1479c-17.27,1.24-22.39,4.71-22.39,10,0,4.41,4,6.24,8.67,6.24S576,1493,580.54,1489.34Z"/><path class="cls-11" d="M605.39,1437.48h9V1479h.36l21.65-21.65h10.08l-32.09,32.26v11.71h-9Zm17.28,41.36,5.31-5.73,20.58,28.18H638.7Z"/><path class="cls-11" d="M656.45,1479.23c0-14.32,10.78-23,22.55-23,12.9,0,20.25,8.47,20.25,20.75a32.49,32.49,0,0,1-.41,4.87H662.66v-6.57h30.59l-1.94,2.19c0-9.53-4.61-14.3-12.06-14.3-7.7,0-14,5.68-14,16,0,10.8,6.77,16.12,16.22,16.12a23.88,23.88,0,0,0,12.85-3.87l3.14,5.67a31.08,31.08,0,0,1-17.12,5.22C667,1502.37,656.45,1493.88,656.45,1479.23Z"/><path class="cls-11" d="M717,1457.32h7.42l.8,10.19h.22c4.54-7.16,11.31-11.27,19.16-11.27a18.42,18.42,0,0,1,8.62,1.8l-2,7.61a22.41,22.41,0,0,0-8-1.4c-6.3,0-12.38,3.21-17.25,12.09v25h-9Z"/><path class="cls-11" d="M764.66,1518.85l1.75-7a13.45,13.45,0,0,0,3.82.61c5.87,0,9.32-3.48,11.3-8.38l1.16-3-20.07-43.74h9l9.82,22.84c1.67,3.95,3.44,8.53,5.14,12.87h.36c1.45-4.22,3.11-8.81,4.53-12.87l8.7-22.84h8.57l-18.89,46.76c-3.53,9.3-8.84,15.67-19.16,15.67A20,20,0,0,1,764.66,1518.85Z"/><path class="cls-11" d="M870,1485.89c0-17.3,25.12-20.07,25.12-32.44,0-3.25-1.33-6-5-6s-5.86,3.37-5.86,8c0,10.62,11.82,24.77,22.87,32.83a36,36,0,0,0,11.64,6.67l-2.35,7.37c-4.61-1.33-9.49-4-14.68-8.12-13-10-25.12-26.84-25.12-38.6,0-8,5.32-14.38,13.36-14.38,7.75,0,12.19,4.89,12.19,12.11,0,14.65-23.62,19.2-23.62,32,0,6,4.57,10,10.46,10,4.29,0,8.37-2.74,11.78-6.67,4.3-5.06,7.37-11.62,9.25-19.58h8.25A65.74,65.74,0,0,1,907,1492.88c-4.85,5.64-10.92,9.49-19.11,9.49C877,1502.37,870,1495.29,870,1485.89Z"/><path class="cls-11" d="M983.17,1442.35h18.59c13,0,22.15,4.46,22.15,17.76,0,12.84-9.33,18.69-22.15,18.69H992.2v22.49h-9Zm17.72,29.19c9.49,0,14.05-3.65,14.05-11.43s-4.7-10.5-14.05-10.5H992.2v21.93Z"/><path class="cls-11" d="M1035.39,1489.68c0-9.86,8.94-14.71,31.14-16.38-.32-5.43-3.23-9.8-11-9.8-5.32,0-10.56,2.43-14.86,5l-3.43-6c4.94-3,12.25-6.23,19.89-6.23,12.12,0,18.42,7,18.42,18.57v26.48h-7.4l-.72-5.7h-.28c-4.71,3.67-10.82,6.78-16.84,6.78C1041.85,1502.37,1035.39,1497.43,1035.39,1489.68Zm31.14-.34V1479c-17.27,1.24-22.39,4.71-22.39,10,0,4.41,4,6.24,8.67,6.24S1062,1493,1066.53,1489.34Z"/><path class="cls-11" d="M1088.59,1495.53l4-5.81a31.9,31.9,0,0,0,18.74,5.77c6.74,0,10-2.69,10-6,0-3.11-1.82-5.08-12.9-7.36-11.61-2.41-17.06-6.43-17.06-13.08,0-7.36,6.61-12.82,18.78-12.82a33.73,33.73,0,0,1,18.08,5.71l-4.21,5.59a26.55,26.55,0,0,0-14.65-4.5c-6.54,0-9.07,2.58-9.07,5.59,0,3.45,3.51,4.8,12.14,6.64,14.3,3.13,17.9,6.81,17.9,13.7,0,7.36-7.13,13.4-20.11,13.4A39.23,39.23,0,0,1,1088.59,1495.53Z"/><path class="cls-11" d="M1154.42,1483.89v-19.42h-12.11v-6.69l12.47-.46,1.17-13.94h7.44v13.94h20.74v7.15h-20.74v19.45c0,7.56,2.67,11.22,10.63,11.22a28.16,28.16,0,0,0,10-1.88l1.82,6.55a40.65,40.65,0,0,1-13.91,2.56C1158.8,1502.37,1154.42,1494.93,1154.42,1483.89Z"/><path class="cls-11" d="M1203,1457.32h7.42l.81,10.19h.21c4.54-7.16,11.31-11.27,19.16-11.27a18.37,18.37,0,0,1,8.62,1.8l-2,7.61a22.33,22.33,0,0,0-8-1.4c-6.3,0-12.38,3.21-17.24,12.09v25h-9Z"/><path class="cls-11" d="M1250.65,1518.85l1.75-7a13.45,13.45,0,0,0,3.82.61c5.87,0,9.33-3.48,11.3-8.38l1.16-3-20.07-43.74h9l9.82,22.84c1.67,3.95,3.45,8.53,5.15,12.87h.36c1.44-4.22,3.1-8.81,4.52-12.87l8.7-22.84h8.58l-18.9,46.76c-3.53,9.3-8.84,15.67-19.16,15.67A20.09,20.09,0,0,1,1250.65,1518.85Z"/></g></g></svg>