<svg xmlns="http://www.w3.org/2000/svg" viewBox="0 0 2293.65 1518.85"><defs><style>.cls-1,.cls-13,.cls-2,.cls-5,.cls-6,.cls-7{fill:none;}.cls-1,.cls-2{stroke:#bf996b;}.cls-1,.cls-5{stroke-linecap:round;stroke-linejoin:round;}.cls-1,.cls-2,.cls-5,.cls-6,.cls-7{stroke-width:18px;}.cls-13,.cls-14,.cls-15,.cls-16,.cls-17,.cls-18,.cls-2,.cls-3,.cls-4,.cls-6,.cls-7{stroke-miterlimit:10;}.cls-3{fill:#ad5e27;}.cls-3,.cls-4,.cls-7{stroke:#f4a460;}.cls-3,.cls-4{stroke-width:26px;}.cls-4{fill:#b27038;}.cls-5{stroke:#c0996b;}.cls-6{stroke:#987654;}.cls-8{fill:#f4a460;}.cls-9{fill:#dcdbdb;}.cls-10{fill:#e2e2e2;}.cls-11{fill:#e0e0e0;}.cls-12{fill:#e5e5e5;}.cls-13{stroke:#231f20;stroke-width:4px;}.cls-14,.cls-17{fill:#b46d29;}.cls-14,.cls-18{stroke:#4d2914;}.cls-14,.cls-15,.cls-16,.cls-17,.cls-18{stroke-width:6px;}.cls-15,.cls-18{fill:#fdcca7;}.cls-15{stroke:#4e2810;}.cls-16{fill:#faa764;}.cls-16,.cls-17{stroke:#7a462b;}</style></defs><title>PROMO KE 2</title><g id="Layer_2" data-name="Layer 2"><g id="Layer_1-2" data-name="Layer 1"><line class="cls-1" x1="1266.35" y1="1430.34" x2="1988.56" y2="1304.45"/><line class="cls-1" x1="338.74" y1="1509.85" x2="892.38" y2="1410.46"/><path class="cls-2" d="M953.08,1268.51c-23.56,12.17-45.57,30-55,54.69-6.13,16-6.49,33.8-3.37,50.65,3.65,19.73,12.4,39.11,27.67,52.12,29.7,25.28,73.81,20.23,112.27,13.74l461.41-77.8c24.71-4.17,49.66-8.4,72.83-17.94s44.74-25,57-46.85A85.35,85.35,0,0,0,1631,1226c-9.33-24.39-27.42-36.6-48.84-49.2-24.34-14.31-50.67-11.34-77.9-7.19l-417.92,63.56c-44.94,6.84-90.74,13.94-131.37,34.35Z"/><polyline class="cls-2" points="398.17 1317.91 398.17 1406.11 575.2 1378.78 880.81 1329.71"/><polyline class="cls-1" points="1636.41 1202.58 2058.96 1135.49 2058.96 593.01 1976.96 605.43"/><polygon class="cls-3" points="318.87 1317.91 318.87 794.26 1094.08 661.75 1972 517.64 1972 1055.98 872.12 1240.26 318.87 1329.71 318.87 1317.91"/><polyline class="cls-2" points="1697.65 556.36 1698.89 162.54 608.74 350.34 269.17 408.31 269.17 461.73"/><polygon class="cls-4" points="1620.83 575.28 1620.83 232.73 192.98 481.2 192.98 906.9 318.87 878.74 318.87 794.26 1620.83 575.28"/><path class="cls-5" d="M48.45,353.24C58.39,352,795.09,224,795.09,224"/><path class="cls-5" d="M642.34,162.54c16.1-1.87,748.91-136,748.91-136"/><circle class="cls-2" cx="2058.96" cy="416.6" r="62.94"/><circle class="cls-6" cx="2242.82" cy="957.42" r="41.83"/><circle class="cls-7" cx="83.65" cy="688.25" r="67.91"/><circle class="cls-7" cx="192.98" cy="1362.01" r="44.1"/><polygon class="cls-8" points="0 1007.95 175.17 986.83 23.6 1083.73 0 1007.95"/><polygon class="cls-8" points="41 1174.42 253.8 995.52 119.26 1212.93 41 1174.42"/><polygon class="cls-8" points="1877.58 0 1738.44 217.82 1953.78 37.27 1877.58 0"/><polygon class="cls-8" points="1967.86 134.17 1818.78 223.62 1996.84 204.57 1967.86 134.17"/><path class="cls-9" d="M1105.5,1299.1l5.38-.86,24.91,49.89-6.8,1.08-19.19-40.39-5.7,44.35-6.79,1.08Zm-3.51,35.41,23.62-3.76,1.12,7-23.63,3.76Z"/><path class="cls-9" d="M1146.72,1336.46a3.72,3.72,0,0,0,.85,2,1.69,1.69,0,0,0,1.55.52l3-.48,1.11,7-3.7.59a6.61,6.61,0,0,1-6-1.72c-1.58-1.52-2.63-3.86-3.13-7l-6.8-42.77,6.3-1Z"/><path class="cls-9" d="M1165,1333.55a3.71,3.71,0,0,0,.84,2,1.67,1.67,0,0,0,1.56.51l3-.47,1.12,7-3.71.59a6.62,6.62,0,0,1-6-1.72q-2.37-2.3-3.12-7l-6.81-42.77,6.3-1Z"/><path class="cls-9" d="M1187.83,1286l6.3-1,8.36,52.52-6.3,1Zm7.25,24.63,14.36-2.29a6,6,0,0,0,3.4-1.69,7.28,7.28,0,0,0,1.89-3.56,12.47,12.47,0,0,0,.1-4.86,12.78,12.78,0,0,0-1.61-4.64,7.41,7.41,0,0,0-2.9-2.81,5.91,5.91,0,0,0-3.77-.57l-14.36,2.28-1.11-7,14.14-2.25a12.66,12.66,0,0,1,7.39.88,13.32,13.32,0,0,1,5.64,4.89,20.31,20.31,0,0,1,3,8.19,20.05,20.05,0,0,1-.34,8.7,13.22,13.22,0,0,1-3.85,6.37,12.77,12.77,0,0,1-6.75,3.11l-14.15,2.26Z"/><path class="cls-9" d="M1227.44,1295.1l6.3-1,6,37.5-6.3,1Zm16.66,4.61a6.61,6.61,0,0,0-3-.15,5.87,5.87,0,0,0-4.34,2.67,8.1,8.1,0,0,0-.8,5.63l-1.8-7.12a13.5,13.5,0,0,1,3-5.83,8.27,8.27,0,0,1,4.89-2.69,10.33,10.33,0,0,1,4.09.11,9,9,0,0,1,3.45,1.69l-3.07,7.16A5.39,5.39,0,0,0,1244.1,1299.71Z"/><path class="cls-9" d="M1264.72,1326.2a12.15,12.15,0,0,1-5.41-4.86,22.82,22.82,0,0,1-3-8.58l-1-6.11a22.4,22.4,0,0,1,.17-9,12.09,12.09,0,0,1,3.65-6.25,14.54,14.54,0,0,1,14.26-2.27,12.09,12.09,0,0,1,5.41,4.81,22.37,22.37,0,0,1,3,8.47l1,6.22a22.58,22.58,0,0,1-.17,9,12.26,12.26,0,0,1-3.64,6.26,14.43,14.43,0,0,1-14.27,2.27Zm11-9.46a11.26,11.26,0,0,0,.72-7.08l-1-6.21c-.47-2.92-1.43-5.07-2.89-6.47a6.75,6.75,0,0,0-10.22,1.63,11.17,11.17,0,0,0-.73,7l1,6.21a11.31,11.31,0,0,0,2.89,6.51,6.7,6.7,0,0,0,10.22-1.63Z"/><path class="cls-9" d="M1298.22,1321.11a11.16,11.16,0,0,1-4.62-4.62,23.77,23.77,0,0,1-2.6-8l-1.32-8.27a24.33,24.33,0,0,1,0-8.47,11.13,11.13,0,0,1,2.86-5.81,9.65,9.65,0,0,1,5.54-2.71,8.76,8.76,0,0,1,5.48.9,12.45,12.45,0,0,1,4.59,4.27l.57,7.76a10.44,10.44,0,0,0-1.39-4,5.72,5.72,0,0,0-2.56-2.24,6.3,6.3,0,0,0-3.55-.34,5.79,5.79,0,0,0-4.48,3,10.57,10.57,0,0,0-.69,6.67l1.3,8.16a10.29,10.29,0,0,0,2.71,6,5.83,5.83,0,0,0,5.19,1.45,6.17,6.17,0,0,0,3.27-1.46,5.83,5.83,0,0,0,1.72-3,10.6,10.6,0,0,0,.08-4.27l1.69,7.84a10.68,10.68,0,0,1-2.39,5.16,8,8,0,0,1-5.06,2.73A10.08,10.08,0,0,1,1298.22,1321.11Zm5.89-53.62,6.3-1,8.36,52.52-6.3,1Z"/><path class="cls-9" d="M1332.3,1301.78a9.68,9.68,0,0,0,2.68,5.81,5.92,5.92,0,0,0,5.18,1.38,6.13,6.13,0,0,0,4.48-2.67,8,8,0,0,0,.83-5.73l1.68,7.77a10.79,10.79,0,0,1-2.47,5.17,8.24,8.24,0,0,1-5.17,2.75,9.63,9.63,0,0,1-8.83-2.69q-3.53-3.52-4.68-10.79l-3.63-22.79,6.3-1Zm9.41-24.87,6.26-1,6,37.5-6.27,1Z"/><path class="cls-9" d="M1372.16,1311.07l-3.41-1.43a12.3,12.3,0,0,1-5.63-4.8,21.72,21.72,0,0,1-3-8.56l-1-6.17a21.25,21.25,0,0,1,.25-9,12.31,12.31,0,0,1,3.86-6.26,14.21,14.21,0,0,1,7.19-3.09,15.62,15.62,0,0,1,4.82,0,13.51,13.51,0,0,1,4.3,1.41,12.18,12.18,0,0,1,3.45,2.79l-3.78,5.49a9.91,9.91,0,0,0-3.63-2.28,8.11,8.11,0,0,0-4-.37,7,7,0,0,0-5.27,3.29q-1.63,2.7-.94,7l1,6.18c.47,3,1.5,5.15,3.09,6.55a7,7,0,0,0,6,1.52,7.72,7.72,0,0,0,3.66-1.66,9.88,9.88,0,0,0,2.68-3.47l5.36,4.41a12.58,12.58,0,0,1-2.46,3.67,13,13,0,0,1-3.65,2.64,15.84,15.84,0,0,1-4.57,1.43Z"/><path class="cls-9" d="M1386.58,1269.77l14.45-2.3,1.06,6.65-14.45,2.3Zm10.71,34.35c-1.48-1.48-2.47-3.86-3-7.13l-6.15-38.65,6.3-1,6.16,38.73a3.94,3.94,0,0,0,.8,2,1.53,1.53,0,0,0,1.48.53l3-.48,1.12,7-3.65.58Q1399.5,1306.35,1397.29,1304.12Z"/><path class="cls-9" d="M1431.71,1293.11l6.61-1.06,1.23,7.73-6.61,1.06Zm-7-44.82,6.3-1,6.22,39-6.3,1Z"/><path class="cls-10" d="M277.2,608.11l-.71-59.65q-.74-34.07,46.39-43.35L422,488.92l.22,23.25-87.76,14.39q-11.24,1.58-15,9.41l.07,5,103.07-17,.17,22.91L320.24,563.61l.22,37.4Z"/><path class="cls-10" d="M573.75,559.26,472.42,575.88q-43.85,5.49-44.45-40.32t46.32-55.09l98.55-16.16.21,23.11-87.35,14.4q-11.13,1.55-12.66,5.75l-2.19,8.53,102.47-16.74-.05,22.88L471.59,538.65l1,5.22q1.5,6.55,8.58,5.94l92.37-15.22Z"/><path class="cls-10" d="M712.24,466.16l-79.65,13.06a119.52,119.52,0,0,0-12.4,2.55,12.14,12.14,0,0,0-7,5.33,6.1,6.1,0,0,0,6.38,4.16,127.37,127.37,0,0,0,14.07-1.73l39-6.39q23.56-3,34.22,3.37t10.8,20.83q-1.18,14.7-12,23.38t-38.21,13.45l-86.94,14.26-.2-24.4,82.62-13.56q10.7-1.76,16.21-3.17a8.59,8.59,0,0,0,6.78-6.59c-.9-2.48-3-3.71-6.46-3.67a128.15,128.15,0,0,0-16.82,2L625,515.19q-24.87,4.08-36.48-2.05T576.78,492.8q1.62-15.18,12.78-23.74t37.53-13.72L712,441.42Z"/><path class="cls-10" d="M851,443.4l-79.64,13.06A119.81,119.81,0,0,0,758.92,459a12.19,12.19,0,0,0-7,5.33,6.1,6.1,0,0,0,6.39,4.16,125.1,125.1,0,0,0,14.06-1.73l39-6.39q23.58-3,34.22,3.38t10.8,20.83q-1.17,14.69-12,23.37t-38.21,13.45l-86.94,14.27L719,511.27l82.63-13.55q10.68-1.75,16.2-3.17t6.78-6.59c-.9-2.49-3.05-3.71-6.46-3.68a128.33,128.33,0,0,0-16.82,2l-37.61,6.17q-24.87,4.08-36.48-2.05T715.51,470q1.63-15.17,12.78-23.74t37.54-13.71l84.88-13.93Z"/><path class="cls-11" d="M725.82,579.79l88.57-15.32q37.22-4.15,41.51,17.93,1.77,14-8.11,23.33,15.54,3.82,15.16,21.8-.91,25.68-46.13,33.16l-87.18,15.15Zm41.84,66.09,44.16-7.57q10.47-2.09,10.84-7.79T810.92,626l-43.75,7.22Zm-1.7-36,44.16-7.57q10.46-2.08,10.85-7.76t-11.26-5l-44.24,7.65Z"/><path class="cls-11" d="M863.22,652.46l-2.39-65.52q1-29.91,42.22-38.36l43.33-7.43q38-4.62,40.54,23.78l2.36,65.86-34,5.88-1-29.29L897.37,617l1.13,29.34Zm33.24-69.6.26,10.26,56.76-9.82-.17-8.06q.87-11.36-10.69-10.67l-34.36,6Q894.6,573.22,896.46,582.86Z"/><path class="cls-11" d="M991.6,533.2l41.86-7.25,1.71,46.33q.15-8.94,7.65-16.19l32.78-37.42,50.45-8.73-40.52,50.93q-4.89,6,1,10.35l43.62,35.07-51,8.82-35.63-27q-7.9-5.42-8.21-13.73l1.71,48-41.86,7.24Z"/><path class="cls-11" d="M1262.13,583.73,1172,599.32q-39,5-40.89-41.32T1171,502.86l87.65-15.16.85,23.37-77.68,13.51q-9.91,1.44-11.16,5.67l-1.72,8.59L1260,523.15l.61,23.14-90.44,15.36,1,5.29q1.53,6.66,7.84,6.12l82.15-14.28Z"/><path class="cls-11" d="M1264.6,486.46l88.66-15.34q41.06-2.06,43.74,25.36,2.87,19.9-16,35.07l23.27,27.86-42.68,7.39-22.49-26.62-33.91,5.87,1.14,30L1268,582.72Zm40.34,34,47.09-8.08q10.76-2,11.06-9.76t-11.34-7.07l-47.44,8.21Z"/><path class="cls-11" d="M1528,441l2.81,77.75q.78,17-25.1,24.12L1407,560.13l-1.34-25.71,77.06-13.26q11.52-2,11.2-10.38l-.19-.52L1443.34,519q-37.46,7.17-40.75-23.87l-1-32.13,34-5.94,1.36,26.32q.11,8.29,9.74,7.38l47-8.13-.95-35.46Z"/><path class="cls-12" d="M918.38,868.25l25-3.89q12-1.32,12.43,13T945,894.09l-25.75,4ZM928.51,889l14.34-2.22a4.07,4.07,0,0,0,3-2.51,10.82,10.82,0,0,0,1-5.43,10.11,10.11,0,0,0-1.65-5.83q-1.07-1.35-3.6-1L928,874.09Z"/><path class="cls-12" d="M956.76,862.16l10.72-1.68.95,29.93-11,1.72Z"/><path class="cls-12" d="M1003.31,862.7,983,865.87a25.19,25.19,0,0,0-3.16.66,3,3,0,0,0-1.75,1.6,1.73,1.73,0,0,0,1.66,1.38,26.09,26.09,0,0,0,3.6-.38l9.93-1.55q6-.68,8.8,1.46c1.85,1.41,2.83,3.64,2.93,6.67a10.17,10.17,0,0,1-2.9,7.21q-2.72,2.61-9.7,3.79l-22.18,3.47L970,882.5l21.08-3.3a38.8,38.8,0,0,0,4.14-.81,2.26,2.26,0,0,0,1.68-2,1.65,1.65,0,0,0-1.68-1.23,25.38,25.38,0,0,0-4.3.43l-9.59,1.5q-6.34,1-9.37-1.07t-3.16-6.54a10.39,10.39,0,0,1,3.1-7.31q2.79-2.56,9.52-3.88l21.66-3.39Z"/><path class="cls-12" d="M1004.76,854.45l12-1.87.45,14.41a7.06,7.06,0,0,1,2.21-5l9.42-11.34,14.48-2.26-11.66,15.47a2.07,2.07,0,0,0,.26,3.22l12.49,11.29-14.63,2.29-10.2-8.7a5.53,5.53,0,0,1-2.34-4.34l.45,14.93-12,1.88Z"/><path class="cls-12" d="M1073.88,874.26,1056.52,877q-11.58,1.85-12-13.41-.55-15.41,11.73-17.41l14.24-2.21q12.79-2.19,13.06,12.92Q1085.13,872.31,1073.88,874.26Zm-18.48-7.57a3.71,3.71,0,0,0,3.54,1.85l10.14-1.61a4.48,4.48,0,0,0,3.33-2.43c.71-.92,1-2.9.85-6s-.7-4.92-1.67-5.61a5.58,5.58,0,0,0-4-.9l-7.81,1.22a5.63,5.63,0,0,0-4.39,3.37c-.51.86-.74,2.62-.69,5.3S1055,866.19,1055.4,866.69Z"/><path class="cls-12" d="M1084.93,872.27l-.92-30.09,24.94-3.9q10.77-1.87,11.66,7.78l.63,20.51-9.78,1.53-.42-18.82q.21-3-3.06-2.25l-13.58,2.12.68,21.54Z"/><path class="cls-12" d="M1166.08,837.23l-20.32,3.18a23.49,23.49,0,0,0-3.16.66,3,3,0,0,0-1.76,1.59c.33.93.88,1.39,1.67,1.38a25.46,25.46,0,0,0,3.59-.37l9.94-1.56c4-.44,7,0,8.8,1.46s2.82,3.64,2.92,6.68a10.15,10.15,0,0,1-2.9,7.21c-1.8,1.74-5,3-9.69,3.78L1133,864.71l-.24-7.67,21.08-3.3c1.82-.29,3.2-.56,4.13-.81a2.26,2.26,0,0,0,1.69-2,1.64,1.64,0,0,0-1.68-1.23,26.08,26.08,0,0,0-4.3.42l-9.6,1.5q-6.35,1-9.36-1.07t-3.16-6.53a10.35,10.35,0,0,1,3.1-7.32q2.79-2.57,9.52-3.87l21.66-3.39Z"/><path class="cls-12" d="M1167.39,829.16l25.46-4q12.11-1.41,12.36,8.38t-11.06,12.11L1179,848l.28,9.33-11,1.74Zm11.54,10.94,13.6-2.17c2-.3,3-1.26,3.12-2.86s-1-2.38-3.28-2.3l-13.6,2.13Z"/><path class="cls-12" d="M1244,847.26l-25.85,4q-11.21,1.22-11.7-13.2t11.47-16.78l25.14-3.93.22,7.27-22.28,3.5c-1.9.24-3,.8-3.2,1.67l-.5,2.65,26.14-4.07.16,7.2-25.94,4,.28,1.65c.29,1.39,1,2,2.24,2l23.57-3.7Z"/><path class="cls-12" d="M1278.82,819.59l-20.32,3.18a25.19,25.19,0,0,0-3.16.66,3,3,0,0,0-1.76,1.59,1.74,1.74,0,0,0,1.67,1.39,26.09,26.09,0,0,0,3.6-.38l9.93-1.56q6-.66,8.8,1.46c1.85,1.42,2.83,3.64,2.92,6.68a10.11,10.11,0,0,1-2.9,7.21q-2.7,2.61-9.69,3.79l-22.18,3.47-.24-7.68,21.08-3.3a38,38,0,0,0,4.13-.81,2.26,2.26,0,0,0,1.69-2,1.66,1.66,0,0,0-1.68-1.23,26.08,26.08,0,0,0-4.3.42l-9.6,1.5q-6.35,1-9.36-1.07t-3.16-6.53a10.39,10.39,0,0,1,3.1-7.32q2.79-2.57,9.52-3.87l21.66-3.39Z"/><path class="cls-12" d="M1280.24,811.55l10.73-1.68,1,29.94-11,1.71Z"/><path class="cls-12" d="M1293.39,839.45l-.63-20.38q.32-9.3,12.13-11.55l12.43-1.92q10.89-1.11,11.61,7.74l.62,20.49-9.75,1.53-.27-9.11-16.32,2.48.3,9.13Zm9.58-21.34.07,3.19,16.29-2.54,0-2.51q.26-3.53-3.06-3.41l-9.85,1.56C1303.76,814.87,1302.62,816.1,1303,818.11Z"/><path class="cls-12" d="M1341.4,801.92l.55,18.58c.26,1.77,1.54,2.56,3.84,2.39l22.31-3.47.32,8.42-25.27,3.95q-12.06,1.4-12.26-9.36l-.55-18.78Z"/><path class="cls-12" d="M1069.59,989.12l2.66,16.69-83.83,13.33-2.2-14q31-45,36.59-55.38t4.72-15.59c-.42-2.66-1.45-4.54-3.07-5.62s-3.89-1.39-6.78-.93-4.94,1.53-6.13,3.19-1.43,4.68-.74,9l1.48,9.31-34.14,5.43-.57-3.56a51,51,0,0,1-.74-13.19q.57-5,5-10.37a34.49,34.49,0,0,1,12.38-9.1,74.42,74.42,0,0,1,19.53-5.52q22.71-3.62,35.51,1.76T1063.84,931q1.34,8.41-3.73,18.82t-32.29,45.92Z"/><path class="cls-12" d="M1154.66,892.35l2.49,15.66-47.25,7.51,2.64,16.62q7.8-8.1,21.76-10.33,15.73-2.5,24.71,1.87t11.51,20.45l2.22,14q1.66,10.39.88,15.51a19.71,19.71,0,0,1-5.22,10.07q-4.44,4.94-13.18,8.6a97.39,97.39,0,0,1-21.86,5.73,93.28,93.28,0,0,1-26.45.83q-11.75-1.5-17.5-7.29t-7.93-19.44l-.84-5.33,38.09-6,1,6.11q1.52,9.49,3.19,13.31t7.79,2.86a8.35,8.35,0,0,0,4.4-1.88,3.69,3.69,0,0,0,1.49-2.78q-.08-1.35-1.51-11.6l-3.08-19.4c-.59-3.67-1.58-6.08-3-7.21s-3.5-1.5-6.26-1.06a8.8,8.8,0,0,0-4.27,1.74,5.22,5.22,0,0,0-2,2.57c-.22.84-.11,2.69.35,5.55l-37.72,6-6.24-49.59Z"/><path class="cls-12" d="M1264.62,892l2.68,16.81q1,6.6-.36,10.2t-7.39,7.06q-6,3.47-16.44,5.13-12.08,1.92-18.76.59t-9.42-4.24q-2.73-2.91-3.71-9l-2.8-17.6q-1.15-7.24.61-11.09t8-7.07a53.05,53.05,0,0,1,16-4.78q10.76-1.71,17.83-.39t9.88,4.35Q1263.5,885,1264.62,892Zm-24.82-.45q-.61-3.87-1.37-4.68c-.51-.54-1.67-.66-3.49-.37s-2.75.77-3.15,1.49-.4,2.34,0,4.83l3.92,24.67c.45,2.82.93,4.48,1.47,5s1.74.59,3.62.29c1.63-.26,2.64-.75,3-1.47s.36-2.27,0-4.65Zm66.29-25.16-43.53,111.11L1248,979.78l43.73-111.15ZM1343,928l2.68,16.86q1,6.54-.37,10.16c-.93,2.42-3.4,4.79-7.38,7.1s-9.46,4-16.44,5.12q-12,1.9-18.71.56t-9.48-4.26c-1.82-1.93-3-4.93-3.69-9l-2.81-17.64q-1.14-7.2.61-11t8-7.11a52.65,52.65,0,0,1,16-4.8q10.85-1.72,17.92-.37t9.84,4.39C1340.93,920,1342.22,923.36,1343,928Zm-24.81-.4q-.62-3.87-1.38-4.71c-.51-.55-1.68-.69-3.5-.4s-2.73.76-3.1,1.48-.35,2.35,0,4.89l3.93,24.67c.44,2.78.92,4.41,1.45,4.91s1.71.6,3.53.31,2.72-.76,3.06-1.45.32-2.25-.06-4.67Z"/><polygon class="cls-8" points="1701.8 675.84 1642.54 768.61 1734.25 691.71 1701.8 675.84"/><polygon class="cls-8" points="1740.25 732.98 1676.75 771.08 1752.59 762.97 1740.25 732.98"/><polygon class="cls-8" points="583.43 1105.92 642.33 1098.71 591.37 1131.8 583.43 1105.92"/><polygon class="cls-8" points="597.22 1162.77 668.76 1101.68 623.53 1175.92 597.22 1162.77"/><text/><polyline class="cls-13" points="830.02 961.04 830.02 961.04 830.03 961.04"/><path class="cls-14" d="M898.16,812.32l2.61,8,6,18.41c1.19,3.65.59,7.42-1.49,9.37-26.81,25.16-199.83,186.55-213.65,174.63l-7.81-23.9a22.4,22.4,0,0,1-1-10c.2-1.39.44-3,.72-5"/><path class="cls-15" d="M730.13,803.54s-21.52-38.72,41.46-30c0,0,94.68.43,119.18,21a10.06,10.06,0,0,1,3.08,4.59l6.92,21.16a7.13,7.13,0,0,1-2,7.78C871,850.29,691.84,992.94,679,984l-6.27-19.17a15.11,15.11,0,0,1-.37-8.15C678,933,707.4,814.18,730.13,803.54Z"/><ellipse class="cls-16" cx="753.47" cy="901.77" rx="5.39" ry="2.86" transform="translate(-242.85 278.66) rotate(-18.1)"/><ellipse class="cls-16" cx="836.84" cy="830.23" rx="5.39" ry="2.86" transform="translate(-216.5 301.02) rotate(-18.1)"/><ellipse class="cls-16" cx="796.28" cy="829.26" rx="5.39" ry="2.86" transform="translate(-218.2 288.37) rotate(-18.1)"/><ellipse class="cls-16" cx="738.7" cy="839.22" rx="5.39" ry="2.86" transform="translate(-224.15 270.98) rotate(-18.1)"/><ellipse class="cls-16" cx="777.7" cy="864.87" rx="5.39" ry="2.86" transform="translate(-230.18 284.36) rotate(-18.1)"/><ellipse class="cls-16" cx="717.11" cy="887.68" rx="5.39" ry="2.86" transform="translate(-240.27 266.67) rotate(-18.1)"/><ellipse class="cls-16" cx="700.22" cy="935.45" rx="5.39" ry="2.86" transform="translate(-255.94 263.79) rotate(-18.1)"/><ellipse class="cls-17" cx="1579.41" cy="882.61" rx="6.13" ry="3.04" transform="translate(-172.74 431.49) rotate(-14.76)"/><path class="cls-14" d="M1627.14,918.24a11.91,11.91,0,0,1,1.76,4.51l4.18,25a11.51,11.51,0,0,1-6.17,12L1390.79,1084a6.79,6.79,0,0,1-9.89-4.62l-3.37-20.19a15.07,15.07,0,0,1,1.39-9.24"/><path class="cls-18" d="M1487.84,808.4c9.39-2.43,27.43-4.16,32.86,16L1617.17,880a12.21,12.21,0,0,1,6,8.52l4.18,25a11.53,11.53,0,0,1-6.16,12.06L1385.07,1049.8a6.77,6.77,0,0,1-9.88-4.62l-3.38-20.19a15.14,15.14,0,0,1,1.57-9.6l106.31-200.65A12.8,12.8,0,0,1,1487.84,808.4Z"/><ellipse class="cls-17" cx="1500.16" cy="864.15" rx="5.41" ry="2.85" transform="translate(-183.66 461.69) rotate(-16.5)"/><ellipse class="cls-17" cx="1483.74" cy="957.04" rx="5.84" ry="2.81" transform="translate(-186.61 384.91) rotate(-13.92)"/><ellipse class="cls-17" cx="1535.46" cy="887.61" rx="5.84" ry="2.81" transform="translate(-168.4 395.31) rotate(-13.92)"/><ellipse class="cls-17" cx="1472.53" cy="895.13" rx="5.84" ry="2.81" transform="translate(-172.06 380.4) rotate(-13.92)"/><ellipse class="cls-17" cx="1512.69" cy="921.79" rx="5.84" ry="2.81" transform="translate(-177.29 390.84) rotate(-13.92)"/><ellipse class="cls-17" cx="1445.55" cy="941.8" rx="5.84" ry="2.81" transform="translate(-184.07 375.28) rotate(-13.92)"/><ellipse class="cls-17" cx="1419.54" cy="992.25" rx="5.41" ry="2.85" transform="translate(-223.37 444.06) rotate(-16.5)"/></g></g></svg>