<svg xmlns="http://www.w3.org/2000/svg" viewBox="0 0 2034.06 1650.48"><defs><style>.cls-1{fill:#4e1820;}.cls-2{fill:#e48c25;}.cls-13,.cls-2,.cls-6,.cls-7{stroke:#671d20;}.cls-10,.cls-12,.cls-13,.cls-2,.cls-3,.cls-5,.cls-6,.cls-7,.cls-8,.cls-9{stroke-miterlimit:10;}.cls-13,.cls-2,.cls-3{stroke-width:25px;}.cls-12,.cls-13,.cls-3,.cls-5,.cls-6{fill:none;}.cls-3{stroke:#6a1b1f;}.cls-4{fill:#661f1e;}.cls-10,.cls-12,.cls-5{stroke:#681d22;}.cls-10,.cls-5{stroke-width:17px;}.cls-12,.cls-6{stroke-width:18px;}.cls-10,.cls-7,.cls-8,.cls-9{fill:#eaad6b;}.cls-7,.cls-8,.cls-9{stroke-width:10px;}.cls-8{stroke:#69222b;}.cls-9{stroke:#6a232e;}.cls-11{fill:#b56528;}.cls-14{fill:#671d20;}.cls-15{fill:#661f22;}.cls-16{fill:#681a20;}</style></defs><title>Asset 16</title><g id="Layer_2" data-name="Layer 2"><g id="Layer_1-2" data-name="Layer 1"><path class="cls-1" d="M421.31,1042.35s-58.3,7-47.81,20c0,0-39.65,71.62,369.68,47,0,0,742.84-31.7,817.48-66.92,0,0,110.78-17.61,106.12-61.06,0,0-11.66-22.3-36.15-9.39,0,0-172.6,64.54-387.17,69.26,0,0-475.8,58.72-556.26,43.45C687.2,1084.61,477.29,1098.7,421.31,1042.35Z"/><path class="cls-2" d="M402.57,1023.56a163.12,163.12,0,0,1-26.44-28.17c-37.24-50.86-39.74-120.73-21.71-181.12a308.49,308.49,0,0,1,85.21-137.06C479.75,640,530.7,612.89,561.92,566.73c30.58-45.22,97.12-62.11,149.35-53.19,9.28,1.59,18.86,4,28,1.51,7.77-2.08,14.18-7.42,20.5-12.4,37.93-29.9,83.4-52.07,131.59-55.17s99,14.95,128.72,53.06c77.25-49.67,190.17-32.93,249.68,37,75-30.08,163.55-16.65,232.4,25.73s119,111,149.13,186c15.8,39.33,26.61,81.57,23.48,123.84s-21.63,84.69-55.56,110.09c-34.13,25.55-78.73,31.2-121.12,35.79-82.25,8.9-164.57,17-246.9,25.1-209.69,20.57-419.95,40.84-630.61,37.24-44.82-.77-90.12-2.69-133.31-14.72C456.54,1058.14,426.75,1044,402.57,1023.56Z"/><path class="cls-3" d="M523.19,623.42s27.34-67.36,74.89-82c0,0,37.23,1,94.76,96.72,0,0,118.59,187.86,167.31,199,0,0-112.71-.59-157.33-48.14S560.86,625.45,523.19,623.42Z"/><path class="cls-3" d="M758.33,510.1s27.11-44.77,73.78-47.41c0,0,82.77,59.88,133,166.42,0,0,79.26,150.58,127.69,155.87,0,0-146.18-32.58-183.16-103.91S797.07,507.46,758.33,510.1Z"/><path class="cls-3" d="M1026.62,507.46s44.91-39.62,79.26-27.3c0,0,65.16,59,114.47,170,0,0,79.25,137.37,126.8,151.46,0,0-94.22,5.29-160.26-65.16,0,0-89.82-105.67-104.79-143.53Z"/><path class="cls-3" d="M1274.26,541.31s41.09-24.66,79.25-15.26c0,0,59.88,71.62,79.84,140.3,0,0,65.16,138.54,130.91,142.65,0,0-161.44-7-201.36-111.54S1274.26,541.31,1274.26,541.31Z"/><path class="cls-4" d="M729,850.17a3.21,3.21,0,0,1,1.38,0c.46.08.9.19,1.34.31.87.23,1.7.52,2.53.79,1.64.59,3.24,1.18,4.79,1.8l9.16,3.59c6,2.35,11.8,4.47,17.57,6.42a274.87,274.87,0,0,0,34.59,9.2c11.65,2.31,23.53,3.87,35.88,5.21l18.93,1.92c3.24.35,6.5.65,9.83,1.06,1.66.18,3.34.39,5,.62s3.4.45,5.14.8c-1.42,1-2.88,2-4.36,2.9s-3,1.74-4.51,2.53a99.86,99.86,0,0,1-9.38,4.25,108,108,0,0,1-19.82,5.59,112,112,0,0,1-41.61-.36,102.48,102.48,0,0,1-38.73-16.3,89.55,89.55,0,0,1-15.63-13.87,85.49,85.49,0,0,1-6.39-8.13c-1-1.39-1.91-2.84-2.82-4.27l-1.35-2.14c-.22-.35-.45-.7-.7-1A2.68,2.68,0,0,0,729,850.17Z"/><path class="cls-4" d="M973.79,809c2.77,1,5.37,1.73,7.93,2.46s5.06,1.34,7.52,1.91c5,1.13,9.72,2.08,14.46,2.92,9.46,1.65,18.75,2.9,28.24,4s19.14,2,29.17,3.19c2.51.3,5,.57,7.6,1s5.15.69,7.78,1.15,5.28.86,8,1.45a70.37,70.37,0,0,1,8.28,2,64.47,64.47,0,0,1-7.11,4.87c-2.44,1.41-4.94,2.64-7.47,3.85s-5.14,2.11-7.76,3-5.3,1.66-8,2.3a95.08,95.08,0,0,1-16.49,2.44,93.17,93.17,0,0,1-16.85-.44,88.48,88.48,0,0,1-16.69-3.55,76.05,76.05,0,0,1-15.79-7,63,63,0,0,1-13.67-10.74,49.42,49.42,0,0,1-5.42-6.88A27.6,27.6,0,0,1,973.79,809Z"/><path class="cls-4" d="M1141.1,764.48a145.28,145.28,0,0,0,21.54,15.91,232.37,232.37,0,0,0,22.68,12.19,329.74,329.74,0,0,0,47.83,17.56c16.44,4.68,33.28,8.48,50.5,12.11q6.46,1.25,13,2.67c4.36.79,8.73,1.78,13.14,2.68,2.21.45,4.42.87,6.64,1.35l6.67,1.5c4.46.92,9,1.95,13.5,3.28-4.46,1.46-9,2.62-13.49,3.68s-9.1,1.73-13.68,2.47-9.19,1.07-13.82,1.46-9.26.44-13.9.49-9.3-.12-14-.47-9.31-.7-13.94-1.43c-2.32-.32-4.64-.65-7-1l-6.92-1.35c-1.15-.24-2.3-.46-3.45-.73l-3.43-.85c-2.28-.61-4.57-1.14-6.84-1.81a177.33,177.33,0,0,1-26.59-10.08,141.26,141.26,0,0,1-24.52-14.76,115.21,115.21,0,0,1-20.65-19.85,88,88,0,0,1-8-11.86A50.61,50.61,0,0,1,1141.1,764.48Z"/><path class="cls-4" d="M1419.26,809c3.06.13,5.92.38,8.78.62l4.21.41c1.4.12,2.76.33,4.14.47,5.5.59,10.81,1.35,16.07,2.13,10.51,1.55,20.67,3.49,30.86,5.34s20.29,4.1,30.64,6.39c1.3.3,2.59.64,3.89,1l2,.53,2,.44c2.62.61,5.26,1.29,7.94,2.08,5.34,1.61,10.77,2.88,16.45,5.36A84.45,84.45,0,0,1,1512.92,844a113.19,113.19,0,0,1-34.32-1.5c-2.81-.59-5.62-1.17-8.4-1.9s-5.51-1.62-8.23-2.53a113,113,0,0,1-15.81-6.89,96.85,96.85,0,0,1-14.55-9.45,80.92,80.92,0,0,1-6.57-5.88c-.52-.53-1-1-1.55-1.58l-1.48-1.68A34,34,0,0,1,1419.26,809Z"/><path class="cls-5" d="M322.16,177.41s-464.94,443.81-35.22,1018"/><path class="cls-6" d="M1717,177.41s450.86,443.81,42.27,1018"/><path class="cls-7" d="M111.59,787.94S96.32,749.2,20,746.85c0,0-13.47,98.62,99.52,103.32C119.53,850.17,101.93,827.56,111.59,787.94Z"/><path class="cls-8" d="M124.32,882.71s-21.42-51-118.48-35.39c0,0-13.2,62.78,65,74.94,9.24,1.44,61.58-6.14,61.58-6.14Z"/><path class="cls-9" d="M157.33,969.68s-25.83-75.15-133.85-36.4c0,0,16.44,56.36,57.53,63.4,0,0,32.88,8.22,57.53,0C138.54,996.68,147.94,1003.72,157.33,969.68Z"/><path class="cls-9" d="M55.63,1030s102.93-49.57,138.17,29.51c0,0,18.61,36.54-60.12,37.65C133.68,1097.2,89.9,1092.72,55.63,1030Z"/><path class="cls-9" d="M119.32,792.14s9.71-57,106.47-61.12c0,0,2.68,43.72-17,67.11,0,0-33.06,37-78.87,46.49C129.93,844.62,114.7,826,119.32,792.14Z"/><path class="cls-9" d="M139.45,876.05s5.16-50.57,89.8-59.86c0,0,4.91,38.19-11,59.86,0,0-26.82,34.44-66.45,45.41C151.84,921.46,137.39,906,139.45,876.05Z"/><path class="cls-9" d="M161.61,943.26s5.16-50.57,89.79-59.86c0,0,4.92,38.19-11,59.86,0,0-26.82,34.44-66.44,45.42C174,988.68,159.55,973.19,161.61,943.26Z"/><path class="cls-9" d="M197.31,1016.17s7.41-52.11,95.32-58.25c0,0,3.51,39.72-13.79,61.49,0,0-29.16,34.54-70.59,44.26C208.25,1063.67,193.94,1047.06,197.31,1016.17Z"/><path class="cls-10" d="M1922.61,788.27s38.74-39.3,91.58-38.12c0,0,20,24.65-37.57,92.75,0,0-14.43,17.61-60,10.57C1916.57,853.47,1935.52,831.1,1922.61,788.27Z"/><path class="cls-10" d="M1903.5,888.92s14.09-56.56,120.93-37.09c0,0,5.87,15.95-50.48,74.66,0,0-35.23,22.3-76.32,0C1897.63,926.49,1916.42,907.7,1903.5,888.92Z"/><path class="cls-10" d="M1887.24,969.15s-1-30.66,87-42.92c0,0,37.48-1.7,50.4,11.22,0,0-12.92,49.31-68.69,70.44C1955.92,1007.89,1863.76,1022,1887.24,969.15Z"/><path class="cls-10" d="M1846.74,1054.65s30.52-62.22,140.89-35.22c0,0-1.18,44.62-70.45,70.45C1917.18,1089.88,1834.53,1098.53,1846.74,1054.65Z"/><path class="cls-10" d="M1918.52,789.69s-48.6-59.64-97.2-54.57c0,0-14.59,48.44,40.3,106.6,0,0,24.89,25.24,47.42,21.51C1909,863.23,1935.11,835.38,1918.52,789.69Z"/><path class="cls-10" d="M1897.07,870.3s-45-51.61-90-47.22c0,0-13.52,41.92,37.34,92.25,0,0,23.06,21.83,43.93,18.6C1888.29,933.93,1912.44,909.84,1897.07,870.3Z"/><path class="cls-10" d="M1871.77,942.41s-39.73-45.55-79.47-41.68c0,0-11.94,37,33,81.42,0,0,20.35,19.27,38.77,16.42C1864,998.57,1885.34,977.3,1871.77,942.41Z"/><path class="cls-10" d="M1842,1003.33S1795.74,945,1749.49,950c0,0-13.89,47.36,38.36,104.23,0,0,23.69,24.67,45.13,21C1833,1075.23,1857.8,1048,1842,1003.33Z"/><path class="cls-11" d="M391.68,795.63S375.24,968.47,516.14,1013s661-6,661-6,382.76-29.35,426.2-69.27c0,0,102.73-129.15-31.7-284.13,0,0-16.44-22.31,5.87-4.11S1640.89,744,1640.89,744s41.13,107.43,20,162.61c0,0-12.91,74-125,86.3l-307.91,33.76s-536.85,55.47-581.47,37.86c0,0-203.12,16.44-255.37-96.28,0,0-25.24-37.57-17.31-68.39C373.78,899.83,373.48,818.23,391.68,795.63Z"/><path class="cls-12" d="M1769.83,360.57s96.16,97.63,91.52,382.91"/><path class="cls-13" d="M1924,409.88s55.69,82.23,55.23,345.21"/><path class="cls-13" d="M104.68,409.88s-78.5,232.47-49.05,337"/><path class="cls-13" d="M252.12,362.92S131.39,639.67,172.18,740.81"/><polygon class="cls-14" points="588.68 348.83 546.95 327.69 505.88 350.09 513.09 303.87 479.1 271.73 525.28 264.3 545.35 222.04 566.69 263.67 613.08 269.69 580.08 302.85 588.68 348.83"/><polygon class="cls-14" points="1528.85 348.83 1487.12 327.69 1446.04 350.09 1453.25 303.87 1419.26 271.73 1465.45 264.3 1485.51 222.04 1506.85 263.67 1553.24 269.69 1520.24 302.85 1528.85 348.83"/><path class="cls-14" d="M797.67,85.92a90.83,90.83,0,0,1,9,9.46c2.79,3.32,5.39,6.78,7.88,10.32a181.41,181.41,0,0,1,13.31,22.35A202,202,0,0,1,845,177.64a206.28,206.28,0,0,1,3.63,26.44c.21,2.23.21,4.48.32,6.71l.12,3.37c0,1.12,0,2.24,0,3.37l-.08,6.74-.41,6.75c-.08,1.13-.13,2.25-.23,3.38l-.38,3.36c-.27,2.25-.49,4.49-.81,6.73l-1.13,6.7c-.34,2.24-.82,4.45-1.34,6.66s-1,4.42-1.55,6.62-1.24,4.36-1.87,6.54c-.32,1.08-.61,2.18-1,3.25l-1.11,3.21L837,283.88l-1.74,4.91-.65-.15s0,0,0,0l-.09.12-.19.25-.44.58-.92,1.29c-.62.88-1.24,1.81-1.85,2.75-1.23,1.87-2.45,3.81-3.63,5.78-2.36,3.94-4.6,8-6.68,12.14a165.82,165.82,0,0,0-10.54,25.78c-.73,2.23-1.29,4.48-1.94,6.75s-1.13,4.57-1.52,6.89-.8,4.66-1.22,7c-.24,2.36-.61,4.78-.72,7.2-.81,9.73-.07,19.81,1.66,30.59-1-1-1.9-1.94-2.82-3l-1.4-1.53c-.43-.53-.84-1.07-1.26-1.61-.83-1.09-1.7-2.19-2.51-3.32l-2.26-3.5c-.38-.59-.75-1.18-1.1-1.79l-1-1.85c-.65-1.24-1.34-2.48-2-3.76-1.13-2.57-2.32-5.18-3.21-7.89s-1.73-5.44-2.48-8.24-1.27-5.63-1.66-8.48-.72-5.74-1-8.64l-.18-4.34c-.07-1.45,0-2.89,0-4.34a127.68,127.68,0,0,1,5.3-34.18,146.88,146.88,0,0,1,5.81-16.29c1.16-2.66,2.33-5.31,3.67-7.94.66-1.31,1.35-2.62,2.08-3.95l1.12-2,.61-1.05.34-.56.45-.7-2.39,4.77c1.9-7.25,3.79-14.46,5.08-21.82.79-3.65,1.26-7.37,1.89-11.05.28-1.84.47-3.71.72-5.56l.36-2.79c.12-.93.19-1.87.29-2.8A321.87,321.87,0,0,0,810.34,182c-.57-15.44-2.09-31.11-4.27-47.06-1.1-8-2.38-16-3.78-24.17S799.33,94.44,797.67,85.92Z"/><path class="cls-14" d="M1001.13,0a90.83,90.83,0,0,1,9,9.46c2.79,3.32,5.39,6.78,7.88,10.32a181.41,181.41,0,0,1,13.31,22.35,202.4,202.4,0,0,1,17.23,49.59,206,206,0,0,1,3.63,26.44c.21,2.23.2,4.48.32,6.71l.12,3.37c0,1.12,0,2.24,0,3.36l-.08,6.75-.42,6.75c-.07,1.12-.12,2.25-.22,3.38l-.38,3.36c-.27,2.25-.5,4.49-.81,6.73l-1.13,6.7c-.35,2.24-.83,4.45-1.34,6.66s-1,4.42-1.55,6.62-1.25,4.36-1.87,6.54c-.32,1.08-.61,2.18-1,3.25l-1.12,3.21-2.26,6.41-1.74,4.91-.66-.15s0,0,0,0l-.09.12-.19.25-.44.58-.92,1.29c-.62.88-1.24,1.81-1.85,2.75-1.23,1.87-2.45,3.81-3.63,5.78-2.36,3.94-4.6,8-6.69,12.14a166.76,166.76,0,0,0-10.53,25.78c-.73,2.23-1.29,4.48-1.94,6.75s-1.14,4.57-1.53,6.89-.8,4.66-1.21,7c-.24,2.36-.61,4.78-.72,7.2-.81,9.73-.07,19.81,1.66,30.59-1-1-1.9-1.94-2.82-3l-1.4-1.53c-.43-.53-.84-1.07-1.26-1.61-.84-1.09-1.7-2.19-2.51-3.32l-2.26-3.5c-.38-.59-.75-1.18-1.11-1.79l-1-1.85c-.65-1.24-1.34-2.48-2-3.76-1.13-2.57-2.32-5.18-3.21-7.89s-1.73-5.44-2.49-8.24-1.26-5.63-1.66-8.48-.71-5.74-.95-8.64l-.18-4.34c-.08-1.45,0-2.89,0-4.34a128.07,128.07,0,0,1,5.29-34.18,149,149,0,0,1,5.82-16.29c1.16-2.66,2.33-5.31,3.67-7.94.66-1.31,1.34-2.62,2.07-4l1.13-2,.61-1.05.34-.56.45-.7-2.39,4.77c1.9-7.25,3.79-14.46,5.08-21.82.78-3.65,1.25-7.37,1.88-11,.28-1.84.48-3.71.73-5.56l.36-2.79c.12-.93.19-1.87.29-2.8a321.87,321.87,0,0,0,1.34-45.56c-.57-15.44-2.1-31.11-4.27-47.06-1.1-8-2.38-16-3.78-24.17S1002.78,8.52,1001.13,0Z"/><path class="cls-14" d="M1197.94,85.92a90.83,90.83,0,0,1,9,9.46c2.79,3.32,5.39,6.78,7.88,10.32a181.41,181.41,0,0,1,13.31,22.35,202.4,202.4,0,0,1,17.23,49.59,206.28,206.28,0,0,1,3.63,26.44c.21,2.23.21,4.48.32,6.71l.12,3.37c0,1.12,0,2.24,0,3.37l-.08,6.74-.41,6.75c-.08,1.13-.13,2.25-.23,3.38l-.38,3.36c-.27,2.25-.5,4.49-.81,6.73l-1.13,6.7c-.34,2.24-.83,4.45-1.34,6.66s-1,4.42-1.55,6.62-1.25,4.36-1.87,6.54c-.32,1.08-.61,2.18-1,3.25l-1.11,3.21-2.27,6.41-1.74,4.91-.65-.15s0,0,0,0l-.09.12-.19.25-.44.58-.92,1.29c-.62.88-1.24,1.81-1.85,2.75-1.23,1.87-2.45,3.81-3.63,5.78-2.36,3.94-4.6,8-6.69,12.14a166.76,166.76,0,0,0-10.53,25.78c-.73,2.23-1.29,4.48-1.94,6.75-.5,2.28-1.13,4.57-1.53,6.89s-.79,4.66-1.21,7c-.24,2.36-.61,4.78-.72,7.2-.81,9.73-.07,19.81,1.66,30.59-1-1-1.9-1.94-2.82-3l-1.4-1.53c-.43-.53-.84-1.07-1.26-1.61-.84-1.09-1.7-2.19-2.51-3.32l-2.26-3.5c-.38-.59-.75-1.18-1.11-1.79l-1-1.85c-.65-1.24-1.34-2.48-2-3.76-1.13-2.57-2.32-5.18-3.21-7.89s-1.73-5.44-2.49-8.24-1.26-5.63-1.66-8.48-.71-5.74-.95-8.64l-.18-4.34c-.08-1.45,0-2.89,0-4.34a128.07,128.07,0,0,1,5.29-34.18,149,149,0,0,1,5.82-16.29c1.16-2.66,2.33-5.31,3.67-7.94.66-1.31,1.35-2.62,2.08-3.95l1.12-2,.61-1.05.34-.56.45-.7-2.39,4.77c1.9-7.25,3.79-14.46,5.08-21.82.79-3.65,1.25-7.37,1.88-11.05.28-1.84.48-3.71.73-5.56l.36-2.79c.12-.93.19-1.87.29-2.8a321.87,321.87,0,0,0,1.34-45.56c-.57-15.44-2.1-31.11-4.27-47.06-1.1-8-2.38-16-3.78-24.17S1199.6,94.44,1197.94,85.92Z"/><path class="cls-15" d="M516.41,1187.22a42.25,42.25,0,0,1-.58,7.44,11.87,11.87,0,0,1-2,5.08,9.1,9.1,0,0,1-3.3,2.82,8.86,8.86,0,0,1-3.88.9H370.45v99.23H499.17a9.83,9.83,0,0,1,3.88.79,8.5,8.5,0,0,1,3.3,2.59,10.91,10.91,0,0,1,2,4.85,43.42,43.42,0,0,1,.58,7.78,40.38,40.38,0,0,1-.58,7.33,11.7,11.7,0,0,1-2,5,10.22,10.22,0,0,1-3.3,2.93,8,8,0,0,1-3.88,1H370.45V1456.5a4.86,4.86,0,0,1-1.15,3,7.41,7.41,0,0,1-4,2.25,54.06,54.06,0,0,1-7.47,1.36,104.73,104.73,0,0,1-12.07.56,106.15,106.15,0,0,1-11.77-.56,53.57,53.57,0,0,1-7.76-1.36,7.38,7.38,0,0,1-4-2.25,4.86,4.86,0,0,1-1.15-3V1186.32q0-8.79,5.89-12.29a24.08,24.08,0,0,1,12.49-3.5H506.64a8.87,8.87,0,0,1,3.88.91,8.73,8.73,0,0,1,3.3,2.93,12.89,12.89,0,0,1,2,5.3A44.33,44.33,0,0,1,516.41,1187.22Z"/><path class="cls-15" d="M931.28,1446.35a39,39,0,0,1-.57,7.1,12.81,12.81,0,0,1-2,5.07,8.76,8.76,0,0,1-3.3,2.94,9.47,9.47,0,0,1-4.16.9H742.81a24,24,0,0,1-12.5-3.5q-5.89-3.49-5.89-12.29V1186.32q0-8.79,5.89-12.29a24.08,24.08,0,0,1,12.5-3.5h176.4a9.52,9.52,0,0,1,4.17.91,6.92,6.92,0,0,1,3,2.93,19.54,19.54,0,0,1,1.86,5.07A33.51,33.51,0,0,1,929,1187a31.11,31.11,0,0,1-.72,7.1,17.65,17.65,0,0,1-1.86,5,7.11,7.11,0,0,1-3,2.82,9.51,9.51,0,0,1-4.17.9H773.84v91.56H898.53a8.52,8.52,0,0,1,4.16,1,9.35,9.35,0,0,1,3.16,2.82,12.25,12.25,0,0,1,1.87,5,42.41,42.41,0,0,1,.58,7.44,37,37,0,0,1-.58,7,12,12,0,0,1-1.87,4.74,7.34,7.34,0,0,1-3.16,2.59,10.49,10.49,0,0,1-4.16.79H773.84v104.42H921.23a9.47,9.47,0,0,1,4.16.9,9.1,9.1,0,0,1,3.3,2.82,11.89,11.89,0,0,1,2,5A42,42,0,0,1,931.28,1446.35Z"/><path class="cls-15" d="M1344.43,1380.49q0,20.54-9.62,36.54a84.28,84.28,0,0,1-26.72,27.17q-17.1,11.17-40.23,16.81a210.5,210.5,0,0,1-49.84,5.63,224.94,224.94,0,0,1-34.63-2.48,229.79,229.79,0,0,1-28.44-6.09,156.24,156.24,0,0,1-21-7.44q-8.49-3.83-11.78-6.54a15.92,15.92,0,0,1-4.89-6.88,32.32,32.32,0,0,1-1.58-11.16,48,48,0,0,1,.58-8.23,16.49,16.49,0,0,1,1.72-5.3,6.43,6.43,0,0,1,2.87-2.82,9.53,9.53,0,0,1,4-.79q4,0,11.35,3.83a195.2,195.2,0,0,0,18.81,8.35,217,217,0,0,0,27.73,8.46q16.23,3.95,37.49,3.94a120.12,120.12,0,0,0,29.45-3.38,77.12,77.12,0,0,0,23-9.59,44.17,44.17,0,0,0,14.79-15.22,40.47,40.47,0,0,0,5.18-20.52q0-12.4-7.19-21.2a66.16,66.16,0,0,0-19-15.45,183.65,183.65,0,0,0-26.86-12.18q-15.09-5.52-30.89-11.27t-30.74-12.74a130.72,130.72,0,0,1-26.72-16.47,78.59,78.59,0,0,1-19.11-22.21q-7.32-12.73-7.32-30.56,0-18.27,8.47-32.59a72.28,72.28,0,0,1,23.56-24q15.09-9.69,35.92-14.77a189.72,189.72,0,0,1,45-5.07,184.74,184.74,0,0,1,24.85,1.69,209.18,209.18,0,0,1,23.56,4.51,154,154,0,0,1,19.68,6.31c5.75,2.34,9.53,4.21,11.35,5.64a18.57,18.57,0,0,1,3.59,3.39,11.12,11.12,0,0,1,1.44,3.15,26,26,0,0,1,.86,4.63,69,69,0,0,1,.29,7,55,55,0,0,1-.43,7.21,22.19,22.19,0,0,1-1.3,5.3,6.17,6.17,0,0,1-6,4.18q-3.17,0-9.91-3.16t-16.52-7.11a172.4,172.4,0,0,0-23.13-7.21,126.58,126.58,0,0,0-30-3.27,99.23,99.23,0,0,0-27,3.27,60.09,60.09,0,0,0-19,8.68,35.47,35.47,0,0,0-11.21,12.85,34.77,34.77,0,0,0-3.73,15.79,32.13,32.13,0,0,0,7.18,21,66.77,66.77,0,0,0,19.1,15.56,185.66,185.66,0,0,0,27.16,12.4q15.22,5.64,31,11.39t31,12.63a131.47,131.47,0,0,1,27.15,16.24,76.07,76.07,0,0,1,19.25,22.1Q1344.44,1363.13,1344.43,1380.49Z"/><path class="cls-15" d="M1747.81,1380.49q0,20.54-9.62,36.54a84.28,84.28,0,0,1-26.72,27.17q-17.1,11.17-40.22,16.81a210.65,210.65,0,0,1-49.85,5.63,224.81,224.81,0,0,1-34.62-2.48,230,230,0,0,1-28.45-6.09,156.74,156.74,0,0,1-21-7.44q-8.47-3.83-11.78-6.54a16.08,16.08,0,0,1-4.89-6.88,32.35,32.35,0,0,1-1.57-11.16,48.17,48.17,0,0,1,.57-8.23,16.74,16.74,0,0,1,1.72-5.3,6.45,6.45,0,0,1,2.88-2.82,9.49,9.49,0,0,1,4-.79q4,0,11.35,3.83a194.41,194.41,0,0,0,18.82,8.35,216.25,216.25,0,0,0,27.72,8.46q16.23,3.95,37.5,3.94a120.1,120.1,0,0,0,29.44-3.38,77.12,77.12,0,0,0,23-9.59,44.29,44.29,0,0,0,14.8-15.22,40.57,40.57,0,0,0,5.17-20.52q0-12.4-7.19-21.2a66.16,66.16,0,0,0-19-15.45,183.17,183.17,0,0,0-26.86-12.18q-15.09-5.52-30.89-11.27t-30.74-12.74a130.72,130.72,0,0,1-26.72-16.47,78.39,78.39,0,0,1-19.1-22.21q-7.34-12.73-7.33-30.56,0-18.27,8.47-32.59a72.28,72.28,0,0,1,23.56-24q15.09-9.69,35.92-14.77a189.72,189.72,0,0,1,45-5.07,184.74,184.74,0,0,1,24.85,1.69,208.75,208.75,0,0,1,23.56,4.51,153.49,153.49,0,0,1,19.68,6.31c5.75,2.34,9.53,4.21,11.35,5.64a18.57,18.57,0,0,1,3.59,3.39,11.12,11.12,0,0,1,1.44,3.15,26,26,0,0,1,.86,4.63,69,69,0,0,1,.29,7,53.34,53.34,0,0,1-.43,7.21,22.19,22.19,0,0,1-1.3,5.3,6.17,6.17,0,0,1-6,4.18q-3.16,0-9.91-3.16t-16.52-7.11a171.94,171.94,0,0,0-23.13-7.21,126.58,126.58,0,0,0-30-3.27,99.23,99.23,0,0,0-27,3.27,60.19,60.19,0,0,0-19,8.68,35.47,35.47,0,0,0-11.21,12.85,34.77,34.77,0,0,0-3.73,15.79,32.13,32.13,0,0,0,7.18,21,67,67,0,0,0,19.11,15.56A185,185,0,0,0,1632,1288q15.23,5.64,31,11.39t31,12.63a131.47,131.47,0,0,1,27.15,16.24,76.37,76.37,0,0,1,19.25,22.1Q1747.81,1363.13,1747.81,1380.49Z"/><path class="cls-16" d="M555.85,1568.78h18.33c13.21,0,22.19,5.51,22.19,19.57,0,8-3.65,15.05-11.34,17.49v.49c9.46,1.84,15,8.19,15,19.2,0,15.78-9.86,23.48-24.35,23.48H555.85Zm16.95,33.76c11.05,0,15.48-4.4,15.48-13.33,0-8.68-5.13-11.86-15.08-11.86H564v25.19Zm1.68,37.91c11,0,17.45-4.52,17.45-15.41,0-9.9-6.11-13.94-17.45-13.94H564v29.35Z"/><path class="cls-16" d="M630.08,1568.78h9.47L661.34,1649h-8.88l-11.14-44.76c-2.26-8.93-4.43-17.73-6.41-27h-.39c-2.07,9.3-4.14,18.1-6.41,27L616.77,1649H608.3Zm-10.25,47.58h29.68v8.32H619.83Z"/><path class="cls-16" d="M674,1568.78h8.38v40.12h.29l27.11-40.12h9.47l-36.87,54.67V1649H674Zm18.33,35.47,5-8.07L721.57,1649h-9.36Z"/><path class="cls-16" d="M734.78,1568.78h40v8.69H743.07v25.07h26.81v8.68H743.07v29.11H775.8V1649h-41Z"/><path class="cls-16" d="M792.46,1568.78h20.21c13.11,0,22.67,5.88,22.67,22.63,0,16-9.56,23.73-22.67,23.73H800.84V1649h-8.38Zm19,38c10,0,15.57-5.14,15.57-15.41,0-10.52-5.52-14.31-15.57-14.31H800.84v29.72Zm6,.12L837.22,1649h-9.37L811,1612.32Z"/><path class="cls-16" d="M867.29,1620.4l-21.69-51.62h8.77l9.66,23.73c2.47,6.24,4.74,12.35,7.4,18.71h.39c2.57-6.36,5.13-12.47,7.59-18.71l9.37-23.73h8.48l-21.69,51.62V1649h-8.28Z"/><path class="cls-16" d="M964.3,1628.22c0-23.11,27.9-27.64,27.9-44.88,0-4.65-1.58-8.81-5.92-8.81-4.53,0-7.19,5-7.19,11.62,0,15,12.91,35,24.94,46.35,4.63,4.77,9.07,8,13,9.54l-2.27,8.44c-4.83-1.83-10-5.5-15.67-11.13-13.8-13.7-27.11-36.57-27.11-52.95,0-10.77,5.72-19.08,14.2-19.08,8.08,0,12.61,6.48,12.61,15.9,0,19.93-26.61,26.41-26.61,44.39,0,8.93,5.52,14.8,12.42,14.8,5,0,9.76-3.91,13.6-9.42,4.93-7.09,8.38-16.26,10.55-27.27h7.59c-2.56,12-6.6,23-12.42,32.16-5.22,7.46-11.63,12.6-20.31,12.6C972.19,1650.48,964.3,1641.19,964.3,1628.22Z"/><path class="cls-16" d="M1088.52,1568.78H1108c14.3,0,24,6,24,23.61,0,17-9.76,24.83-24,24.83H1096.8V1649h-8.28Zm18.53,40.12c11.24,0,16.67-5.14,16.67-16.51s-5.53-15.29-16.67-15.29H1096.8v31.8Z"/><path class="cls-16" d="M1162.46,1568.78h9.47l21.78,80.23h-8.87l-11.14-44.76c-2.27-8.93-4.44-17.73-6.41-27h-.39c-2.07,9.3-4.14,18.1-6.41,27L1149.15,1649h-8.48Zm-10.25,47.58h29.67v8.32h-29.67Z"/><path class="cls-16" d="M1203.38,1638.62l4.93-7.1c4.92,6,11.63,9.91,18.92,9.91,8.88,0,14-5.26,14-12.6,0-8.56-5-11-11.53-14.43l-9.37-5.13c-6.41-3.18-13.9-8.81-13.9-20.67,0-12.23,8.87-21.28,21.2-21.28a25.69,25.69,0,0,1,19.91,9.9l-4.34,6.61c-4.23-4.65-9.16-7.46-15.87-7.46-7.49,0-12.52,4.4-12.52,11.62,0,7.7,6,10.51,11.54,13.2l9.07,5c8,3.91,14.29,9.54,14.29,21.4,0,12.72-8.67,22.87-22.87,22.87C1217.37,1650.48,1209.19,1645.83,1203.38,1638.62Z"/><path class="cls-16" d="M1281.36,1577.47H1260v-8.69H1311v8.69h-21.39V1649h-8.28Z"/><path class="cls-16" d="M1324.84,1568.78h20.21c13.11,0,22.67,5.88,22.67,22.63,0,16-9.56,23.73-22.67,23.73h-11.83V1649h-8.38Zm19,38c10.06,0,15.58-5.14,15.58-15.41,0-10.52-5.52-14.31-15.58-14.31h-10.64v29.72Zm6,.12L1369.6,1649h-9.37l-16.86-36.69Z"/><path class="cls-16" d="M1399.66,1620.4,1378,1568.78h8.77l9.66,23.73c2.47,6.24,4.73,12.35,7.4,18.71h.39c2.56-6.36,5.13-12.47,7.59-18.71l9.37-23.73h8.48L1408,1620.4V1649h-8.29Z"/></g></g></svg>