<svg xmlns="http://www.w3.org/2000/svg" viewBox="0 0 1841.02 1936.46"><defs><style>.cls-1{fill:#dcdbdb;}.cls-2,.cls-3{fill:none;}.cls-2{stroke:#a76040;stroke-width:80px;}.cls-11,.cls-2,.cls-3,.cls-4,.cls-5{stroke-miterlimit:10;}.cls-3{stroke:#c48369;stroke-width:30px;}.cls-4,.cls-5{fill:#e88b3e;stroke-width:2px;}.cls-4{stroke:#392213;}.cls-5{stroke:#3a210f;}.cls-6{fill:#d6782b;}.cls-7{fill:#c26328;}.cls-8{fill:#f0ae5e;}.cls-9{fill:#f3d1b1;}.cls-10{fill:#f7b978;}.cls-11{fill:#60351c;stroke:#31170d;stroke-width:8px;}.cls-12{font-size:97.61px;fill:#301910;font-family:ComicSansMS, Comic Sans MS;}</style></defs><title>Asset 13</title><g id="Layer_2" data-name="Layer 2"><g id="Layer_1-2" data-name="Layer 1"><path class="cls-1" d="M1412.14,33.27s31.67-102.33,201,51.94c0,0,163.51,86.35,133.4,169,0,0,100.58,90.12,65.67,157.78,0,0-36.48,72.53-140-15.6l-13.3-3.36L1633,440.27s-145.9-5.44-287.39-141.83c0,0,168,107.33,252.41,111.32,0,0-145.7-38.22-214-96.26,0,0,144.13,73,189.38,72.25,0,0-111.34-90.21-224.54-111.76,0,0-65.47-15.9-45.41-48.12l47-72.1s45.78-11.17,117.87,28.09c0,0,126.67,60.52,185.07,136.58,0,0,.14-31.95-60.14-76.72s-.22-1.62-.22-1.62-93.84-69.41-151.22-83.65c0,0-42.29-13.89-89.68-18.21,0,0-52.52-17.57-38.15-62.81,0,0,2.9-41.47,35.28-39.79l57.17,8.68Z"/><path class="cls-2" d="M148,1493.56c118.85,238.81,365.39,402.9,650.24,402.9,201.09,0,383.07-81.76,514.52-213.86"/><path class="cls-3" d="M291.34,1493.19c89.93,180.71,276.48,304.87,492,304.87,152.15,0,289.86-61.87,389.32-161.82"/><path class="cls-2" d="M207.27,749c126.33-176.78,330-294.49,561.59-303.7"/><path class="cls-3" d="M322.1,818.46c126.34-176.78,330-294.49,561.6-303.7"/><path class="cls-4" d="M891.79,309.15s-134.18,41.73-147.66,49.23c0,0-92.8,35.8-125.09,90.36,0,0-32.34,45.53-22,65.94,0,0,3.89,33.92,71.28,43.73,0,0,78.26,11,83.95,9.55,0,0,107.3,8.91,117,15.27L953,604s-24.56-77.08-22.76-112.41c0,0-15.52-110.6-16.7-117.53S896.62,314.67,891.79,309.15Z"/><path class="cls-4" d="M892.48,307.57s27.76,58.19,35.24,154c0,0,16.53,133.85,26.85,142.13,0,0,18.36,52.79,80.38,62.64,0,0,85.09,35.63,97,44,0,0,10.56-13.48,4.54-40.4L1139,549.44s.87-196.59-3.81-201.63l-3.15-29.18s-15-45.36-10.77-54.68c0,0-152.18-14.77-157.58-10.83C963.72,253.12,905.32,285.75,892.48,307.57Z"/><path class="cls-5" d="M1122.76,267.33s4.42,51.22,10.28,56.35c0,0,9.79,100.66,7.48,117.51l-.23,152.38-.46,108.25s27.61,72.18,69.81,85.3c0,0,68.54,48.8,113,26.85,0,0,131.17-77.66,195.64-133.27,0,0,185.2-151.6,182.94-161.11s-19.88-72.82-30.53-79c0,0-46.43-67-234.08-156.1,0,0-139-66.62-250.94-69.2C1185.69,215.34,1127.85,241.91,1122.76,267.33Z"/><path class="cls-4" d="M1701.32,522S1505.5,703.29,1481.9,707.35c0,0-139.47,103.33-147.67,103.31s-7.44,16.84,10.79,22.63,101.17,65.21,123.89,64.19,98.47-6,119.72-16.41c0,0,188.73-69.8,191.93-74.21l38.93-12.81s31.25-61,16.63-79.6c0,0-53.92-117.81-67.71-125.74Z"/><path class="cls-4" d="M1820,796.29l-278.11,95.44s72.81,63,98,153.33c0,0,15.09,121.3,77.36,109.39,0,0,53.69-6.67,74-48.94,0,0,45.87-100.32,46.24-134.52,0,0,5.2-72.1-5.79-106.57Z"/><path class="cls-6" d="M1638.11,474.45s46.55-17.81,29.38,24.71-54.73,74.11-70,82.56-82.42,67.58-82.42,67.58S1406,737.49,1407.52,740.72c0,0-85.27,68.29-109.77,58.9,0,0-31.19,4.16-54.7-9.36,0,0-75.38-29.27-77.06-70.71,0,0,4.41-57.29,21.47-82.09,0,0,12.26-18.17,69.48,5.93,0,0,97.44,45.47,132,21.35,0,0,80.33-34.76,89.92-46.84,0,0,96.89-79.2,109.88-98.71C1588.74,519.19,1629.06,473,1638.11,474.45Z"/><path class="cls-6" d="M905.26,369.93s13.88,87.75,12.86,95l12,68.39s-7.43,9.22-24.26,12.44c0,0-49.67,10.45-69.17-1.93,0,0-52-7-75-30.52s-50.9-51.46-54.29-87.82c0,0,2.15-9.32,8.85-1.17,0,0,32.15,59.94,60,65.4,0,0,46,19,72.68-27.43,0,0,53-87.55,52.52-88.09S905.26,369.93,905.26,369.93Z"/><path class="cls-6" d="M1701,555.1s17-18.78-7-7.54c0,0-74.26,56.43-95.59,75.84l-112.94,98.12s-98.74,78.14-101.44,84.21c0,0-18.36,28.75,33.09,48.94,0,0,64.13,43.33,93.95,29.39s89.79-44.57,89.79-44.57,101.69-51.8,112.94-48.27L1800.62,766l12.55-23.29s4.2-9.9-14-8l-177.64,41-55.13,4.67s-72.78,3.12-20-62.31c0,0,82.88-98.59,88.08-98.34Z"/><path class="cls-6" d="M1780.9,823.84s44.35-4.63,10.55,14c0,0-69.11,40.06-71.14,66.91,0,0-1.06,21.26,11.6,26,1.3.48,21.72,21.87,49.71,27.13,0,0,20.53,4.14,25.16,11.56,0,0,13.91,12-15.66,30.37,0,0-34.38,15.77-64.95,4.27,0,0-36.53-5.67-61.46-21.86,0,0-57.54-29.12-63.89-41.49,0,0-16.5-11.87-.21-34.74,0,0,18.77-21.71,27.32-22.87l53.17-26.77s70.37-28.78,76.1-25.75Z"/><path class="cls-6" d="M1126.44,354.37s.25,137.39-17.8,157.91c0,0-22.67,26.07-50.59,26.83,0,0-70.56,6.74-74.53,8.77S980.81,578,987,587.45c0,0,13.15,35.57,46.42,49.28,0,0,38.36,24,66,26.95l15.69,3.45s13.1-18.58,15.43-48.61L1132,529l-1.14-91.57-2.2-69.6Z"/><path class="cls-7" d="M888.34,456.55s21.52-21.65,21.27,16.14l-3.67,33.47s-10.06,25.51-30.08,25.33c0,0-36.22,10.07-56.89-3.38l-49.56-25.37,35.3,2.31s43.33,1.12,56-14.09Z"/><path class="cls-7" d="M1063.58,575.05s31-26.73,40.46-23.07c0,0,23,3,15.77,29.59l-15.87,35.16s-14.23,24.67-40.33,10.25c0,0-50.06-19.11-56.8-30,0,0-12.23-17.3,5.42-20.35l40.43,2.13S1061.44,576.84,1063.58,575.05Z"/><path class="cls-7" d="M1626.64,522s39-20.59,20,17.75L1548.3,620l-110,80.65L1349,759.64s-47.26,25.22-86.74,1c0,0-65.27-31.27-61.44-64.27,0,0,9.86-7.62,55.69,12.47s88.56,6.34,88.56,6.34,65.34-34.38,76.5-45.94c0,0,55.89-35.13,67.82-29.83,0,0,59.14-44.21,62.41-54.84C1551.84,584.53,1614.37,518.81,1626.64,522Z"/><path class="cls-7" d="M1588.91,656.39s36.53-31.2,17.83,13.77c0,0-53.83,56.45-52.49,64.25,0,0-44.79,29.39-27.56,54.55,0,0,12.61,14.87,18.76,14.89,0,0,28.45,16.36,20.11,43.82,0,0-11.76,26.38-35.31,27.8l-46.5,1.71s-32.27-1.84-37-30.69c0,0,1.4-31.16,11.92-42.11,0,0,22.18-51.78,28.07-53.67,0,0,23.76-35.61,29.77-33.62,0,0,36.34-14.3,46.55-28.66C1563,688.43,1589.82,659.85,1588.91,656.39Z"/><path class="cls-7" d="M1691.88,869.07s-2.47,54.11,9.38,66.4c0,0,7.14,10.36,18.14,14.34,0,0,26.19,13.1,19.88,27.85,0,0-5.07,17-19.68,12.15a49.14,49.14,0,0,1-18.78-6.69s-58.32-31.58-58.91-35c0,0-22.49-12.74-13.25-36.75,0,0,15.41-24.38,30.55-24.67C1659.21,886.65,1687.7,876.45,1691.88,869.07Z"/><path class="cls-8" d="M1775.11,872.57s37.75-19.75,44,12.8-5.47,39.08-5.47,39.08-37.88,32.19-59.62.92S1775.11,872.57,1775.11,872.57Z"/><path class="cls-9" d="M1784,878.73s47.66-18.35,16.52,18.1c0,0-29.23,19.95-42.42,14.71,0,0-19.69-2.32-5.82-16.63Z"/><path class="cls-9" d="M1798,914.33s47.67-18.34,16.52,18.1c0,0-29.23,20-42.42,14.71,0,0-19.69-2.32-5.81-16.63Z"/><path class="cls-8" d="M1721.87,616s30.36-18.62,49.05,13.54c0,0,33.53,49.78,28.78,73.44,0,0,2.34,12.79-36.67,21.74l-97.22,22.11s-33.9,6.32-43.3.91c0,0-41.89-9.13-14.79-53.67,0,0,46.51-46.87,59.78-48.63Z"/><path class="cls-9" d="M1712.36,638.4s62-24.38,21.29,23.52c0,0-38.07,26.33-55.15,19.59,0,0-25.52-2.88-7.41-21.7Z"/><path class="cls-9" d="M1730.21,684.82s62-24.38,21.3,23.53c0,0-38.08,26.32-55.15,19.58,0,0-25.53-2.87-7.42-21.7Z"/><path class="cls-8" d="M1186.33,316.74s-1.74-58.48,51.63-50.09c0,0,68.26,17.35,83,27.37,0,0,92.64,37.63,117.52,55.45l29.36,16.37s17.37,8.16-6.35,43c0,0-38,55.2-48.13,61.09,0,0-20.48,28.11-44.53,34.62,0,0-48,17.39-76.49,15.45,0,0-34.87,1.46-52.61-5.22,0,0-54.65-6.79-62.76-44.3s-.71-109.9,1.1-117.07S1182.17,322.17,1186.33,316.74Z"/><path class="cls-10" d="M1252.39,293.08s29.62-12.29,72.54,14.73c0,0,55.57,23.35,66.36,46,0,0,11.7,27.06-2.79,53.93,0,0-59.73,69.67-96.93,68.61l-35.4,6.24s-22.44,5.08-31.8-33.93S1210.09,310.61,1252.39,293.08Z"/><path class="cls-9" d="M1240.65,349s9.88-101.36,44.94-5.63c0,0,8.71,72.66-11.54,88.27,0,0-20.88,29.92-33.24-10.41Z"/><path class="cls-9" d="M1313.1,368.72s9.88-101.36,44.94-5.63c0,0,8.7,72.66-11.54,88.27,0,0-20.89,29.92-33.24-10.4Z"/><path class="cls-9" d="M985.91,344.87s7.74-135.33,57.34-5.57c0,0,14.7,97.69-10.5,117.71,0,0-25.32,39.16-43.12-15.39Z"/><path class="cls-9" d="M1061.65,350.07s3.21-107,43.92-3.36c0,0,13.27,77.61-5.67,93,0,0-18.66,30.54-33.43-13Z"/><path class="cls-8" d="M926.62,317.59s11-30.65,22.21,2.21c0,0,20,98.89,16.61,126.86l3,76.78-1.35,58.47s.05,29.06-4.86,1.6-14-71.11-14-71.11l-11.89-92.19-9.94-76.39S923.4,320.13,926.62,317.59Z"/><path class="cls-8" d="M708.16,389.93S776,353.88,786.41,357.5c0,0,52.06-2.13,57.89-16,0,0,21.6-14.17,18.15,13.56s-18.08,67-24.75,71.8-28.73,32-66.06,12.86Z"/><path class="cls-9" d="M804.37,383.11s-3.68-85.72,32.14-.48c0,0,14.14,63,1.07,74.36,0,0-12,23.57-25.34-12.1Z"/><path class="cls-9" d="M765.57,391.09s-3.67-85.71,32.15-.48c0,0,14.14,63,1.06,74.36,0,0-12,23.57-25.34-12.1Z"/><path class="cls-11" d="M395.62,828.78a27.62,27.62,0,0,1-11.16,3.11q-6.76.63-14.81.62-16.09,0-30.34.37t-21.21.38q-9.15,0-24.5,1t-33.28,2.49q-17.91,1.5-36.56,3.61T189,844.71q-16.1,2.24-27.61,4.6c-7.67,1.58-12.74,3-15.17,4.36q-2.19,2.49-7,14.31a285.65,285.65,0,0,0-9.5,28.62q-4.77,16.8-8.42,36.46a208.84,208.84,0,0,0-3.65,38.08q20.1-2.75,41.32-6.1t46.07-6.35q13.53-1.49,29.07-4.48t31.26-6q15.72-3,30.54-5.23a181.54,181.54,0,0,1,26.87-2.24q13.17,0,22.12.63A56.72,56.72,0,0,1,359.6,944c3.78,1.33,6.45,3.36,8,6.1s2.38,6.51,2.38,11.32A20.76,20.76,0,0,1,365.45,974a53.57,53.57,0,0,1-11.88,11.32q-5.13,3.73-19.2,7T304,998.14q-16.27,2.61-31.08,4.48t-21.39,2.61q-25.61,3-50.64,6.6t-45.16,7.09q-20.12,3.5-33.1,6.6t-14.44,5.1a35.37,35.37,0,0,0-4.2,10.7,142.28,142.28,0,0,0-2.75,15.06q-1.1,8.34-1.46,17.54t-.36,18.17q0,14.69-.19,24.64t-.18,20.16a63.52,63.52,0,0,1-1.1,11.95A21,21,0,0,1,93,1158.92q-3.84,4.35-11.52,7T61,1168.5H57.2a29.49,29.49,0,0,1-3.84-.25c-1.46-.17-4.88-.91-10.23-2.24a83.32,83.32,0,0,1-16.83-6.35,62.51,62.51,0,0,1-15.54-10.82A20.9,20.9,0,0,1,4,1133.16a330.22,330.22,0,0,1,4.75-56.37q4.75-27.51,8.41-50.15c.24-1.16.92-4.4,2-9.71s2.49-12,4.2-20,3.66-17.09,5.85-27.13,4.39-20.24,6.58-30.61,4.33-20.58,6.4-30.62,4-19.12,5.67-27.25,3-14.89,4-20.28a87.08,87.08,0,0,0,1.46-9.83,16.54,16.54,0,0,0-1.46-6.6c-1-2.24-2.07-4.52-3.29-6.84a77.17,77.17,0,0,1-3.29-7.1,19.26,19.26,0,0,1-1.46-7.34q0-4.72,4.57-9.95a52.62,52.62,0,0,1,11.33-9.58,72.69,72.69,0,0,1,14.63-7.22,42.44,42.44,0,0,1,14.44-2.86,161.16,161.16,0,0,1,25.6,1.74,124.37,124.37,0,0,0,20.11,1.74A301.84,301.84,0,0,0,168,794.93q19.55-2.23,44.42-5.72,21.57-3,43.15-5.6t42.23-4.73q20.65-2.11,39.68-3.36T373,774.27a65.69,65.69,0,0,1,15,2.12,118.24,118.24,0,0,1,17,5.47,63.53,63.53,0,0,1,13.89,7.59q5.67,4.24,5.67,8.22,0,7.47-6,15.43T395.25,829Z"/><path class="cls-11" d="M897.29,975.37q0,4.47-9.87,16.42a514.72,514.72,0,0,1-42.23,37,553.52,553.52,0,0,1-49.55,34.72A626.91,626.91,0,0,1,740.79,1094,511.79,511.79,0,0,1,683,1118.22a440.63,440.63,0,0,1-58.32,16.06,287.88,287.88,0,0,1-56.86,5.85q-62.54,0-97.45-24t-34.92-72.55a182.1,182.1,0,0,1,4-38.2,151.06,151.06,0,0,1,13.35-37.09,187.68,187.68,0,0,1,24.32-36A232.47,232.47,0,0,1,514.09,898a131.62,131.62,0,0,1,18.83-12,182.65,182.65,0,0,1,23-10.2,179.11,179.11,0,0,1,25.59-7.22,131.36,131.36,0,0,1,26.51-2.74q19.38,0,33.46,5t23.22,13.31a52.51,52.51,0,0,1,13.53,19.17,60.12,60.12,0,0,1,4.38,22.77q0,22.15-24.13,45.92t-66.91,48.65q-13.9,8-32.18,17.3t-40.95,21a22,22,0,0,0,5.3,11.7,40,40,0,0,0,12.43,9.58,74.35,74.35,0,0,0,18.83,6.47,118.27,118.27,0,0,0,24.87,2.37,248.51,248.51,0,0,0,38-3.12,386.44,386.44,0,0,0,39.86-8.33q19.74-5.23,38.39-12.07a368.32,368.32,0,0,0,34-14.31q27.06-13.2,52.11-28.5t48.44-31.24l19.38-13.19q20.11-12.18,34.38-12.19,7.31,0,10,3.36T897.29,975.37Zm-285.21-45.8a33.32,33.32,0,0,0-1.64-10.45q-1.65-5-5.3-6.22-12.43,0-26.51,7.22a102.06,102.06,0,0,0-26.88,20.53,143.85,143.85,0,0,0-22.85,32.1,153.91,153.91,0,0,0-14.81,41.69q17.17-8.7,34.55-18.29a279.69,279.69,0,0,0,31.45-20,117.37,117.37,0,0,0,23-22Q612.09,942.51,612.08,929.57Z"/><path class="cls-11" d="M1217.24,967.4q0,6.72-8.77,16.8a199.08,199.08,0,0,1-22.13,21.28q-13.35,11.21-29.8,22.78T1124.73,1050q-9.15,6-27.06,16.55t-40,23.27q-22.12,12.69-46.25,26.26t-45.53,25.26q-21.39,11.7-37.84,20.41t-23.4,12a303.06,303.06,0,0,1-42.24,15.67q-19.56,5.47-34.92,5.48a121.33,121.33,0,0,1-21.57-1.62,58.43,58.43,0,0,1-14.26-4.23,21.52,21.52,0,0,1-8-6,11.24,11.24,0,0,1-2.55-6.85,26.58,26.58,0,0,1,4.75-15.55q4.74-6.86,14.81-12.82a150.68,150.68,0,0,1,25.59-11.57q15.54-5.6,36.75-11.57,13.89-3.73,25.05-7.22a131.19,131.19,0,0,0,19.38-7.59q8.22-4.11,12.61-9.34a19,19,0,0,0,4.39-12.69q0-1.74-3.47-6.47t-9-11q-5.49-6.21-12.25-13.56t-13.35-14.44q-6.57-7.1-12.43-13.31t-9.14-10.46q-15-18.9-15-38.57a72.22,72.22,0,0,1,9.51-35.59q4.74-11.44,15.54-22.4a142.86,142.86,0,0,1,24-19.54,145.5,145.5,0,0,1,26.51-13.81q13.34-5.24,23.22-5.23a117.63,117.63,0,0,1,21.57,1.62q8.4,1.62,13,5a17.84,17.84,0,0,1,6.4,8.46,36.9,36.9,0,0,1,1.83,12.32,19.13,19.13,0,0,1-4.39,11.7,62.67,62.67,0,0,1-10.61,10.7,124.66,124.66,0,0,1-13.16,9.21Q956.17,946.75,951,950q-7.66,4.74-14.62,8.84t-11,7.09q.36,15.68,11.33,28.87,5.49,6.48,13.72,15.93T967.32,1030q8.58,9.82,16.27,18.79T995.65,1063a145.14,145.14,0,0,0,15.91-6.59q10.43-4.86,24.32-11.7t29.8-15.31q15.9-8.44,32-17.42t31.08-17.79q15-8.83,27.06-16.8,10.23-6.72,17-11.57t11.7-8a70.34,70.34,0,0,1,8.6-4.73,19.77,19.77,0,0,1,8-1.61,12.58,12.58,0,0,1,7.86,2.36,20.56,20.56,0,0,1,4.94,5.23,21.3,21.3,0,0,1,2.56,5.35A17.38,17.38,0,0,1,1217.24,967.4Z"/><path class="cls-11" d="M1369,1089.11a51.24,51.24,0,0,1-7.13,25.51,104.46,104.46,0,0,1-18.83,23.76A161.54,161.54,0,0,1,1316,1159a217.25,217.25,0,0,1-31.81,16.18,220.52,220.52,0,0,1-32.91,10.58,135.1,135.1,0,0,1-30.72,3.85q-22.3,0-32.54-7.34a23.11,23.11,0,0,1-10.24-19.78,24.48,24.48,0,0,1,2.74-11.33,29.2,29.2,0,0,1,7.86-9.46,38.58,38.58,0,0,1,12.62-6.47,56.6,56.6,0,0,1,17-2.36h6.58a103.74,103.74,0,0,0,16.46-1.49q9.13-1.5,21.21-8.22,10.59-6,15.54-14.31t4.93-14.56a16,16,0,0,0-4-10.33,57.09,57.09,0,0,0-10.6-9.58,137.32,137.32,0,0,0-15.18-9.33q-8.6-4.6-18.1-9.33-12.43-6.48-25-13.57a175.62,175.62,0,0,1-22.85-15.18,78.64,78.64,0,0,1-16.45-17.17,33.92,33.92,0,0,1-6.22-19.54q0-10.45,5.49-21.9a109.68,109.68,0,0,1,14.8-22.65,161.09,161.09,0,0,1,21.4-21.15,198.77,198.77,0,0,1,25-17.67,138.86,138.86,0,0,1,26.15-12.2,76.23,76.23,0,0,1,24.5-4.48q18.64,0,28.33,6.22t9.69,19.91q0,6.48-4.93,13.32a82.45,82.45,0,0,1-12.43,13.44A160,160,0,0,1,1285.44,956q-9.33,6.22-18.1,11.44a120,120,0,0,1-14.45,7.72,116.17,116.17,0,0,0-12.61,6.47,59.59,59.59,0,0,0,9.5,9.08,143.77,143.77,0,0,0,12.8,9q6.95,4.36,14.08,8.34l13.35,7.47q13.52,7.47,27.42,15.68a230.23,230.23,0,0,1,25.41,17.29,98.13,98.13,0,0,1,18.83,19.17A36,36,0,0,1,1369,1089.11Z"/><path class="cls-11" d="M213.89,1321.94c0,1.53,1.28,2.52,3.85,3a87.19,87.19,0,0,1,36.82,17.19q16,12.76,16,30.31,0,27-46.66,55.49t-98.13,28.53q-14.46,0-22.65-2.78t-8.2-6.49q0-18,34.32-18,4.81,0,14.94.28t23.33-3.64a162.13,162.13,0,0,0,25.74-10.12,142.79,142.79,0,0,0,21.49-12.84,68.56,68.56,0,0,0,14.46-14.05q5.5-7.42,5.5-15,0-12.27-14.37-21.83t-38.26-9.56q-3.87,0-18.32,4.57t-18.89,4.71q-15,0-18.8-2.86t-3.76-10.12q0-4.42,32.58-14.27,27.18-8,52.73-26.1t25.54-30.67q0-8.7-9.63-13.84t-27-5.14a315.18,315.18,0,0,0-57.06,5.21q-28.35,5.21-31.14,9.77t-15.71,69.12q-12.91,64.55-12.92,74.67t.58,18.62A21.3,21.3,0,0,1,76.14,1441q-4.74,6.21-16.1,6.21-10.41,0-16.1-6.06t-5.69-15.34a25.47,25.47,0,0,1,1.74-7.42q10-30.66,18.89-78.45t8.87-55.21q0-6-2.22-8.84T55.41,1273q-3.09,0-6.07.15t-6-2.71a9.15,9.15,0,0,1-3-6.85q0-12.55,54.56-24.68a509.68,509.68,0,0,1,110.86-12.12q28.92,0,47.33,11.48t18.41,26.89q0,11.41-15.71,26.89T213.89,1321.94Z"/><path class="cls-11" d="M480.13,1234.5q1.74,1,1.74,7,0,6.13-1.74,9.27l2.51,6a198.43,198.43,0,0,0,12.53,27.68q7.71,14.55,15.23,31.24,17.16,38.37,35.76,65.69t34,38.44q9.64,7,12,9.63a8.89,8.89,0,0,1,2.41,6.2q0,6.28-5.69,10.63a21.71,21.71,0,0,1-13.59,4.35q-24.68,0-59.76-57.48-14.08-22.7-17-22.69-9.25,0-39.81,4.14t-55.81,9.7q-14.46,3.29-18.32,3.28a17.9,17.9,0,0,1-10-3.56,4.45,4.45,0,0,0-2.31-.57q-4.25,0-18.31,18.54-23.15,30.67-29.21,36.59t-13.4,5.92q-5.2,0-12.53-4.5t-7.33-9.2q0-4.56,6.94-12.33t28.34-31.32q38.17-41.79,64.4-78.45,41.44-58.35,52.63-68.83t17.16-10.49Q473.77,1229.36,480.13,1234.5Zm11.76,113.41q-6.75-11.42-19.85-41.8-14.28-32.38-18.13-39.37-10.61,16.54-32.77,46.93l-34.9,48.93q4-2.28,21.4-3.71,13.31-1,23.14-2.57Q483.42,1348.48,491.89,1347.91Z"/><path class="cls-11" d="M720.35,1347.05q10.6,5.57,46.27,26.25,37.59,21.83,57.26,31.59t28,11.49q8.39,1.71,30.56,2.85a12.28,12.28,0,0,1,.77,4.42q0,9.13-6.46,14.2t-17.45,5.06q-11.18,0-26.79-6.06t-56.88-29l-43.95-24.68q-22.56-13.26-42.23-19.54-4.82-.57-11.76,3.71-6,9-8.48,22.68t-2.5,21.25q-2.71,39.24-22,39.23-7.53,0-12-3.64a11.4,11.4,0,0,1-4.43-9.2c0-2.76.83-6.65,2.51-11.7q5.77-17.68,16-102.7,3.47-26.12,8.67-52.5t7.91-31.24a17.07,17.07,0,0,1,7.13-7.13,18.56,18.56,0,0,1,8.48-2.28q17.94,0,17.55,16.12-13.3,40.52-16.58,75.32-1.15,11-3.09,21.82a5.19,5.19,0,0,0,.1,1.07c.06.34.74.29,2-.14s5.37-2.52,12.25-6.28,14.33-8.13,22.36-13.12a184.12,184.12,0,0,0,19.18-13.34,115.65,115.65,0,0,1,11.76-8.7q23.91-15.84,35.48-25a133.36,133.36,0,0,0,21.59-21.89q14.07-18.26,20.24-18.26,6.75,0,14.08,5.35c4.88,3.56,7.32,7.11,7.32,10.62q0,13.7-58.61,51.64-12.91,8.28-16.58,11Q761.61,1320.8,720.35,1347.05Z"/><path class="cls-11" d="M1143.53,1254.61q-.58.15-10.51-.14a106.48,106.48,0,0,0-20.34,1.43,155.25,155.25,0,0,1-18.5,2.28q-5.6.28-12.15,1.14-8.29,1.14-32.78,1.28-36.82.44-46.36,3.71t-10.7,13.56a93.2,93.2,0,0,1-4.05,17.26q-9.45,28.09-9.45,37.37l2.89.14q9.06.43,36.64-1.85t41.25-4.57q28.15-5,43-5,24.09,0,24.09,9.56,0,11.7-16.09,14.33t-67.19,6.78q-62.47,5.13-66.61,9.2t-8.77,26.18q-4.64,22.11-4.63,28.24v1.57q1,7.14,12.34,8.13l3.47.14a164.11,164.11,0,0,0,25.25-1.28l37-4q20.63-2.14,41.84-5,26.4-4.12,33.54-4.13a27.11,27.11,0,0,1,12,3.35,11.13,11.13,0,0,1,6.65,10.63c0,3.52-1.15,5.94-3.47,7.27q-19.67,6.42-50.7,7.13-26.8.72-83.67,6.71-28.74,3.14-37.79,3.14-22.56,0-28.24-2.64t-6.85-12.91l-.77-4.85v-.57q0-2.28,3.47-9.28,4.82-10.12,11.28-38.51t8.38-44.93c.65-3.81,1.67-8.42,3.09-13.84q8.48-34.1,8.48-53.92,0-1-3.85-5.28a7.87,7.87,0,0,1-1.35-1.43q-1.35-3.27-2.51-5.42a8.2,8.2,0,0,1-1.35-4.71v-1.42c0-2.09,1.74-4,5.21-5.56a23.65,23.65,0,0,1,10-2.43h.58q8.1,0,18.51.86h.77q4.43,0,42.8-2.71t91.58-9.42q5.58-.71,6.74-.71l2.9-.15q15-.7,20.72,2.22t7,11.34q0,4-5,7.7T1143.53,1254.61Z"/><path class="cls-11" d="M1249.18,1237.07q56.68-6.85,82.71-6.85,40.68,0,65,14.27t24.29,35.8q0,21.54-25.74,40.58t-64.68,29.89q-4.82,1.42-4.82,3,0,2.43,39.81,25.18t73.17,38q9.43,4.27,9.45,11.27,0,4.56-6.46,9.06t-12.05,4.49q-11.38,0-36.34-14T1341.72,1397q-58-36.09-64.78-36.38-13.11-.28-18.5-2.71c-3.61-1.62-5.4-4.51-5.4-8.7q0-5.42,6.94-9.49a31.82,31.82,0,0,1,16.38-4.06q3.29,0,10.42.71a98.64,98.64,0,0,0,10.6.86q15.42,0,52.73-17t37.3-39.94q0-12.12-16.67-20.83t-42.51-8.7a374.26,374.26,0,0,0-38.56,2q-19.29,2-24.58,3.42t-8.58,7.35q-3.29,5.92-11,37.73t-12,60q-4.34,28.25-4.34,41.52a72.56,72.56,0,0,0,1.93,17.83,56.88,56.88,0,0,1,1.73,12.12q0,4.28-6.07,8.85a21.54,21.54,0,0,1-13.21,4.56q-20.23,0-20.24-24.25,0-57.2,27.18-152.21a40.52,40.52,0,0,0,1.35-5.84,5.09,5.09,0,0,0-1.35-2.57q-7.71-9-7.71-12,0-5.43,7.14-9.42t12.91-4Z"/><path class="cls-11" d="M1573.07,1339.2q-15.42-11.84-42-38.23-18.7-18.54-26.41-24.6a200.16,200.16,0,0,0-21.21-14q-17.93-10.27-22.07-14.7t-4.15-9.27q0-2.28,6-6.06t11-3.78q11.76,0,31,13.12a292.74,292.74,0,0,1,34.89,27.68q47.63,44.64,59,49.92,11.37-9.27,23.9-19,63.63-48.78,77.51-63.33,15.23-15.71,30.27-15.7a11,11,0,0,1,9.06,4.07,13,13,0,0,1,3.27,8.2q0,3.86-14.55,16.55t-77,60.77q-30.07,23.1-35.28,29.81t-10,38.94q-4.82,32.25-6.75,50.5-1.15,11.13-3.08,12.55t-8.1,2.93a44.06,44.06,0,0,1-9.83,1.5q-14.46,0-14.46-18,0-11.13,6.17-39.51,5.79-27.24,5.78-36.52A30.34,30.34,0,0,0,1573.07,1339.2Z"/><text class="cls-12" transform="translate(974.67 1582.86) scale(0.95 1)">EST. 2024</text></g></g></svg>