<svg xmlns="http://www.w3.org/2000/svg" viewBox="0 0 1853.13 1386.91"><defs><style>.cls-1{fill:#7b2c17;}.cls-2{fill:#550f0e;}.cls-3{fill:#8a4538;}.cls-4{fill:#4c2113;}.cls-5{fill:#2f190f;}</style></defs><title>Asset 15</title><g id="Layer_2" data-name="Layer 2"><g id="Layer_1-2" data-name="Layer 1"><path class="cls-1" d="M608.74,344.51S560.62,277.14,825.29,94.27c0,0,409-247.82,784.39,60.16,0,0,122.71,55.34,209.33,298.35,0,0,105.87,334.45-55.34,577.46,0,0-101.06,151.59-149.18,168.43,0,0-52.93,16.84-31.28-125.12,0,0,62.56-187.67,19.25-245.42,0,0-62.56-77-45.72,163.62,0,0-45.71,40.9-45.71-57.75,0,0,9.62-101.06-12-122.71,0,0-57.75-19.25-65,62.56,0,0-45.71,67.37-74.59-14.44l9.63-48.12S1234.33,946,1080.34,845c0,0-93.84-43.31-89-166,0,0-91.43,98.65-98.65-28.87l2.41-117.9s-31.28-43.31-84.22,0c0,0-62.55,31.28-38.49-120.3,0,0,16.84-98.65-40.91-89C731.45,322.85,647.24,383,608.74,344.51Z"/><circle class="cls-2" cx="1212.3" cy="666.92" r="178.44"/><path class="cls-3" d="M1243.35,108.71s-89.46-42.31-14.12-70.38c0,0,250.52-9,429.17,214.75,0,0,19.85,65-52.33,46.91C1606.07,300,1422,92.47,1243.35,108.71Z"/><circle class="cls-3" cx="1683.31" cy="353.51" r="35.19"/><path class="cls-4" d="M850,217s48.73-1.8,43.31,19.85S850,253.08,850,253.08,840.94,216.86,850,217Z"/><path class="cls-4" d="M937.44,253.71s13.72-46.79,32.55-34.8,1.68,46.23,1.68,46.23S934.47,262.22,937.44,253.71Z"/><path class="cls-4" d="M849.21,355.08s13.72-46.78,32.55-34.79,1.69,46.22,1.69,46.22S846.24,363.6,849.21,355.08Z"/><path class="cls-4" d="M997.78,379.18s13.72-46.79,32.54-34.8,1.69,46.23,1.69,46.23S994.81,387.69,997.78,379.18Z"/><path class="cls-4" d="M1092.48,275.76s48.7-2.36,43.53,19.35-43.12,16.74-43.12,16.74S1083.46,275.74,1092.48,275.76Z"/><path class="cls-4" d="M1161.71,152.47s48.7-2.36,43.54,19.35-43.12,16.74-43.12,16.74S1152.7,152.45,1161.71,152.47Z"/><path class="cls-4" d="M1094.88,453.68s35.55-33.37,45.7-13.49-22,40.7-22,40.7S1088,459.52,1094.88,453.68Z"/><path class="cls-4" d="M1312.18,194.68s43.72-21.58,47.64.39S1327,227.61,1327,227.61,1303.91,198.26,1312.18,194.68Z"/><path class="cls-4" d="M1274.2,324.43s48.59-4.1,44.2,17.78-42.49,18.27-42.49,18.27S1265.19,324.74,1274.2,324.43Z"/><path class="cls-4" d="M1231.87,410.75s47.76,9.78,37.38,29.54-45.93,5.52-45.93,5.52S1223.13,408.5,1231.87,410.75Z"/><path class="cls-4" d="M1223.94,264.39s12.54,47.1-5,45.68-22.18-39.27-22.18-39.27S1222,255.59,1223.94,264.39Z"/><path class="cls-4" d="M1378.58,501.2s-20.93,44-33.39,31.57,8.52-44.29,8.52-44.29S1382.77,493.21,1378.58,501.2Z"/><path class="cls-4" d="M1465.36,318.25s-48.73.88-43.14-15.82,43.44-12.12,43.44-12.12S1474.38,318.44,1465.36,318.25Z"/><path class="cls-4" d="M1430.73,439.16s-48.73.89-43.15-15.81S1431,411.23,1431,411.23,1439.75,439.35,1430.73,439.16Z"/><path class="cls-4" d="M1568.32,521.27s-48.74.88-43.15-15.82,43.44-12.12,43.44-12.12S1577.34,521.45,1568.32,521.27Z"/><path class="cls-4" d="M1497.59,558.42s-31.63,37.09-40.44,21.83,19.71-40.56,19.71-40.56S1503.71,551.79,1497.59,558.42Z"/><path class="cls-4" d="M1563.83,407.25s-47.1-12.56-37.13-27.08,45.1.31,45.1.31S1572.44,409.92,1563.83,407.25Z"/><path class="cls-4" d="M1710.51,488.31s-47.09-12.56-37.12-27.08,45.1.31,45.1.31S1719.13,491,1710.51,488.31Z"/><path class="cls-4" d="M1633.32,617.13s-33.72,35.19-41.63,19.45,22-39.35,22-39.35S1639.81,610.86,1633.32,617.13Z"/><path class="cls-4" d="M1483.56,676.81s-33.73,35.19-41.64,19.45,22-39.35,22-39.35S1490,670.54,1483.56,676.81Z"/><path class="cls-4" d="M1679.59,757.52s-57.06-14.73-45.15-32.39,54.53-.06,54.53-.06S1690,760.65,1679.59,757.52Z"/><path class="cls-4" d="M1739.5,622.66s-22.57-54.44-1.3-55.55,32.86,43.51,32.86,43.51S1743.28,632.88,1739.5,622.66Z"/><path class="cls-5" d="M84.55,504.56c18.41-.5,35.69-12.4,54.11-12.4h1.5c21.42,0,32.69,22.32,32.69,44.63,0,18.85-7.89,37.69-25.55,42.65a65.61,65.61,0,0,1-16.91,2c-12,0-24-2.47-36.45-2.47A66.35,66.35,0,0,0,80,580.43C75.53,618.12,71.39,655.31,66.51,693,62.38,708.87,53,716.31,43.59,716.31,30.81,716.31,18,703.42,18,681.6c0-3,.37-5.46.37-8.43,0-51.58-3.76-103.65-3.76-155.22,0-31.24,1.51-62,5.64-92.73a26.46,26.46,0,0,0,.38-5.46,33.19,33.19,0,0,0-1.51-10.41,46.5,46.5,0,0,1-2.25-12.9c0-7.44,3-12.89,9.39-18.84,20.29-17.85,44.34-22.32,68.39-22.32,21.42,0,42.84,3.47,63.13,5.95,15,2.48,30.06,17.36,30.06,38.19a31.32,31.32,0,0,1-.38,5.95c-4.13,25.79-16.91,33.23-32.69,33.23-22.54,0-51.85-15.38-71.39-15.38H79.29C81.16,450.51,82.67,477.29,84.55,504.56Z"/><path class="cls-5" d="M254,634a183.38,183.38,0,0,0,1.51,19.84,35.91,35.91,0,0,0,10.14,1.48c15.78,0,29.69-10.41,45.09-16.36,17.29-5.46,23.3-29.26,38.7-29.26a19.52,19.52,0,0,1,8.65,2c11.27,4,17.28,18.35,17.28,32.24,0,11.4-4.51,23.31-13.53,28.76-26.67,16.86-53,33.72-82.29,40.67-7.89,2-14.65,3.47-21.41,3.47-36.45,0-54.87-32.73-57.12-87.78-.38-11.9-.75-23.8-.75-35.7,0-52.57,4.88-104.64,18.41-155.22-4.13-8.93-5.64-16.86-5.64-23.31,0-26.28,29.31-33.72,48.1-44.13,25.18-13.89,52.61-19.34,79.66-19.34,3.76,0,7.52.49,11.27.49,20.3,1.49,30.82,22.32,30.82,43.64,0,19.84-9.4,39.67-28.56,43.15-23.67,4.46-48.47,2.47-72.15,6.94-2.25,18.84-3.75,37.19-6,56.53h2.26c9.77,0,19.54-4,29.31-5.45,3.75-1,7.51-2,10.89-2,21.42,0,34.2,22.32,34.2,43.64,0,17.85-9,35.21-29.69,39.18-3,.49-5.64,0-8.64,0-14.28,0-28.56-2.48-42.84-2.48a81,81,0,0,0-10.89.49C257.77,595.31,254,614.65,254,634Z"/><path class="cls-5" d="M472.33,589.36c-36.45-19.34-72.52-69.43-72.52-119.51a93.39,93.39,0,0,1,21-59.51c19.92-23.31,53-41.16,83.8-41.16,19.91,0,38.7,7.44,52.23,25.79,8.64,12.39,12,26.28,12,39.67,0,28.26-16.16,56-36.45,72.9-3,3-6.39,4.95-9.77,4.95-9.39,0-19.16-11.4-19.16-24.79v-2.48c.75-6.45,1.5-10.91,1.5-15.37,0-7-1.5-13.89-4.88-25.79-1.88-.5-3.39,0-4.89,0-12.4,0-22.92,6.94-31.56,19.34a17.16,17.16,0,0,0-1.88,8.43c0,8.43,4.51,17.36,7.89,24.3,20.29,37.69,57.87,52.07,75.15,93.23,6.39,14.88,9.4,28.27,9.4,40.66,0,52.57-51.48,81.83-94.32,81.83-30.81,0-57.49-14.88-57.49-47.11a81.84,81.84,0,0,1,1.5-12.9c4.14-13.88,14.28-23.3,25.93-23.3.75,0,1.5.49,2.25.49,12,2.48,24.8,5,37.2,5,13.53,0,26.68-3.47,38.33-14.38C503.14,602.25,483.23,597.79,472.33,589.36Z"/><path class="cls-5" d="M658.33,589.36c-36.45-19.34-72.52-69.43-72.52-119.51a93.39,93.39,0,0,1,21-59.51c19.92-23.31,53-41.16,83.8-41.16,19.91,0,38.7,7.44,52.23,25.79,8.64,12.39,12,26.28,12,39.67,0,28.26-16.16,56-36.45,72.9-3,3-6.39,4.95-9.77,4.95-9.39,0-19.16-11.4-19.16-24.79v-2.48c.75-6.45,1.5-10.91,1.5-15.37,0-7-1.5-13.89-4.88-25.79-1.88-.5-3.39,0-4.89,0-12.4,0-22.92,6.94-31.56,19.34a17.16,17.16,0,0,0-1.88,8.43c0,8.43,4.51,17.36,7.89,24.3,20.29,37.69,57.87,52.07,75.15,93.23,6.39,14.88,9.4,28.27,9.4,40.66,0,52.57-51.48,81.83-94.32,81.83-30.81,0-57.49-14.88-57.49-47.11a81.84,81.84,0,0,1,1.5-12.9c4.14-13.88,14.28-23.3,25.93-23.3.75,0,1.5.49,2.25.49,12,2.48,24.8,5,37.2,5,13.53,0,26.68-3.47,38.33-14.38C689.14,602.25,669.23,597.79,658.33,589.36Z"/><path class="cls-5" d="M222.7,1095.34c0,34.06-12.78,68.13-41.08,95.38-35.13,34.06-77.57,42.23-118.19,52.45a42.66,42.66,0,0,1-8.67,1.36c-24.64,0-39.7-26.57-39.7-63.35,0-4.77.46-9.54.91-14.31-8.67-12.26-11.86-28.61-12.32-47v-5.45c0-53.14-3.65-105.6-3.65-158.74,0-31.33,1.37-62,5.48-92.64.45-4.77.91-9.54.91-14.31A74.72,74.72,0,0,0,5,835.1a77.76,77.76,0,0,1-2.28-17,53.32,53.32,0,0,1,14.14-36.78c30.58-38.15,62.07-54.5,90.36-54.5,53.85,0,95.38,58.58,95.38,130.79,0,40.2-12.32,83.8-42.9,124.67C199.42,1005.42,222.7,1049.7,222.7,1095.34ZM65.26,1038.8c-1.37,17-2.74,30.65-3.65,44.28-.46,8.17-1.83,16.35-1.83,25.2a66.52,66.52,0,0,0,1.83,16.35h.91c21.45,0,62.52-15.66,75.3-40.87C116.82,1057.87,93.09,1046.29,65.26,1038.8Zm14.6-89.93c37.42-2.72,59.78-35.42,59.78-62.67,0-19.76-11.86-36.79-37.88-36.79a56.56,56.56,0,0,0-14.6,1.36C84.88,883.47,82.14,914.81,79.86,948.87Z"/><path class="cls-5" d="M480.53,1213.2c0,28.61-15.52,50.41-35.6,50.41-21,0-46.54-23.85-64.34-88.56-14.15,34.06-39.7,54.5-64.8,54.5-17.34,0-34.23-9.54-47-30.66a168.57,168.57,0,0,1-23.73-86.52c0-96,77.58-185.3,144.66-185.3,2.74,0,5.48.68,8.22.68h3.65c36.51,0,73.93,52.46,73.93,99.47,0,23.84-9.59,45.64-32.86,59.26v2c0,37.47,12.32,66.08,30.12,89.92C477.79,1190.72,480.53,1202.3,480.53,1213.2ZM384.7,1053.78a21.66,21.66,0,0,0-6.85-1.36c-22.36,0-59.78,31.34-59.78,64,0,10.9,2.74,17.71,8.21,17.71a16.71,16.71,0,0,0,5-1.36C353.21,1117.14,382,1093.3,384.7,1053.78Z"/><path class="cls-5" d="M737.9,1175.05a74.82,74.82,0,0,1,3.65,23.84c0,30.66-19.17,53.82-38.33,53.82-11,0-21.91-7.49-29.21-26.57-11.86-33.38-18.25-60-28.75-97.42-14.14,30-26,55.18-37.87,80.39-10,25.21-25.56,48.37-45.18,48.37-3.65,0-7.3-1.36-11.41-2.73-18.71-7.49-30.12-28.61-31.49-59.27-3.19-64-5-127.39-5-191.43,0-56.54,1.37-113.77,5-170.31,4.11-28.61-1.82-90.6,21.45-97.42a8.75,8.75,0,0,1,4.11-.68c8.21,0,15.06,8.18,20.53,23.85,21,79.7,21.45,166.9,28.3,250.69.45,5.45-.92,10.9,3.65,16.35C625.64,985,650.28,938,678.58,896.42c7.75-10.9,16.88-15.67,25.09-15.67,20.08,0,37.88,26.57,37.88,56.54a74.29,74.29,0,0,1-7.76,33.38c-16,30-32.4,55.86-49.74,85.84C703.22,1094.66,723.75,1132.13,737.9,1175.05Z"/><path class="cls-5" d="M1000.75,1203.66c0,22.48-8.21,45.64-24.19,53.82-13.69,6.81-28.29,9.54-43.35,9.54-66.17,0-140.55-62-160.63-153.29a219.49,219.49,0,0,1-5.93-50.41c0-104.91,79.4-181.89,149.68-181.89a89.68,89.68,0,0,1,32.85,6.13c29.67,10.22,49.29,51.09,49.29,93.33a125.49,125.49,0,0,1-8.67,46.33c-21.91,57.9-65.72,78.34-107.24,92.65,26.92,29.29,61.6,19.07,92.18,30C992.08,1156.65,1000.75,1180.5,1000.75,1203.66ZM931.84,980.21c-30.12,0-82.6,33.38-82.6,77a57.89,57.89,0,0,0,.92,8.86c31-4.09,62.06-11.58,85.79-42.92,5-5.45,11.41-19.08,11.41-29.29,0-5.46-1.37-9.54-5.48-12.27C939.14,980.21,935.49,980.21,931.84,980.21Z"/><path class="cls-5" d="M1228.46,1006.1a76.08,76.08,0,0,1-3.65,24.52c-5.93,20.44-20.08,30.66-33.77,30.66-12.32,0-24.18-8.18-31-25.89-4.1-12.26-5.93-23.84-11.86-36.11-9.13,8.18-12.32,18.4-15.06,28.62-15.52,51.09-20.08,105.59-23.73,160.77V1190c0,32-16.43,63.36-37.42,63.36-1.37,0-3.2-.68-4.57-.68-18.71-2.73-33.31-25.89-33.31-55.18v-10.22c0-40.19.46-81.07,1.83-121.26,2.28-47.69,3.65-95.38,9.58-142.38,2.74-17.72,9.58-27.25,19.17-27.25H1066c17.79.68,18.25,35.42,21.44,57.9,18.71-27.25,40.16-49.73,64.35-49.73,9.13,0,19.16,3.41,29.2,10.9C1202.91,931.84,1228.46,968,1228.46,1006.1Z"/><path class="cls-5" d="M1507.74,1109c0,35.42-1.82,71.53-4.1,106.27-5.94,102.87-50.66,167.59-123.67,171a105.1,105.1,0,0,1-14.61.68c-26.46,0-54.3-6.81-75.75-30-9.58-10.9-14.15-27.25-14.15-42.92,0-19.07,7.31-38.15,21-47,5-3.41,10-4.09,15.06-4.09,7.3,0,14.6,1.36,21.9,2.72,14.6,2.73,26.47,4.09,37,4.09,39.71,0,51.57-23.84,58-109.68-10.5,8.86-15.06,19.07-23.73,30-16.89,22.49-38.79,34.75-60.24,34.75-22.81,0-44.72-14.31-58.87-45.65-17.34-38.15-29.2-92.65-29.2-144.42,0-51.09,11.86-98.78,41.53-126.71,3.65-2.73,7.3-4.09,10.49-4.09,7.76,0,14.15,7.49,17.34,15.67,19.17,51.77,10.95,113.77,16.89,170.31.45,10.22,1.82,20.44,6.39,30,43.35-30.66,71.64-109,89.44-172.36,5.93-15.67,15.51-24.53,27.38-24.53H1468c12.32,1.37,21.45,10.9,26.47,27.94C1504.55,1002,1507.74,1055.15,1507.74,1109Z"/><path class="cls-4" d="M278.83,1369.14v-41H295a23.06,23.06,0,0,1,6.82.85,9.23,9.23,0,0,1,4.69,3.51,10.29,10.29,0,0,1,2,6.28,9,9,0,0,1-7.55,9.11,10.47,10.47,0,0,1,6.63,3.52,10,10,0,0,1,2.26,6.55,11,11,0,0,1-3.15,8q-3.15,3.24-9.7,3.23Zm7.1-23.8h9.13a5.91,5.91,0,0,0,4.43-1.66,5.71,5.71,0,0,0,1.63-4.2,4.78,4.78,0,0,0-1.86-4.17,7.26,7.26,0,0,0-4.35-1.33h-9Zm0,17.64h9.68a7,7,0,0,0,4.85-1.59,6,6,0,0,0,0-8.54,6.82,6.82,0,0,0-4.79-1.65h-9.71Z"/><path class="cls-4" d="M358.2,1369.14h-6.6a24.26,24.26,0,0,1-1.07-6.13c-1.84,4.51-5.32,6.77-10.41,6.77a10.25,10.25,0,0,1-7.38-2.66,8.87,8.87,0,0,1-2.79-6.69q0-10.47,18.6-10.46l2,0v-2.29c0-3.14-2.17-4.72-6.51-4.72s-6.62,1.58-7.19,4.72l-5.9-.87a8.84,8.84,0,0,1,3.95-6.24q3.48-2.44,10.05-2.45a23.8,23.8,0,0,1,5.82.59,8.92,8.92,0,0,1,3.8,2,7.68,7.68,0,0,1,2.15,3,18.3,18.3,0,0,1,.59,5.55V1363A22.27,22.27,0,0,0,358.2,1369.14Zm-7.67-15.45q-13.45,0-13.45,6.35a4.38,4.38,0,0,0,1.35,3.23,5.62,5.62,0,0,0,4.1,1.34,7.29,7.29,0,0,0,6-2.48,8.69,8.69,0,0,0,2-5.64Z"/><path class="cls-4" d="M409.81,1369.14H402.5l-7.85-15.57-6.82,7.55v8h-6.64v-41h6.64v25.46c.59-.76,1.05-1.33,1.4-1.71l12.18-13.08h7.46l-9.26,10Z"/><path class="cls-4" d="M449.51,1359.47l6.27.84a12.91,12.91,0,0,1-4.75,6.79,14.25,14.25,0,0,1-8.86,2.68,13.34,13.34,0,0,1-10.29-4.24q-3.9-4.24-3.89-11.49a16.77,16.77,0,0,1,3.92-11.39,13.43,13.43,0,0,1,10.66-4.51q6.57,0,10.17,4.45t3.59,11.42l0,.79H435.2a16.71,16.71,0,0,0,.6,5,6.66,6.66,0,0,0,2.35,3.24,7,7,0,0,0,4.42,1.39A6.83,6.83,0,0,0,449.51,1359.47Zm-.43-9.08a7.55,7.55,0,0,0-2-5.35,6.41,6.41,0,0,0-4.86-2.08,6.48,6.48,0,0,0-4.78,1.94,8.71,8.71,0,0,0-2.25,5.49Z"/><path class="cls-4" d="M485.19,1369.14h-6.94v-30.36h6.27V1346a12.87,12.87,0,0,1,3.69-6.19,7.42,7.42,0,0,1,4.81-2l.91,0v7.37q-5.3,0-7,3.33a14.19,14.19,0,0,0-1.72,6.47Z"/><path class="cls-4" d="M537.47,1338.78l-12,34.57a11.76,11.76,0,0,1-3,5,7.62,7.62,0,0,1-5.37,1.76q-1.36,0-4-.21v-5.45l3.32.06a5.9,5.9,0,0,0,3.24-.7,4.69,4.69,0,0,0,1.66-2.51,12,12,0,0,0,.61-2.11,13.18,13.18,0,0,0-.64-1.86l-10.56-28.5H518l7.46,20,6.43-20Z"/><path class="cls-4" d="M668.66,1344.26l6.24,1.08a29.35,29.35,0,0,1-7.4,15.51,13.86,13.86,0,0,0,3.15,2.78,5.5,5.5,0,0,0,2.42.49,15.65,15.65,0,0,0,1.83-.15v5.75l-2.89.06a11.3,11.3,0,0,1-4.65-.82,18.69,18.69,0,0,1-4.67-3.57,23.17,23.17,0,0,1-13.58,4.39q-7,0-11.34-3.72a11.55,11.55,0,0,1-4.37-9.15,11.85,11.85,0,0,1,2-6.58q2-3.13,8.77-6.07c-2.42-2.81-3.62-5.41-3.62-7.79a8,8,0,0,1,3-6.49,11.87,11.87,0,0,1,7.8-2.5,12.61,12.61,0,0,1,8,2.41,7.83,7.83,0,0,1,3.11,6.55,9.06,9.06,0,0,1-2.1,5.62,14,14,0,0,1-6,4.27l9,10.16A25.25,25.25,0,0,0,668.66,1344.26Zm-20.83,4.5q-6.21,2.77-6.21,7.7a6.54,6.54,0,0,0,2.42,5.3,9.25,9.25,0,0,0,6.11,2,14.33,14.33,0,0,0,8.55-2.91Zm3.17-6.91c3.53-1.46,5.3-3.27,5.3-5.41a3.3,3.3,0,0,0-1.28-2.74,4.79,4.79,0,0,0-3-1,5,5,0,0,0-3.09,1,3.16,3.16,0,0,0-1.32,2.63C647.59,1338.11,648.73,1340,651,1341.85Z"/><path class="cls-4" d="M766.11,1369.14h-7.49v-41h17q7.27,0,10.8,3.63a12.5,12.5,0,0,1-.29,17.66,13.76,13.76,0,0,1-9.65,3.48H766.11Zm0-22.6H775a7.56,7.56,0,0,0,5.3-1.68,5.81,5.81,0,0,0,1.83-4.48,6.08,6.08,0,0,0-1.69-4.33c-1.13-1.2-3.16-1.8-6.11-1.8h-8.19Z"/><path class="cls-4" d="M837.48,1369.14h-6.61a24.27,24.27,0,0,1-1.06-6.13q-2.77,6.77-10.42,6.77a10.27,10.27,0,0,1-7.38-2.66,8.87,8.87,0,0,1-2.78-6.69q0-10.47,18.6-10.46l2,0v-2.29c0-3.14-2.18-4.72-6.52-4.72s-6.62,1.58-7.18,4.72l-5.91-.87a8.82,8.82,0,0,1,4-6.24q3.47-2.44,10-2.45a23.74,23.74,0,0,1,5.82.59,9,9,0,0,1,3.81,2,7.65,7.65,0,0,1,2.14,3,17.91,17.91,0,0,1,.6,5.55V1363A21.9,21.9,0,0,0,837.48,1369.14Zm-7.67-15.45q-13.45,0-13.46,6.35a4.38,4.38,0,0,0,1.35,3.23,5.64,5.64,0,0,0,4.1,1.34,7.27,7.27,0,0,0,6-2.48,8.7,8.7,0,0,0,2-5.64Z"/><path class="cls-4" d="M856.72,1362.17l6.52-1.23c1,2.46,3.18,3.7,6.57,3.7,4.3,0,6.46-1.26,6.46-3.76a2.44,2.44,0,0,0-1-2,5.56,5.56,0,0,0-2.37-1.05l-5.61-1q-9.31-1.77-9.31-9a9.1,9.1,0,0,1,2.95-6.84q3-2.81,8.8-2.81,9.75,0,11.9,7.07l-6.18,1.23c-.65-2.28-2.49-3.43-5.54-3.43-3.69,0-5.54,1.15-5.54,3.43,0,1.58,1.49,2.68,4.48,3.28l6.6,1.35q7.71,1.56,7.71,8.72a8.27,8.27,0,0,1-4,7.5,17.4,17.4,0,0,1-9.41,2.48,17.89,17.89,0,0,1-8.34-1.88A9,9,0,0,1,856.72,1362.17Z"/><path class="cls-4" d="M918.62,1363.79v5.35a24.35,24.35,0,0,1-4.81.67,9.91,9.91,0,0,1-4.81-1.1,6.73,6.73,0,0,1-2.94-3,14,14,0,0,1-.93-5.87v-15.72h-3.84v-5.33h4.23l.64-7.9,5.7-.51v8.41H918v5.33h-6.18v14.81q0,2.86,1,3.9c.7.69,2,1,4,1Q917.71,1363.85,918.62,1363.79Z"/><path class="cls-4" d="M947,1369.14h-6.94v-30.36h6.27V1346a12.79,12.79,0,0,1,3.69-6.19,7.42,7.42,0,0,1,4.81-2l.91,0v7.37q-5.29,0-7,3.33a14.06,14.06,0,0,0-1.72,6.47Z"/><path class="cls-4" d="M999.27,1338.78l-12,34.57a11.76,11.76,0,0,1-3,5,7.64,7.64,0,0,1-5.37,1.76q-1.36,0-4-.21v-5.45l3.32.06a5.9,5.9,0,0,0,3.24-.7,4.75,4.75,0,0,0,1.66-2.51,12,12,0,0,0,.61-2.11,13.18,13.18,0,0,0-.64-1.86l-10.56-28.5h7.27l7.46,20,6.43-20Z"/></g></g></svg>