<svg xmlns="http://www.w3.org/2000/svg" viewBox="0 0 1864.84 1554.41"><defs><style>.cls-1{fill:#c0996b;}.cls-12,.cls-2,.cls-20,.cls-32{fill:none;}.cls-2{stroke:#4a2910;stroke-width:4px;}.cls-11,.cls-12,.cls-16,.cls-17,.cls-18,.cls-19,.cls-2,.cls-20,.cls-22,.cls-23,.cls-24,.cls-25,.cls-26,.cls-31,.cls-32,.cls-9{stroke-miterlimit:10;}.cls-3{fill:#ad5e27;}.cls-4{fill:#fec66b;}.cls-5{fill:#f8a284;}.cls-6{fill:#c35a27;}.cls-7{fill:#f9a050;}.cls-8{fill:#f68a4f;}.cls-9{fill:#bb4226;stroke-width:0.25px;}.cls-11,.cls-12,.cls-9{stroke:#231f20;}.cls-10{fill:#dd8231;}.cls-11{fill:#483d16;}.cls-13{fill:#231f20;}.cls-14{fill:#fee266;}.cls-15{fill:#fff;}.cls-16{fill:#d0b280;}.cls-16,.cls-17,.cls-18,.cls-19,.cls-20,.cls-25,.cls-26{stroke:#4f180b;}.cls-17{fill:#f9a752;}.cls-18{fill:#dc8029;}.cls-19{fill:#fec768;}.cls-21{fill:#4f180b;}.cls-22,.cls-25,.cls-27,.cls-28{fill:#f5d9a9;}.cls-22,.cls-23,.cls-24,.cls-28{stroke:#4e1a10;}.cls-23{fill:#f5ad64;}.cls-24{fill:#f6ae5e;}.cls-26{fill:#f89941;}.cls-28{stroke-linecap:round;stroke-linejoin:round;stroke-width:2px;}.cls-29{fill:#4e1a10;}.cls-30{fill:#4e1820;}.cls-31{fill:#e48c25;stroke:#671d20;}.cls-32{stroke:#6a1b1f;stroke-width:5px;}.cls-33{fill:#661f1e;}.cls-34{fill:#b56528;}</style></defs><title>PROMO KE 3</title><g id="Layer_2" data-name="Layer 2"><g id="Layer_1-2" data-name="Layer 1"><polygon class="cls-1" points="0 610.95 1721.3 215.16 1375.97 1524.73 0 610.95"/><polyline class="cls-2" points="163.57 573.34 63.75 506.03 1862.08 103.6 1506.13 1479.57 1406.52 1408.9"/><polygon class="cls-3" points="216.7 1106.72 1319.96 3.47 1794.56 1306.83 216.7 1106.72"/><polygon class="cls-4" points="535.69 1232.53 581.74 1285.66 725.18 1190.92 535.69 1232.53"/><polygon class="cls-4" points="1715.69 1396.93 1769.11 1356.79 1638.36 1308.98 1715.69 1396.93"/><polygon class="cls-4" points="1457.43 92.09 1523.84 0 1546.42 46.04 1457.43 92.09"/><path class="cls-4" d="M884.11,139s67.3-22.13,64.64-23.9,29.66,117.32,29.66,117.32Z"/><path class="cls-5" d="M1171.83,823.7l29.66-119.24c9-36.25,24.09-87.9,62.78-106.13,5.91-2.78,12.76-4.46,19.11-2.78,8,2.11,13.48,9,17.34,15.93,8.19,14.75,11.62,31.44,13.73,48,9.72,76.08-6.4,153-28.63,226.71A471.76,471.76,0,0,0,1171.83,823.7Z"/><path class="cls-6" d="M1009,683.84s73.71-28.62,133.56,30.36c0,0,45.09,49,44.66,63.74,0,0-7.37,42.06-9.54,43.36A213.42,213.42,0,0,0,1117,810.46s-70.27-4-91.93,8.68Z"/><path class="cls-7" d="M952,842.9S929.26,625,931.21,615.25c0,0-13.66-76.75,13.66-95,0,0,28.62-33.82,48.79,75.46,0,0,16.91,73.49,22.76,147.64l6.36,75S966.27,831.92,952,842.9Z"/><path class="cls-7" d="M901.64,879.25a3246,3246,0,0,1-53.51-328c-1.48-13.33-2.87-27.42.88-40.52,2.72-9.5,11-26.65,23.12-25.44,3.76.38,7,2.7,9.81,5.24,10.19,9.23,16.54,21.92,21.49,34.74,10.38,26.91,15.5,55.53,19.65,84.07,11.47,79,15.91,158.77,24.46,238.1Z"/><path class="cls-8" d="M901.93,877.22h0L885.6,768.74c-.58-3.85-1.18-7.75-2.76-11.31-1.86-4.17-5-7.65-8.32-10.8-15.59-14.74-35.91-23.28-55.92-31.07-28.4-11-57.4-21.28-87.57-25.62-11.6-1.67-23.59-2.45-34.93.53-37.29,9.79-49,61.63-43.39,94.59,4.33,25.52,17.21,49,33.79,68.92,2.26,2.71,4.72,5.46,8,6.73,5.34,2.07,11.4-.3,16.1-3.58s8.8-7.51,14-9.86c7.38-3.31,16.1-2.36,23.57.74s13.94,8.13,20.3,13.12c6.05-9.73,20.18-10,31.18-6.86a80.91,80.91,0,0,1,25.52,12.64c16.31,12.09,28.62,30.62,48,36.76A108.77,108.77,0,0,1,901.93,877.22Z"/><path class="cls-9" d="M679.53,917c-6.4-2.07-13.39-1.53-20.13-1.31-7.65.26-15.83-.12-22.08-4.89-28.6-21.84,38.57-54.14,52.76-57.23,7.17-1.57,14.51-2.28,21.5-4.61,8.1-2.71,15.52-7.55,23.73-9.84,15.92-4.43,34,2,44.36,15.78,6.31-12.41,22.8-14.84,34.74-9s20.41,17.47,28.45,28.65,16.69,22.75,28.78,28.19a89.25,89.25,0,0,0-19.54,54.39,101.6,101.6,0,0,0-50.62,7.63c-9.05,3.87-18.4,9.17-28,7.28-14.82-2.92-23.66-21.83-38.57-24.23-5.47-.88-11.11.65-16.57-.37-15.12-2.84-22.13-23-36.29-29.43A25.84,25.84,0,0,0,679.53,917Z"/><path class="cls-10" d="M1282.67,889.1s36.86-178.23,30.79-195.14c0,0,89.33-29.05,132.25,58.11s10.41,168.25,10.41,168.25-15.18,46.83-36.86,65.91h-55.5S1375.9,970.62,1282.67,889.1Z"/><path class="cls-11" d="M1297.83,902.6l144.42-138.39s22.11-15.61,35.12-2.6l29.49,32.09s10.84,16.48-6.51,32.95L1358.57,968.88S1320.35,917,1297.83,902.6Z"/><path class="cls-11" d="M1479.63,764c-.13-2.89,2.67-5.26,7.16-10.46l34.57-40.08c8.12-9.42,18.44-19.73,30.77-18.12A13.89,13.89,0,0,1,1559,698c5.31,4.2,5.52,12.35,3.27,18.74-2.86,8.16-8.7,14.87-14.42,21.36l-46.14,52.41q-8.48-9.22-17-18.45C1481.27,768.34,1479.72,766,1479.63,764Z"/><path class="cls-12" d="M724.37,845.55S689.09,901.37,689.76,926"/><path class="cls-12" d="M785.46,849.69S742.07,931.5,737.38,951.2"/><path class="cls-12" d="M844.48,878.88S842.06,919.3,830.59,937c0,0-9.1,20.78-17.14,26"/><path class="cls-13" d="M761.4,723.4c-2.48,8.12-5.39,16.1-8.52,24s-6.59,15.66-10.32,23.3A217.06,217.06,0,0,1,730,792.89a101.74,101.74,0,0,1-16.16,19.64,90.36,90.36,0,0,0,8.31-9.6c2.57-3.36,5-6.86,7.2-10.45a239.22,239.22,0,0,0,12.3-22.22c3.79-7.58,7.22-15.34,10.5-23.15q2.48-5.86,4.76-11.8C758.49,731.37,760,727.39,761.4,723.4Z"/><path class="cls-13" d="M811.33,742.85c-3.52,8-7.26,16-11.11,23.89s-7.86,15.71-12,23.47q-3.13,5.79-6.41,11.51c-2.2,3.81-4.41,7.61-6.78,11.31s-4.79,7.38-7.41,10.91c-1.33,1.75-2.7,3.48-4.16,5.13a32.43,32.43,0,0,1-4.77,4.53,52.68,52.68,0,0,0,8.53-10c2.53-3.57,4.88-7.28,7.15-11,4.55-7.49,8.84-15.15,13-22.89s8.2-15.51,12.19-23.33q3-5.86,5.92-11.76Z"/><path class="cls-13" d="M852.17,773.64c-2.21,6.69-4.66,13.3-7.19,19.88s-5.26,13.08-8.07,19.54-5.88,12.83-9.26,19c-1.7,3.1-3.5,6.14-5.49,9.06a51,51,0,0,1-3.24,4.2,14.75,14.75,0,0,1-4,3.39c3-1.92,5-5,6.87-7.86s3.61-6,5.22-9.15c3.23-6.24,6.21-12.61,9-19.06s5.58-12.92,8.27-19.43q2-4.87,4-9.78Z"/><path class="cls-13" d="M883,823.88a88.55,88.55,0,0,1-9.16,28.37,57.33,57.33,0,0,1-8.7,12.21,44.25,44.25,0,0,1-5.66,4.93,36.08,36.08,0,0,1-6.56,3.6,41.61,41.61,0,0,0,6.27-4,45.27,45.27,0,0,0,5.39-5.06,60.26,60.26,0,0,0,8.38-12.17,93.71,93.71,0,0,0,5.94-13.58c.84-2.33,1.59-4.7,2.26-7.09S882.42,826.31,883,823.88Z"/><path class="cls-13" d="M889.7,624.87a60.19,60.19,0,0,1,4.66-5.18,65.5,65.5,0,0,1,5.15-4.7,44.9,44.9,0,0,1,5.71-4,19.26,19.26,0,0,1,6.45-2.65l-1.6.66-1.53.81a33.7,33.7,0,0,0-2.91,1.82c-1.88,1.31-3.72,2.7-5.48,4.17s-3.53,3-5.27,4.48Z"/><path class="cls-13" d="M897.07,665a61.9,61.9,0,0,1,4.66-5.18,67.48,67.48,0,0,1,5.16-4.7,44.79,44.79,0,0,1,5.7-4,19.35,19.35,0,0,1,6.45-2.65c-.53.23-1.07.45-1.6.66l-1.52.81a33.87,33.87,0,0,0-2.92,1.82q-2.82,2-5.48,4.17c-1.79,1.45-3.53,3-5.26,4.48Z"/><path class="cls-13" d="M908.06,715.26a49.76,49.76,0,0,1,7.34-8.41,35.23,35.23,0,0,1,4.4-3.48,13.94,13.94,0,0,1,5.11-2.29,20.74,20.74,0,0,0-4.65,2.93c-1.44,1.13-2.84,2.32-4.18,3.58C913.36,710.07,910.76,712.69,908.06,715.26Z"/><path class="cls-13" d="M905.23,781.33a84.74,84.74,0,0,1,5.27-7c1.85-2.25,3.84-4.38,5.89-6.46a58.45,58.45,0,0,1,6.61-5.75,43,43,0,0,1,3.67-2.41l2-1c.69-.26,1.39-.46,2.08-.68l-2,.92-1.84,1.13-1.76,1.25c-.59.42-1.13.91-1.69,1.35-2.21,1.85-4.34,3.79-6.37,5.85s-4.05,4.14-6,6.26q-1.49,1.59-2.93,3.21Z"/><path class="cls-13" d="M914,833.56a54.08,54.08,0,0,1,4.06-5,63.14,63.14,0,0,1,4.56-4.55,40.83,40.83,0,0,1,5.1-3.95,16.88,16.88,0,0,1,5.87-2.63l-1.45.66-1.38.8a30.84,30.84,0,0,0-2.6,1.8c-1.67,1.29-3.31,2.64-4.87,4.07s-3.13,2.87-4.68,4.33Z"/><path class="cls-13" d="M947.54,616.58a48.87,48.87,0,0,1,5.93-5.48,58.71,58.71,0,0,1,6.66-4.59,48.14,48.14,0,0,1,7.32-3.49,34.82,34.82,0,0,1,7.84-1.92c-1.28.42-2.59.68-3.83,1.2s-2.5.92-3.73,1.44a69.67,69.67,0,0,0-7.09,3.64c-2.3,1.34-4.53,2.8-6.71,4.33-1.1.77-2.17,1.56-3.23,2.38S948.59,615.73,947.54,616.58Z"/><path class="cls-13" d="M954.33,660.59a48.87,48.87,0,0,1,5.93-5.48,57.37,57.37,0,0,1,6.66-4.58,46.31,46.31,0,0,1,7.32-3.49,34.31,34.31,0,0,1,7.84-1.93c-1.28.42-2.59.68-3.83,1.2s-2.5.92-3.73,1.44a69.67,69.67,0,0,0-7.09,3.64c-2.3,1.34-4.53,2.81-6.72,4.33-1.09.77-2.16,1.56-3.22,2.38S955.38,659.75,954.33,660.59Z"/><path class="cls-13" d="M954.33,715.26a131.58,131.58,0,0,1,8.27-10.56c2.92-3.39,6-6.63,9.21-9.78a128.86,128.86,0,0,1,10.2-8.75,71.67,71.67,0,0,1,11.41-7c-1.88,1.22-3.82,2.32-5.6,3.66s-3.58,2.65-5.34,4c-3.45,2.82-6.79,5.76-10,8.86s-6.3,6.3-9.33,9.57q-2.28,2.44-4.47,5C957.21,711.84,955.77,713.55,954.33,715.26Z"/><path class="cls-13" d="M959.39,749.11a55.27,55.27,0,0,1,6.4-7.53,64.18,64.18,0,0,1,7.55-6.42,51.69,51.69,0,0,1,8.54-5,41.9,41.9,0,0,1,9.38-3.14c-.77.29-1.55.57-2.32.84l-1.16.41-1.12.5c-.75.33-1.51.62-2.25,1l-2.18,1.11a67.66,67.66,0,0,0-8.3,5.17,89.92,89.92,0,0,0-7.61,6.17c-1.21,1.1-2.4,2.22-3.55,3.4S960.49,747.89,959.39,749.11Z"/><path class="cls-13" d="M973.88,798.81c2.09-2.53,4.34-4.92,6.63-7.27s4.7-4.58,7.17-6.76a83.23,83.23,0,0,1,7.78-6.07c.69-.45,1.36-.92,2.07-1.35l2.13-1.25,2.24-1.06c.76-.31,1.55-.55,2.32-.82-.74.37-1.48.69-2.21,1.06l-2.1,1.24-2,1.36c-.67.46-1.31,1-2,1.45-2.58,2-5.12,4-7.56,6.2s-4.88,4.34-7.29,6.55Z"/><path class="cls-13" d="M1027.77,749.1a145.14,145.14,0,0,1,11.13-14,146.86,146.86,0,0,1,12.74-12.58,89.51,89.51,0,0,1,14.64-10.33,41.31,41.31,0,0,1,17-5.41,37.34,37.34,0,0,0-8.59,2.24,50.53,50.53,0,0,0-8,3.85,93.88,93.88,0,0,0-14.37,10.41,160.55,160.55,0,0,0-12.82,12.34q-3.08,3.23-6,6.61T1027.77,749.1Z"/><path class="cls-13" d="M1042.65,796.59a217.5,217.5,0,0,1,15.67-20,212.08,212.08,0,0,1,17.87-18.11,128.2,128.2,0,0,1,20.55-15c7.36-4.19,15.47-7.43,24-8.09a51.34,51.34,0,0,0-12.23,3.18,72.68,72.68,0,0,0-11.34,5.57,123.26,123.26,0,0,0-10.49,7.06c-3.36,2.55-6.62,5.24-9.77,8a229.53,229.53,0,0,0-18,17.87c-2.85,3.12-5.62,6.32-8.32,9.57S1045.2,793.21,1042.65,796.59Z"/><path class="cls-13" d="M1103.57,800.93a77.46,77.46,0,0,1,6.66-8.55,78.33,78.33,0,0,1,7.73-7.62,49.77,49.77,0,0,1,9-6.2,24.52,24.52,0,0,1,10.35-3.12,23,23,0,0,0-5.18,1.44,30.91,30.91,0,0,0-4.8,2.35,62.19,62.19,0,0,0-8.67,6.29c-2.73,2.31-5.31,4.81-7.82,7.38q-1.87,1.94-3.67,4C1105.9,798.18,1104.73,799.55,1103.57,800.93Z"/><path class="cls-13" d="M1333.73,758.33c5.19-1.07,10.41-1.92,15.64-2.67s10.5-1.33,15.77-1.82,10.58-.71,15.88-.61a68.08,68.08,0,0,1,7.94.59,32.63,32.63,0,0,1,3.9.84,10.16,10.16,0,0,1,3.54,1.77c-2.21-1.49-4.91-1.85-7.5-2.12A69.12,69.12,0,0,0,1381,754c-5.27.06-10.54.37-15.79.84s-10.51,1-15.76,1.58c-2.62.29-5.25.6-7.87.93Z"/><path class="cls-13" d="M1317.34,804c5.18-1.07,10.4-1.92,15.64-2.67s10.5-1.33,15.77-1.82,10.57-.71,15.88-.61a68.25,68.25,0,0,1,7.94.59,32.44,32.44,0,0,1,3.89.83,10.14,10.14,0,0,1,3.55,1.78c-2.22-1.49-4.91-1.85-7.51-2.12a66.81,66.81,0,0,0-7.88-.31c-5.26.06-10.53.36-15.79.84s-10.51,1-15.75,1.58q-3.94.43-7.87.93Z"/><path class="cls-13" d="M1301.07,855.22c3.11-.58,6.21-1.08,9.32-1.6l9.31-1.54c3.1-.51,6.2-1,9.28-1.63.78-.13,1.54-.31,2.31-.47s1.54-.33,2.29-.53l1.15-.27,1.12-.34a16.38,16.38,0,0,0,2.21-.83c-2.73,1.65-5.87,2.39-8.91,3.19s-6.18,1.33-9.29,1.87-6.23,1-9.36,1.31S1304.22,855.05,1301.07,855.22Z"/><path class="cls-14" d="M817.41,959.41c1.25-17.77,22-37.17,32.45-49.06a280.06,280.06,0,0,1,51.53-45.46C939.64,838.55,984,820.74,1030,811.57c35-7,71.39-9.22,106.52-2.83,52.43,9.52,99.4,37.68,140.3,70.74a574.29,574.29,0,0,1,94.57,96.94c1.94,2.53,3.94,5.3,4,8.45.15,5.92-6.21,9.85-11.94,12-17.33,6.34-36.19,7.37-54.71,7.89-39.82,1.13-79.68.26-119.51-.61l-283-6.18c-24.39-.53-49.93-1.36-71.15-13-7.21-3.95-14-9.51-16.61-17.12A21,21,0,0,1,817.41,959.41Z"/><path class="cls-13" d="M947,893.58c5.38-7.88,11-15.58,16.78-23.18s11.73-15.06,17.84-22.39,12.51-14.44,19.29-21.17c3.41-3.34,6.91-6.61,10.62-9.62a70.26,70.26,0,0,1,5.79-4.23l1.51-1,1.58-.86a29.8,29.8,0,0,1,3.26-1.47,48.71,48.71,0,0,0-11.83,7.9c-3.63,3.07-7.05,6.38-10.38,9.79-6.65,6.81-13,14-19.07,21.26s-12.12,14.72-18,22.22q-4.42,5.61-8.76,11.31C952.74,886,949.88,889.76,947,893.58Z"/><path class="cls-13" d="M1024,896.1c5.19-8.35,10.62-16.55,16.17-24.67s11.3-16.09,17.19-24c3-3.92,6-7.81,9.09-11.63s6.21-7.63,9.51-11.28,6.67-7.26,10.26-10.63c1.81-1.66,3.67-3.29,5.63-4.78a33.37,33.37,0,0,1,6.25-3.9,52.08,52.08,0,0,0-11.54,9c-3.51,3.43-6.81,7.06-10,10.77-6.41,7.44-12.49,15.15-18.38,23s-11.68,15.79-17.36,23.8q-4.27,6-8.45,12.08C1029.55,888,1026.78,892,1024,896.1Z"/><path class="cls-13" d="M1104,898.71c3.79-7.49,7.86-14.84,12.06-22.11s8.63-14.41,13.22-21.45a246.48,246.48,0,0,1,14.87-20.36,100.16,100.16,0,0,1,8.59-9.24,42.52,42.52,0,0,1,4.93-4,16.54,16.54,0,0,1,5.68-2.67,17.49,17.49,0,0,0-5.53,2.88,43,43,0,0,0-4.74,4.1,102.85,102.85,0,0,0-8.33,9.37c-5.22,6.55-10,13.42-14.63,20.43s-9.06,14.12-13.4,21.29c-2.18,3.59-4.31,7.2-6.42,10.82S1106.07,895.07,1104,898.71Z"/><path class="cls-13" d="M1181.2,908.17c3.39-4.8,6.92-9.48,10.51-14.13s7.3-9.19,11-13.72,7.66-8.91,11.73-13.15c2-2.11,4.14-4.18,6.33-6.15,1.1-1,2.24-1.91,3.43-2.78a12.55,12.55,0,0,1,3.87-2.1,13.59,13.59,0,0,0-3.71,2.31c-1.13.92-2.21,1.91-3.25,2.93-2.12,2-4.13,4.15-6.11,6.31q-5.91,6.51-11.52,13.27c-3.8,4.47-7.5,9-11.21,13.56Z"/><path class="cls-13" d="M1244.58,698.12a103.12,103.12,0,0,0,10.39-5.25,115.05,115.05,0,0,0,9.81-6.22c3.18-2.21,6.27-4.55,9.23-7s5.82-5.13,8.66-7.79c-1.28,1.46-2.57,2.93-3.93,4.33s-2.76,2.75-4.23,4a100.61,100.61,0,0,1-9.16,7.29,97.32,97.32,0,0,1-10,6.07A65.26,65.26,0,0,1,1244.58,698.12Z"/><path class="cls-13" d="M1228.75,731.57q3.36-.8,6.63-1.86c2.19-.69,4.37-1.42,6.5-2.25A135.43,135.43,0,0,0,1254.5,722c4.12-2,8.17-4.16,12.08-6.56s7.74-4.92,11.54-7.52l-2.69,2.16c-.91.7-1.79,1.45-2.74,2.11-1.88,1.32-3.74,2.69-5.7,3.91-1,.62-1.93,1.26-2.93,1.84l-3,1.72c-1,.59-2,1.12-3,1.65s-2,1.1-3.08,1.59a115.78,115.78,0,0,1-12.8,5.25A76.61,76.61,0,0,1,1228.75,731.57Z"/><path class="cls-13" d="M1219.11,775.18c3-.45,6-1,8.93-1.73s5.89-1.41,8.79-2.27a179.07,179.07,0,0,0,17.18-5.85c5.62-2.22,11.18-4.64,16.56-7.41s10.67-5.74,15.9-8.82l-3.79,2.53c-1.27.82-2.51,1.7-3.83,2.46-2.62,1.53-5.22,3.13-7.92,4.51-1.35.71-2.68,1.45-4,2.11l-4.12,1.95c-1.37.67-2.78,1.25-4.17,1.85s-2.79,1.23-4.22,1.75l-4.27,1.61-4.32,1.47c-1.43.5-2.9.9-4.35,1.36s-2.93.84-4.4,1.22A109.22,109.22,0,0,1,1219.11,775.18Z"/><path class="cls-13" d="M1216.42,818.78a114.16,114.16,0,0,0,12.32-2.58c4-1.09,8.07-2.26,12-3.74s7.83-3,11.63-4.73,7.53-3.69,11.26-5.66c-1.77,1.14-3.53,2.3-5.35,3.36s-3.67,2.08-5.58,3a108.44,108.44,0,0,1-11.63,5,106.86,106.86,0,0,1-12.15,3.54A73.49,73.49,0,0,1,1216.42,818.78Z"/><path class="cls-15" d="M627.12,932l4-40,60.25-71c19.45-23.23,25.94-39.62,25.94-66.6,0-20.49-7.53-33.13-19.67-33.13-14.22,0-23.85,18.1-25.1,46.79H639.67c3.77-57.72,27-93.58,60.67-93.58,31.17,0,51,30,51,77.53,0,38.93-14.23,74.11-42.89,106.22L688,881.42h51.88L735.07,932Z"/><path class="cls-15" d="M754.1,849.32h32.43c0,24.93,8.16,39.61,21.76,39.61,14.85,0,25.1-17.75,25.1-43.71,0-25.62-8.79-42.7-21.76-42.7-9.83,0-17.78,7.18-23.43,21.52l-29.08-9.56,32.22-135.25h82l-4.82,49.86H810L800.34,767c5.64-6.14,12.34-8.87,20.71-8.87,28.24,0,47.07,32.78,47.07,82.31,0,55.33-25.11,96-59.42,96C774.81,936.41,754.1,903.62,754.1,849.32Z"/><path class="cls-15" d="M927.94,808.33c-24.47,0-38.7-22.54-38.7-61.48,0-39.27,20.09-72.4,44.14-72.4,24.48,0,38.92,22.54,38.92,61.47C972.3,775.2,952,808.33,927.94,808.33ZM926.69,932H894.05l137.66-252.74h32.63Zm5.86-220.64c-10.46,0-18.62,14.69-18.62,33.82,0,17.41,5,26.29,14.85,26.29,10.46,0,18.83-15,18.83-33.47C947.61,720.55,942.38,711.33,932.55,711.33ZM1025,936.41c-24.47,0-38.7-22.54-38.7-61.48,0-39.27,20.08-72.41,44.14-72.41,24.48,0,38.91,22.55,38.91,61.48C1069.36,903.28,1049.07,936.41,1025,936.41Zm4.61-97c-10.46,0-18.62,14.69-18.62,33.81,0,17.42,5,26.3,14.85,26.3,10.46,0,18.83-15,18.83-33.47C1044.68,848.63,1039.45,839.41,1029.62,839.41Z"/><path class="cls-15" d="M1209.73,936.07c-40.38,0-67.36-44.75-67.36-110.66,0-84.7,35.35-150.28,82.63-150.28,40.38,0,67.57,45.08,67.57,111C1292.57,870.83,1257,936.07,1209.73,936.07Zm12.34-209c-25.73,0-44.77,40.31-44.77,92.56,0,40,13.18,64.21,35.57,64.21,25.73,0,44.77-40.3,44.77-92.22C1257.64,751,1244.67,727,1222.07,727Z"/><path class="cls-15" d="M1320.6,761.2l1.46-14.35c4.61-47.47,21.34-72.4,48.54-72.4a50.47,50.47,0,0,1,13.81,2l-4.19,43.71h-8.78c-10.88,0-17,8.2-18.62,26.64l-1.47,14.35h38.29l1.46-14.35c4.6-47.47,21.34-72.4,48.53-72.4a50.36,50.36,0,0,1,13.81,2l-4.18,43.71h-8.79c-10.88,0-16.94,8.2-18.62,26.64l-1.46,14.35h24.89l-4.18,42.35h-24.69L1404.07,932h-31l12.55-128.42h-38.28L1335,932h-31l12.56-128.42h-14.44l4.18-42.35Z"/><path class="cls-15" d="M1504.69,910.79c0-19.12,9.83-35.17,21.76-35.17,9.83,0,16.1,10.24,16.1,26,0,18.79-10.25,34.84-22,34.84C1510.76,936.41,1504.69,926.5,1504.69,910.79Zm10.88-54.3c-.63-28,1.88-76.51,6.06-119.88l5.44-57.38h37.45l-5.44,57.38c-4.18,43.37-11.51,92.21-18,119.88Z"/><path class="cls-16" d="M232,584.31s-36.87,20.2-27.52,47.29c0,0,13.86,16.23,13.6,19.46,0,0,4.66,7.8,10,5.78,0,0-3.88,9.83,2.67,15.93L242,686.06s10.41,19.51,10.15,22.73L268,731s6,12.91,6.08,17.1c0,0-2.16,29.16,20.68,29.2l23-3.67s-1.06-22.93,11.26-39.8c0,0,21.09-25.6,21.39-32.88,0,0-50.23,4.86-59.6-15.2,0,0-16.47-26.83,1.79-58,0,0,28.63-35.72,28.91-41L303.5,565.61s-2.29-4.05-4.76-3.62c0,0-4.08-3.11-7.73-3.67s-12.46,3.71-16.59,2.39c0,0-6.65,6.1-12.9,7.09,0,0-11.14,9.12-20.58,8.5C240.94,576.3,234.1,584.2,232,584.31Z"/><path class="cls-17" d="M284.74,661.76S282,634,308,607.83c0,0,15.09-19.89,14.29-21.72,0,0,9.86-20.64,31.73-20.27,0,0,27.44,5.25,36.23-9.11,0,0,11.57-10.71,27.93-7.8,0,0,13.8,4.42,19.33,7.38,0,0,4.91-.22,5.55-2.35,0,0,5.51-7.26,12.79-8.13,0,0,10.3-.33,17.07,5.25,0,0,6.22,3.6,9.84-1.25,0,0,32.37-9.34,54.53-9.22,0,0,42.8-4.46,71.58,11.06,0,0,16.15,7.76,24,25.4,0,0,7.22,18.15,3.73,26.39,0,0-6.29,23.16-24.31,34,0,0-43.81,32.64-53.69,34.56,0,0-25.84,15.13-42.28,14.47,0,0-32.8,1.1-39,4.76,0,0-39.2,12.59-50.87,9.69,0,0-56.52-3.2-58.19-1.44l-26.27,2.89s-42.9,5.81-54.26-23.34C287.63,679.09,282.45,666,284.74,661.76Z"/><path class="cls-18" d="M349.38,701.84s-13,27.67-19.54,31.46c0,0-15.17,23-12,34.59,0,0-10.27,49.61,30,57.1,0,0,25.42,3.36,47.84-17,0,0,36.6-28.75,47.07-41.44l19.13-18.09a351,351,0,0,1,26.33-30.5s15.05-12.6,17.42-18.64l8.07-13.15s-27.66-.69-33.1,3.21c0,0-24.47,9.2-37.62,9.06,0,0-50,1.56-52.28-1C390.64,697.43,353.21,697.82,349.38,701.84Z"/><path class="cls-19" d="M381.36,565s1.09-25.57,9.28-34.9c0,0,7.56-15.93,16.47-23.75,0,0,20.9-18.18,47.44-26.81a52,52,0,0,1,27.4-6.86c16.09.46,20.61,7.3,20.61,7.3s22,10.12,24.72,8.62c0,0,18.67,4.12,26.88,24.95,0,0,6.71,23.39,3.64,28,0,0-54.85,1.5-61.77,5.52,0,0-10.35,1.77-16.31,5.35,0,0-5.44,3.81-9.7-1.57,0,0-14.75-11.47-28.38,3.62,0,0-2.88,6.14-12.6-.94,0,0-22.38-7.23-29.82-2,0,0-12.31,6.42-15.17,10.7Z"/><path class="cls-20" d="M208.27,621.85a8.9,8.9,0,0,1,7.57-1.7s16.29.87,17.25-4.46"/><path class="cls-20" d="M243.47,611.34c1.1-.69,24.35-7.51,35.37-16.91,0,0,18.48-11.52,20.33-19.62,0,0,2-9-.38-12.87"/><path class="cls-20" d="M293.53,561.16s-4.39,6.59-15.33,5.91l-14.27.08"/><path class="cls-20" d="M218,620.2s2.49-14.83,9.2-19.3"/><line class="cls-20" x1="229.66" y1="596.41" x2="233.67" y2="583.46"/><path class="cls-21" d="M231.79,649.38a38.54,38.54,0,0,1-3.46-3.3,41.74,41.74,0,0,1-3.11-3.66,24.84,24.84,0,0,1-2.55-4.12,7.52,7.52,0,0,1-.87-4.92v.26c-.49-1.37-1-2.77-1.56-4.12-.29-.67-.58-1.35-.91-2a6.36,6.36,0,0,0-.57-.94,2.22,2.22,0,0,0-.36-.39.41.41,0,0,0-.49-.09.47.47,0,0,1,.54,0,1.94,1.94,0,0,1,.45.35,8.65,8.65,0,0,1,.71.89,16.24,16.24,0,0,1,1.15,1.92c.68,1.33,1.32,2.68,1.87,4.07l0,.11,0,.15a7.23,7.23,0,0,0,.92,4.27,30.4,30.4,0,0,0,2.39,4c.9,1.28,1.83,2.57,2.81,3.8S230.75,648.17,231.79,649.38Z"/><path class="cls-21" d="M245.29,659.91a66.2,66.2,0,0,1,5,4.62c.79.83,1.54,1.69,2.25,2.59a13.9,13.9,0,0,1,1.88,2.94h0v0c1,3.68,2,7.38,3.1,11,.57,1.82,1.11,3.65,1.72,5.45.3.9.62,1.8,1,2.66.18.44.37.87.58,1.27a3.23,3.23,0,0,0,.65.94l.12.08,0,0c1.91,2.25,3.74,4.57,5.62,6.85s3.69,4.61,5.5,7q-3-3.25-5.95-6.57c-1.94-2.23-3.93-4.42-5.84-6.67l.15.11a1.9,1.9,0,0,1-.67-.65,5.81,5.81,0,0,1-.4-.66,14.6,14.6,0,0,1-.63-1.33c-.38-.9-.72-1.8-1-2.71-.64-1.81-1.23-3.64-1.75-5.49s-1-3.69-1.52-5.54-1-3.7-1.39-5.58l0,.06a13.28,13.28,0,0,0-1.67-2.85c-.66-.91-1.37-1.79-2.11-2.64C248.48,663.14,246.89,661.51,245.29,659.91Z"/><path class="cls-21" d="M277.94,711.47c1.18,2.57,2.27,5.18,3.34,7.8.52,1.31,1,2.63,1.5,4a31.72,31.72,0,0,1,1.22,4.12h0v0a88.11,88.11,0,0,0,1.47,12.45,40.59,40.59,0,0,0,1.65,6,13.3,13.3,0,0,0,3,5.22l0,0,0,0q2.07,2.73,4.25,5.37c1.44,1.77,2.89,3.53,4.42,5.22a39.69,39.69,0,0,0,4.88,4.74,30.38,30.38,0,0,0,3,1.67l3,1.62-3.13-1.43a31.78,31.78,0,0,1-3.1-1.53,35.24,35.24,0,0,1-5.13-4.62,133,133,0,0,1-8.92-10.48l0,.06a14.25,14.25,0,0,1-3.34-5.55,37.93,37.93,0,0,1-1.64-6.17,76.4,76.4,0,0,1-1.3-12.62v.05a28.18,28.18,0,0,0-1.06-4c-.43-1.35-.9-2.68-1.36-4C279.91,716.76,278.92,714.12,277.94,711.47Z"/><path class="cls-21" d="M234.22,655.07c2.52-1,5-1.94,7.55-2.94s5-2,7.52-3c5-2,10-4.07,14.91-6.29,2.48-1.06,4.92-2.2,7.37-3.31s4.86-2.34,7.25-3.58,4.76-2.52,7.09-3.87l3.46-2.09,3.33-2.3a80.75,80.75,0,0,1-13.52,8.94c-4.74,2.62-9.65,4.92-14.58,7.12s-10,4.22-15,6.09S239.4,653.52,234.22,655.07Z"/><path class="cls-21" d="M232.71,622.86a14.69,14.69,0,0,1,2.88-1.75,14,14,0,0,1,3.16-1.15,8,8,0,0,1-2.73,2A8.11,8.11,0,0,1,232.71,622.86Z"/><path class="cls-21" d="M234.58,626.22a14.62,14.62,0,0,1,2.87-1.75,14.22,14.22,0,0,1,3.17-1.15,8.75,8.75,0,0,1-6,2.9Z"/><path class="cls-21" d="M235.73,631.93a15.24,15.24,0,0,1,2.88-1.76,14.46,14.46,0,0,1,3.16-1.15,8.82,8.82,0,0,1-6,2.91Z"/><path class="cls-21" d="M239,635.79a15.19,15.19,0,0,1,2.88-1.75,14.46,14.46,0,0,1,3.16-1.15,7.89,7.89,0,0,1-2.73,2.05A7.81,7.81,0,0,1,239,635.79Z"/><path class="cls-21" d="M241.15,640.67a15.19,15.19,0,0,1,2.88-1.75,14.46,14.46,0,0,1,3.16-1.15,7.89,7.89,0,0,1-2.73,2.05A7.81,7.81,0,0,1,241.15,640.67Z"/><path class="cls-21" d="M243.91,643.35a14.81,14.81,0,0,1,2.87-1.75,14.55,14.55,0,0,1,3.17-1.15,7.93,7.93,0,0,1-2.74,2A7.73,7.73,0,0,1,243.91,643.35Z"/><path class="cls-21" d="M252.09,658.44a15,15,0,0,1,2.26-2.49,14.26,14.26,0,0,1,2.72-2,8,8,0,0,1-2,2.74A7.85,7.85,0,0,1,252.09,658.44Z"/><path class="cls-21" d="M255.15,663.5a14.69,14.69,0,0,1,2.27-2.49,14.19,14.19,0,0,1,2.71-2,8,8,0,0,1-2,2.74A8.1,8.1,0,0,1,255.15,663.5Z"/><path class="cls-21" d="M261.92,676a11.09,11.09,0,0,1,2-2.12,11.21,11.21,0,0,1,2.46-1.6,6.13,6.13,0,0,1-1.82,2.37A6.21,6.21,0,0,1,261.92,676Z"/><path class="cls-21" d="M257.78,667.52a11.09,11.09,0,0,1,2-2.12,11.21,11.21,0,0,1,2.46-1.6,6.79,6.79,0,0,1-4.49,3.72Z"/><path class="cls-21" d="M297.5,728.05a18.92,18.92,0,0,1,2.36-2.85,17.82,17.82,0,0,1,2.83-2.38,9.67,9.67,0,0,1-2.12,3.09A9.53,9.53,0,0,1,297.5,728.05Z"/><path class="cls-21" d="M301,731.28a18.25,18.25,0,0,1,2.36-2.84,16.82,16.82,0,0,1,2.83-2.38,9.63,9.63,0,0,1-2.12,3.08A9.38,9.38,0,0,1,301,731.28Z"/><path class="cls-21" d="M303.88,735.1a18.2,18.2,0,0,1,2.35-2.84,16.82,16.82,0,0,1,2.83-2.38,9.47,9.47,0,0,1-2.12,3.08A9.33,9.33,0,0,1,303.88,735.1Z"/><path class="cls-21" d="M308.31,739.29a18.76,18.76,0,0,1,2.35-2.85,17.26,17.26,0,0,1,2.83-2.37,9.63,9.63,0,0,1-2.12,3.08A9.33,9.33,0,0,1,308.31,739.29Z"/><path class="cls-21" d="M311.31,742.81a18.83,18.83,0,0,1,2.36-2.84,17.31,17.31,0,0,1,2.83-2.38,9.63,9.63,0,0,1-2.12,3.08A9.38,9.38,0,0,1,311.31,742.81Z"/><path class="cls-21" d="M245.56,645.84a15.19,15.19,0,0,1,2.88-1.75,13.87,13.87,0,0,1,3.17-1.15,8.8,8.8,0,0,1-6.05,2.9Z"/><path class="cls-21" d="M368.51,690.28a7.69,7.69,0,0,1,2.21,1.8,2.61,2.61,0,0,1,.6,1.58,2.49,2.49,0,0,1-.62,1.55,7.48,7.48,0,0,1-2.24,1.78,5.23,5.23,0,0,1-2.47-1.58,2.68,2.68,0,0,1,0-3.58A5.2,5.2,0,0,1,368.51,690.28Z"/><path class="cls-21" d="M364.67,690.48a7.69,7.69,0,0,1,2.21,1.8,2.61,2.61,0,0,1,.6,1.57,2.55,2.55,0,0,1-.61,1.56,7.4,7.4,0,0,1-2.25,1.77,5.28,5.28,0,0,1-2.47-1.57,2.82,2.82,0,0,1-.67-1.8,2.78,2.78,0,0,1,.71-1.79A5.18,5.18,0,0,1,364.67,690.48Z"/><path class="cls-21" d="M359,689a7.68,7.68,0,0,1,2.21,1.81,2.33,2.33,0,0,1,0,3.13,7.55,7.55,0,0,1-2.25,1.77,5.21,5.21,0,0,1-2.47-1.58,2.75,2.75,0,0,1-.67-1.8,2.8,2.8,0,0,1,.7-1.78A5.2,5.2,0,0,1,359,689Z"/><path class="cls-21" d="M354.11,690.27a7.39,7.39,0,0,1,2.21,1.8,2.58,2.58,0,0,1,.6,1.57,2.46,2.46,0,0,1-.61,1.56,7.4,7.4,0,0,1-2.25,1.77,5.21,5.21,0,0,1-2.47-1.58,2.8,2.8,0,0,1-.67-1.79,2.84,2.84,0,0,1,.71-1.79A5.1,5.1,0,0,1,354.11,690.27Z"/><path class="cls-21" d="M348.8,690a7.53,7.53,0,0,1,2.21,1.8,2.58,2.58,0,0,1,.6,1.57A2.53,2.53,0,0,1,351,695a7.48,7.48,0,0,1-2.24,1.77,5.15,5.15,0,0,1-2.47-1.58,2.75,2.75,0,0,1-.67-1.8,2.8,2.8,0,0,1,.7-1.78A5.12,5.12,0,0,1,348.8,690Z"/><path class="cls-21" d="M345.18,691.32a7.53,7.53,0,0,1,2.21,1.8,2.33,2.33,0,0,1,0,3.13,7.4,7.4,0,0,1-2.25,1.77,5.21,5.21,0,0,1-2.47-1.58,2.74,2.74,0,0,1-.67-1.79,2.8,2.8,0,0,1,.7-1.79A5.19,5.19,0,0,1,345.18,691.32Z"/><path class="cls-21" d="M342.22,691.71a7.83,7.83,0,0,1,2.21,1.81,2.56,2.56,0,0,1,.6,1.57,2.49,2.49,0,0,1-.62,1.55,7.32,7.32,0,0,1-2.24,1.78,5.1,5.1,0,0,1-2.47-1.58A2.75,2.75,0,0,1,339,695a2.8,2.8,0,0,1,.7-1.78A5.2,5.2,0,0,1,342.22,691.71Z"/><path class="cls-21" d="M368.51,690.28a7.69,7.69,0,0,1,2.21,1.8,2.61,2.61,0,0,1,.6,1.58,2.49,2.49,0,0,1-.62,1.55,7.48,7.48,0,0,1-2.24,1.78,5.23,5.23,0,0,1-2.47-1.58,2.68,2.68,0,0,1,0-3.58A5.2,5.2,0,0,1,368.51,690.28Z"/><path class="cls-21" d="M364.67,690.48a7.69,7.69,0,0,1,2.21,1.8,2.61,2.61,0,0,1,.6,1.57,2.55,2.55,0,0,1-.61,1.56,7.4,7.4,0,0,1-2.25,1.77,5.28,5.28,0,0,1-2.47-1.57,2.82,2.82,0,0,1-.67-1.8,2.78,2.78,0,0,1,.71-1.79A5.18,5.18,0,0,1,364.67,690.48Z"/><path class="cls-21" d="M359,689a7.68,7.68,0,0,1,2.21,1.81,2.33,2.33,0,0,1,0,3.13,7.55,7.55,0,0,1-2.25,1.77,5.21,5.21,0,0,1-2.47-1.58,2.75,2.75,0,0,1-.67-1.8,2.8,2.8,0,0,1,.7-1.78A5.2,5.2,0,0,1,359,689Z"/><path class="cls-21" d="M354.11,690.27a7.39,7.39,0,0,1,2.21,1.8,2.58,2.58,0,0,1,.6,1.57,2.46,2.46,0,0,1-.61,1.56,7.4,7.4,0,0,1-2.25,1.77,5.21,5.21,0,0,1-2.47-1.58,2.8,2.8,0,0,1-.67-1.79,2.84,2.84,0,0,1,.71-1.79A5.1,5.1,0,0,1,354.11,690.27Z"/><path class="cls-21" d="M348.8,690a7.53,7.53,0,0,1,2.21,1.8,2.58,2.58,0,0,1,.6,1.57A2.53,2.53,0,0,1,351,695a7.48,7.48,0,0,1-2.24,1.77,5.15,5.15,0,0,1-2.47-1.58,2.75,2.75,0,0,1-.67-1.8,2.8,2.8,0,0,1,.7-1.78A5.12,5.12,0,0,1,348.8,690Z"/><path class="cls-21" d="M345.18,691.32a7.53,7.53,0,0,1,2.21,1.8,2.33,2.33,0,0,1,0,3.13,7.4,7.4,0,0,1-2.25,1.77,5.21,5.21,0,0,1-2.47-1.58,2.74,2.74,0,0,1-.67-1.79,2.8,2.8,0,0,1,.7-1.79A5.19,5.19,0,0,1,345.18,691.32Z"/><path class="cls-21" d="M342.22,691.71a7.83,7.83,0,0,1,2.21,1.81,2.56,2.56,0,0,1,.6,1.57,2.49,2.49,0,0,1-.62,1.55,7.32,7.32,0,0,1-2.24,1.78,5.1,5.1,0,0,1-2.47-1.58A2.75,2.75,0,0,1,339,695a2.8,2.8,0,0,1,.7-1.78A5.2,5.2,0,0,1,342.22,691.71Z"/><path class="cls-21" d="M368.51,690.28a15.57,15.57,0,0,1,.31,3.36,15,15,0,0,1-.36,3.35,7.88,7.88,0,0,1-.64-3.36A8,8,0,0,1,368.51,690.28Z"/><path class="cls-21" d="M364.67,690.48a14.88,14.88,0,0,1,.31,3.35,14.37,14.37,0,0,1-.36,3.35,8.77,8.77,0,0,1,.05-6.7Z"/><path class="cls-21" d="M359,689a15,15,0,0,1,.31,3.36,14.43,14.43,0,0,1-.36,3.35A8.8,8.8,0,0,1,359,689Z"/><path class="cls-21" d="M354.11,690.27a14.32,14.32,0,0,1,.31,3.35,13.85,13.85,0,0,1-.36,3.35,8.77,8.77,0,0,1,.05-6.7Z"/><path class="cls-21" d="M348.8,690a15.43,15.43,0,0,1,.31,3.35,15,15,0,0,1-.36,3.35,8.77,8.77,0,0,1,.05-6.7Z"/><path class="cls-21" d="M345.18,691.32a15.48,15.48,0,0,1,.31,3.35,14.37,14.37,0,0,1-.36,3.35,7.86,7.86,0,0,1-.64-3.36A8,8,0,0,1,345.18,691.32Z"/><path class="cls-21" d="M342.22,691.71a15.57,15.57,0,0,1,.31,3.36,15,15,0,0,1-.36,3.35,8.8,8.8,0,0,1,.05-6.71Z"/><path class="cls-21" d="M441.24,687.86a15.65,15.65,0,0,1-.13,3.37,14.55,14.55,0,0,1-.79,3.27,8.77,8.77,0,0,1,.92-6.64Z"/><path class="cls-21" d="M437.41,687.56a15.65,15.65,0,0,1-.13,3.37,14.58,14.58,0,0,1-.8,3.27,7.9,7.9,0,0,1-.19-3.41A7.8,7.8,0,0,1,437.41,687.56Z"/><path class="cls-21" d="M432,685.36a15.65,15.65,0,0,1-.13,3.37,14.58,14.58,0,0,1-.8,3.27,8.83,8.83,0,0,1,.93-6.64Z"/><path class="cls-21" d="M427,686a15.58,15.58,0,0,1-.13,3.36,14.66,14.66,0,0,1-.8,3.28,7.9,7.9,0,0,1-.19-3.41A7.8,7.8,0,0,1,427,686Z"/><path class="cls-21" d="M421.73,685a15.65,15.65,0,0,1-.13,3.37,14.55,14.55,0,0,1-.79,3.27,8.77,8.77,0,0,1,.92-6.64Z"/><path class="cls-21" d="M418,685.86a15,15,0,0,1-.13,3.36,14.76,14.76,0,0,1-.79,3.28,8.1,8.1,0,0,1-.2-3.42A8,8,0,0,1,418,685.86Z"/><path class="cls-21" d="M415,685.86a15,15,0,0,1-.13,3.37,14,14,0,0,1-.79,3.27,8.05,8.05,0,0,1-.2-3.41A8.15,8.15,0,0,1,415,685.86Z"/><path class="cls-21" d="M563.15,657.2a14.38,14.38,0,0,1,1,3.22,14.05,14.05,0,0,1,.34,3.35,8.76,8.76,0,0,1-1.33-6.57Z"/><path class="cls-21" d="M559.44,658.18a15.49,15.49,0,0,1,1,3.22,14.59,14.59,0,0,1,.33,3.35,8.81,8.81,0,0,1-1.32-6.57Z"/><path class="cls-21" d="M553.62,657.89a14.38,14.38,0,0,1,1,3.22,14.05,14.05,0,0,1,.34,3.35,8.76,8.76,0,0,1-1.33-6.57Z"/><path class="cls-21" d="M549.06,660.13a15.26,15.26,0,0,1,1,3.22,14.2,14.2,0,0,1,.33,3.36,8.18,8.18,0,0,1-1.31-3.16A7.89,7.89,0,0,1,549.06,660.13Z"/><path class="cls-21" d="M543.81,661a15.49,15.49,0,0,1,1,3.22,14.59,14.59,0,0,1,.33,3.35,8,8,0,0,1-1.31-3.16A7.84,7.84,0,0,1,543.81,661Z"/><path class="cls-21" d="M540.53,663a14.7,14.7,0,0,1,1,3.22,14.16,14.16,0,0,1,.34,3.35,7.94,7.94,0,0,1-1.32-3.15A8,8,0,0,1,540.53,663Z"/><path class="cls-21" d="M537.71,664a14.54,14.54,0,0,1,1,3.22,14.05,14.05,0,0,1,.34,3.35,8.73,8.73,0,0,1-1.33-6.57Z"/><path class="cls-21" d="M298.18,581.53a21,21,0,0,1,2.59-2.79l1.35-1.27a5.8,5.8,0,0,0,1.17-1.42,2.89,2.89,0,0,1-.56,1.92,9.16,9.16,0,0,1-1.27,1.5A9.5,9.5,0,0,1,298.18,581.53Z"/><path class="cls-21" d="M302.11,585.28a14.09,14.09,0,0,1,2.15-2.43l1.16-1.05a6.3,6.3,0,0,0,1.06-1.17,2.4,2.4,0,0,1-.46,1.66,7.06,7.06,0,0,1-1.07,1.29A7.46,7.46,0,0,1,302.11,585.28Z"/><path class="cls-21" d="M304.28,589a18.7,18.7,0,0,1,2.7-2.9c.48-.43,1-.86,1.47-1.27a13.66,13.66,0,0,0,1.43-1.33,3.77,3.77,0,0,1-.87,1.86,11.26,11.26,0,0,1-1.36,1.48A11.43,11.43,0,0,1,304.28,589Z"/><path class="cls-21" d="M307.54,592.79a18.7,18.7,0,0,1,2.7-2.9c.48-.43,1-.86,1.47-1.27a14.83,14.83,0,0,0,1.43-1.33,3.77,3.77,0,0,1-.87,1.86,10.61,10.61,0,0,1-1.36,1.48A11.3,11.3,0,0,1,307.54,592.79Z"/><path class="cls-21" d="M339.08,809.46c1.9-.69,3.79-1.37,5.65-2.14s3.72-1.51,5.56-2.32c3.68-1.61,7.31-3.32,10.84-5.23a112,112,0,0,0,10.34-6.13l2.48-1.7c.83-.57,1.6-1.21,2.4-1.81,1.66-1.15,3.11-2.55,4.69-3.8a65.81,65.81,0,0,1-9.13,7.94,95,95,0,0,1-10.31,6.38,118.84,118.84,0,0,1-11,5.06A92,92,0,0,1,339.08,809.46Z"/><path class="cls-21" d="M390.45,781.3l8.81-6.83q4.41-3.4,8.77-6.87c5.81-4.62,11.62-9.25,17.29-14S436.63,744,442,738.87c2.7-2.55,5.34-5.15,7.83-7.9a44.35,44.35,0,0,0,6.63-8.89,42,42,0,0,1-6.27,9.22c-2.42,2.82-5,5.5-7.66,8.12-5.31,5.22-10.93,10.1-16.61,14.91s-11.54,9.38-17.46,13.87S396.58,777.1,390.45,781.3Z"/><path class="cls-21" d="M464.69,715.09a71.83,71.83,0,0,1,7.6-9.11c1.39-1.41,2.83-2.77,4.36-4a20.23,20.23,0,0,1,5-3.21,34.79,34.79,0,0,0-4.5,3.8q-2.12,2-4.17,4.15C470.24,709.48,467.54,712.34,464.69,715.09Z"/><path class="cls-21" d="M298.24,675.48c.68.85,1.35,1.69,2.08,2.49s1.43,1.61,2.18,2.37a58.86,58.86,0,0,0,4.73,4.35,40.71,40.71,0,0,0,5.25,3.66l1.4.79c.47.25,1,.46,1.45.69.95.53,2,.8,3,1.25a22.54,22.54,0,0,1-6.21-2.05,28.87,28.87,0,0,1-5.51-3.57,35.54,35.54,0,0,1-4.66-4.6A30.78,30.78,0,0,1,298.24,675.48Z"/><path class="cls-21" d="M328.25,690.06c4.8-.89,9.61-1.67,14.42-2.43s9.64-1.45,14.46-2.18,9.66-1.33,14.49-1.94l7.26-.89c2.43-.26,4.85-.56,7.27-.79-2.39.46-4.8.85-7.2,1.27l-7.22,1.17c-4.81.77-9.64,1.45-14.46,2.17s-9.65,1.34-14.49,1.94S333.1,689.58,328.25,690.06Z"/><path class="cls-21" d="M403,681.72a19.28,19.28,0,0,1,4.64-2.29c.81-.32,1.64-.54,2.47-.8s1.68-.45,2.53-.62a58.59,58.59,0,0,1,10.32-1.19,92.14,92.14,0,0,1,10.38.31c1.73.17,3.43.16,5.17.25l5.17.17c6.9.21,13.81.32,20.71.27,3.45,0,6.9-.06,10.33-.25,1.72-.08,3.44-.21,5.14-.4a20.74,20.74,0,0,0,4.93-1l.07,0h.06c3.18-.42,6.37-.93,9.54-1.51s6.33-1.28,9.45-2.11a75.76,75.76,0,0,0,9.19-3,32.24,32.24,0,0,0,4.34-2.12,14.94,14.94,0,0,0,3.77-3,14.64,14.64,0,0,1-3.68,3.15,33.22,33.22,0,0,1-4.3,2.26,67.87,67.87,0,0,1-9.17,3.23c-3.12.89-6.28,1.63-9.45,2.29s-6.36,1.22-9.59,1.65l.12,0a21.77,21.77,0,0,1-5.17,1.12c-1.73.2-3.46.34-5.2.43-3.46.21-6.92.28-10.38.32-6.92,0-13.83-.14-20.74-.38-3.45-.15-6.9-.21-10.36-.53a91.31,91.31,0,0,0-10.32-.5,64.3,64.3,0,0,0-10.27.94c-.85.14-1.68.36-2.52.54s-1.67.43-2.48.72A20.07,20.07,0,0,0,403,681.72Z"/><path class="cls-21" d="M537.91,656.89c1.65-.77,3.35-1.42,5.07-2s3.46-1.13,5.22-1.61,3.54-.92,5.34-1.23,3.6-.6,5.42-.83h-.06c2.34-.59,4.69-1.24,7-1.91s4.64-1.44,6.92-2.28a57.76,57.76,0,0,0,6.7-2.8,16.34,16.34,0,0,0,5.8-4.26,10.09,10.09,0,0,1-2.48,2.69,23,23,0,0,1-3.07,2,56.66,56.66,0,0,1-6.65,3.12c-2.29.88-4.61,1.67-6.94,2.4s-4.69,1.38-7.09,1.92h-.05a94.23,94.23,0,0,0-10.69,1.79c-1.77.38-3.52.86-5.26,1.34S539.63,656.29,537.91,656.89Z"/><path class="cls-21" d="M598.36,632.6c1-.72,2.11-1.42,3.14-2.16s2.08-1.45,3.11-2.19c2-1.49,4.06-3,6-4.63a53.55,53.55,0,0,0,5.52-5.12,24.64,24.64,0,0,0,2.39-2.91c.34-.52.7-1,1-1.58s.53-1.14.82-1.71a16.75,16.75,0,0,1-3.66,6.7,38.17,38.17,0,0,1-5.47,5.39,64.51,64.51,0,0,1-12.88,8.21Z"/><path class="cls-22" d="M406,524.15s5.52-11.73,13.8-19.64l15-17.34s30-15.78,39.14-13.71c0,0-21.17,13.56-21.61,15.78L430.37,507Z"/><path class="cls-23" d="M466,510.6c.19-.74,4.48-8.84,10.75-12.85,0,0,21.75-18.36,23.46-20.26,0,0,13.58,7.73,17.14,6,0,0-11.83,6.75-12.72,5.84,0,0-17.64,8-19.1,9.85,0,0-12.65,5.67-17.5,11.6C468.07,510.76,465.51,512.72,466,510.6Z"/><path class="cls-24" d="M331.13,733.57s15.25-19.12,15.37-23.28c0,0,20.72-7,38.07-2,0,0,22.67,3.84,24.73,7.44,0,0-29,2-29.76,2.7,0,0-24.15,3.42-27.7,6.11Z"/><path class="cls-22" d="M310.6,604.73l9.46-15.7,4.7,31.59,4.67,29.58s1.87,31.23,4.95,31.61c0,0-14.23-20.65-12.87-28.21l-5.37-23.38s-1.92-13.39-1.23-15.23C314.91,615,312.5,605.5,310.6,604.73Z"/><path class="cls-22" d="M369.89,567.45s10.82-2.39,13.32-4.36c0,0-2.24,11.27-1.39,15.39,0,0-4.5,30.74-2.55,40.27,0,0,5,31.66,6.21,33.29,0,0,6.73,19.81-7.33-7.61,0,0-4.75-10.65-3.85-16.25,0,0-2.62-13.64-4.8-17,0,0-4.11-14.87-1.06-19.48,0,0-.35-11.72-.91-13.75C367.53,578,368.89,572.15,369.89,567.45Z"/><path class="cls-25" d="M432.22,553.4s6.58,5.35,9.41,2.21c0,0-22.4,33.44-18.69,73.21,0,0,6.49,36.55-1.64,1.4,0,0-7.76-33-1.61-44.74C419.69,585.48,426.55,557.91,432.22,553.4Z"/><path class="cls-25" d="M472.07,552.72s5.51,1.56,7.48,0c0,0-10,23-8.08,33.49,0,0-4.54,37.34-3.05,39.08s-.46,17.27,3.05,24.12l-10.87-29s-3.61-24,0-31.73C460.58,588.76,467.82,556.35,472.07,552.72Z"/><path class="cls-25" d="M529.53,541.71S543.7,600.28,553.46,617c0,0,9.61,15.35,12.23,16.37,0,0-7.31-46.13-5.19-50.69,0,0-.74-14.66-4-23.7,0,0-3.27-16.75-1.82-18Z"/><path class="cls-26" d="M294.92,629.59s.14-4.42,8.63-13.27c0,0,7.38-6.55,8.06-9.74,0,0,3.63,5.42,3.47,10.82,0,0,2,27.33,4.43,29.54,0,0,3.71,23.18,9.21,29,0,0,12.07,20-2.18,1.86,0,0-20.75-24.89-22.27-29.61C304.27,648.17,298.21,642.83,294.92,629.59Z"/><path class="cls-26" d="M340.39,568.75s24.66.72,30-1.62c0,0-5.88,19-2.7,21.36a26.53,26.53,0,0,1,.54,8.6s-3.53,10.32,5.45,25.14c0,0,2.25,11.45,1.34,13.11,0,0,5.09,17.3,11.14,22.19L351,614.45S334.71,597.32,340.39,568.75Z"/><path class="cls-26" d="M418.43,550.17s-26.72,25.06-2.2,79.31l8.81,15.7-7-30.4s-3-23.66,2.17-33.68c0,0,8.24-23.25,10.46-25.64S419.76,548.71,418.43,550.17Z"/><path class="cls-26" d="M467.14,548.35s2.33,2.73,5.25,2.66-.29.25-.29.25-10.53,27.63-9.28,28.94-8,18.46-1.8,40.73c0,0,6.29,23.75,10.22,27.06,0,0-19.08-17.31-18.6-25.27s-15.64-33,.5-58.22C453.14,564.5,460.06,552.83,467.14,548.35Z"/><path class="cls-26" d="M514,542.62l14.47-2.12s11.94,48,17,53.39c0,0,12.7,36.89,20.2,41,0,0-3.32,7.55-39.21-39.17C526.49,595.7,509.4,555.73,514,542.62Z"/><path class="cls-27" d="M219.6,618.15s14-25.15,15.28-33.26l6.59-6.78s16.19-2.59,20.49-9.28c0,0,32.46,1.4,32.7-5s3.83,1.78,3.83,1.78,2.11,5.68-3.44,13.67c0,0-18.87,21-51.71,30.58l-10.46,4.65A13.83,13.83,0,0,1,219.6,618.15Z"/><path class="cls-21" d="M493.24,491.15a1.39,1.39,0,0,1,.45.7,1.61,1.61,0,0,1-.25.77.72.72,0,0,1-.75-.66A.76.76,0,0,1,493.24,491.15Z"/><path class="cls-21" d="M490.84,492.41a1.32,1.32,0,0,1,.45.7,1.61,1.61,0,0,1-.25.77.72.72,0,0,1-.75-.65A.76.76,0,0,1,490.84,492.41Z"/><path class="cls-21" d="M488.35,493.6a1.39,1.39,0,0,1,.45.7,1.65,1.65,0,0,1-.24.76.72.72,0,0,1-.76-.65A.76.76,0,0,1,488.35,493.6Z"/><path class="cls-21" d="M485.77,495c.34.31.44.46.49.64s0,.32-.17.77a.72.72,0,0,1-.81-.57A.73.73,0,0,1,485.77,495Z"/><path class="cls-21" d="M483.22,496.28a1.39,1.39,0,0,1,.45.7,1.61,1.61,0,0,1-.25.77.72.72,0,0,1-.75-.66A.76.76,0,0,1,483.22,496.28Z"/><path class="cls-21" d="M494.36,490.53a1.34,1.34,0,0,1,.45.71,1.65,1.65,0,0,1-.24.76.73.73,0,0,1-.76-.65A.77.77,0,0,1,494.36,490.53Z"/><path class="cls-21" d="M492,491.8a1.32,1.32,0,0,1,.45.7,1.65,1.65,0,0,1-.24.76.72.72,0,0,1-.76-.65A.76.76,0,0,1,492,491.8Z"/><path class="cls-21" d="M489.47,493a1.39,1.39,0,0,1,.45.7,1.68,1.68,0,0,1-.24.77.73.73,0,0,1-.76-.65A.77.77,0,0,1,489.47,493Z"/><path class="cls-21" d="M486.89,494.4a1.42,1.42,0,0,1,.49.64,1.6,1.6,0,0,1-.17.77.69.69,0,0,1-.8-.56A.74.74,0,0,1,486.89,494.4Z"/><path class="cls-21" d="M484.34,495.67a1.32,1.32,0,0,1,.45.7,1.65,1.65,0,0,1-.24.76.71.71,0,0,1-.76-.65A.76.76,0,0,1,484.34,495.67Z"/><path class="cls-21" d="M505.24,485.18a1.32,1.32,0,0,1,.45.7,1.68,1.68,0,0,1-.24.77.73.73,0,0,1-.76-.65A.76.76,0,0,1,505.24,485.18Z"/><path class="cls-21" d="M502.84,486.44a1.37,1.37,0,0,1,.45.71,1.65,1.65,0,0,1-.24.76.73.73,0,0,1-.76-.65A.77.77,0,0,1,502.84,486.44Z"/><path class="cls-21" d="M500.35,487.63a1.39,1.39,0,0,1,.45.7,1.68,1.68,0,0,1-.24.77.73.73,0,0,1-.76-.65A.76.76,0,0,1,500.35,487.63Z"/><path class="cls-21" d="M497.77,489.05c.34.31.44.46.49.64s0,.32-.17.77a.69.69,0,0,1-.8-.57A.73.73,0,0,1,497.77,489.05Z"/><path class="cls-21" d="M495.22,490.31a1.34,1.34,0,0,1,.45.71,1.68,1.68,0,0,1-.24.76.73.73,0,0,1-.76-.65A.77.77,0,0,1,495.22,490.31Z"/><path class="cls-21" d="M506.36,484.57a1.32,1.32,0,0,1,.45.7,1.65,1.65,0,0,1-.24.76.72.72,0,0,1-.76-.65A.78.78,0,0,1,506.36,484.57Z"/><path class="cls-21" d="M504,485.83a1.32,1.32,0,0,1,.45.7,1.68,1.68,0,0,1-.24.77.72.72,0,0,1-.75-.66A.76.76,0,0,1,504,485.83Z"/><path class="cls-21" d="M501.47,487a1.32,1.32,0,0,1,.45.7,1.68,1.68,0,0,1-.24.76.71.71,0,0,1-.75-.65A.74.74,0,0,1,501.47,487Z"/><path class="cls-21" d="M498.89,488.44a1.36,1.36,0,0,1,.5.64,1.65,1.65,0,0,1-.18.76.69.69,0,0,1-.8-.56A.72.72,0,0,1,498.89,488.44Z"/><path class="cls-21" d="M496.34,489.7a1.32,1.32,0,0,1,.45.7,1.68,1.68,0,0,1-.24.77.72.72,0,0,1-.75-.66A.76.76,0,0,1,496.34,489.7Z"/><path class="cls-28" d="M511.68,496.79s3.88-2.77,4-.05-3.6,3.42-4,1.09"/><path class="cls-28" d="M504,518.26s3.89-2.77,4-.06-3.61,3.42-4,1.09"/><path class="cls-28" d="M513.48,532.77s3.88-2.77,4,0-3.6,3.42-4,1.09"/><path class="cls-28" d="M474.61,513.31s6.57-4.68,6.77-.1-6.09,5.79-6.78,1.85"/><path class="cls-28" d="M444.76,533.18s6.57-4.68,6.77-.09-6.09,5.78-6.78,1.85"/><path class="cls-28" d="M429.52,542s4.41-3.15,4.54-.07-4.09,3.88-4.55,1.24"/><path class="cls-28" d="M409.47,536.47s4.41-3.14,4.55-.06-4.09,3.88-4.55,1.24"/><path class="cls-28" d="M388.66,546.27s4.41-3.15,4.54-.07-4.09,3.89-4.55,1.24"/><path class="cls-28" d="M397.05,525.74s4.41-3.14,4.55-.06-4.09,3.88-4.56,1.24"/><path class="cls-28" d="M458.39,497.7s3.79,7.12-.78,6.73-4.95-6.79-1-7"/><path class="cls-28" d="M437.67,516.42s2.07,3.89-.43,3.68-2.7-3.71-.52-3.81"/><path class="cls-28" d="M475.8,536.61s3-2.15,3.11,0-2.8,2.66-3.11.85"/><path class="cls-29" d="M493,520.54s1.16-.83,1.2,0-1.08,1-1.21.32"/><path class="cls-29" d="M485.59,527.57s1.16-.83,1.2,0-1.08,1-1.21.33"/><path class="cls-29" d="M495.5,529.4s1.17-.83,1.2,0-1.08,1-1.2.32"/><path class="cls-29" d="M486.22,536.64s1.16-.83,1.2,0-1.08,1-1.2.33"/><path class="cls-29" d="M487.51,519s1.17-.83,1.2,0-1.08,1-1.2.33"/><path class="cls-29" d="M492.27,513.63s1.16-.83,1.2,0-1.08,1-1.2.33"/><path class="cls-29" d="M485.75,507s1.16-.83,1.2,0-1.08,1-1.2.32"/><path class="cls-29" d="M486,512.36s1.16-.83,1.2,0-1.08,1-1.21.33"/><path class="cls-29" d="M509.89,502.93s1.16-.83,1.2,0-1.08,1-1.2.33"/><path class="cls-29" d="M498.09,514.88s1.16-.83,1.19,0-1.07,1-1.2.32"/><path class="cls-29" d="M512.59,507s1.17-.83,1.2,0-1.08,1-1.2.32"/><path class="cls-29" d="M506.64,513.67s1.16-.83,1.2,0-1.08,1-1.2.33"/><path class="cls-29" d="M526.21,510.93s1.16-.83,1.19,0-1.07,1-1.2.33"/><path class="cls-29" d="M517.61,495.65s1.16-.83,1.2,0-1.08,1-1.21.33"/><path class="cls-29" d="M517,508.7s1.17-.83,1.2,0-1.08,1-1.2.32"/><path class="cls-29" d="M523.89,505.46s1.16-.83,1.2,0-1.08,1-1.2.33"/><path class="cls-29" d="M520.72,515.61s1.16-.83,1.2,0-1.08,1-1.2.33"/><path class="cls-29" d="M530.28,507.45s1.16-.83,1.2,0-1.08,1-1.2.33"/><path class="cls-29" d="M543.32,553.19s1.16-.83,1.2,0-1.08,1-1.2.33"/><path class="cls-29" d="M537.6,555s1.17-.83,1.2,0-1.07,1-1.2.33"/><path class="cls-29" d="M538.61,549.92s1.17-.83,1.2,0-1.08,1-1.2.32"/><path class="cls-29" d="M542.94,557s1.17-.83,1.2,0-1.08,1-1.2.32"/><path class="cls-29" d="M546.56,548.73s1.16-.83,1.2,0-1.08,1-1.2.32"/><path class="cls-29" d="M546.58,565.38s1.16-.83,1.2,0-1.08,1-1.2.33"/><path class="cls-29" d="M540.86,567.19s1.17-.83,1.2,0-1.08,1-1.2.32"/><path class="cls-29" d="M541.87,562.12s1.17-.83,1.2,0-1.08,1-1.2.33"/><path class="cls-29" d="M546.2,569.21s1.17-.83,1.2,0-1.08,1-1.2.33"/><path class="cls-29" d="M549.82,560.93s1.16-.83,1.2,0-1.08,1-1.2.33"/><path class="cls-29" d="M550.14,578.94s1.17-.83,1.2,0-1.08,1-1.2.33"/><path class="cls-29" d="M544.43,580.75s1.16-.83,1.2,0-1.08,1-1.2.32"/><path class="cls-29" d="M545.44,575.68s1.16-.83,1.2,0-1.08,1-1.21.33"/><path class="cls-29" d="M549.77,582.77s1.16-.83,1.2,0-1.08,1-1.21.33"/><path class="cls-29" d="M553.38,574.49s1.17-.83,1.2,0-1.08,1-1.2.33"/><path class="cls-29" d="M375,573.52s.77-.27.66.18-.75.39-.71,0"/><path class="cls-29" d="M371.55,573.57s.77-.26.66.19-.76.38-.71,0"/><path class="cls-29" d="M372.93,571s.77-.27.66.18-.76.39-.71,0"/><path class="cls-29" d="M374.13,575.54s.77-.26.66.19-.76.38-.71,0"/><path class="cls-29" d="M377.46,571.62s.77-.27.66.18-.76.38-.71,0"/><path class="cls-29" d="M374.75,580.7s.77-.26.66.19-.76.38-.71,0"/><path class="cls-29" d="M371.34,580.76s.77-.26.65.19-.75.38-.71,0"/><path class="cls-29" d="M372.72,578.15s.77-.26.65.19-.75.38-.71,0"/><path class="cls-29" d="M373.92,582.73s.77-.26.66.19-.76.38-.71,0"/><path class="cls-29" d="M377.25,578.8s.77-.26.65.19-.75.38-.71,0"/><path class="cls-29" d="M317,602.94s.47-.16.4.11-.46.23-.43,0"/><path class="cls-29" d="M315,603s.47-.16.4.11-.46.23-.43,0"/><path class="cls-29" d="M315.79,601.41s.46-.16.4.11-.46.23-.43,0"/><path class="cls-29" d="M316.51,604.15s.47-.15.4.12-.45.22-.43,0"/><path class="cls-29" d="M318.51,601.8s.46-.16.39.11-.45.23-.42,0"/><path class="cls-29" d="M316.89,607.25s.46-.16.39.11-.45.23-.43,0"/><path class="cls-29" d="M314.84,607.28s.46-.15.39.12-.45.23-.43,0"/><path class="cls-29" d="M315.66,605.72s.47-.16.4.11-.46.23-.43,0"/><path class="cls-29" d="M316.39,608.47s.46-.16.39.11-.45.23-.42,0"/><path class="cls-29" d="M318.38,606.11s.46-.16.4.11-.46.23-.43,0"/><path class="cls-29" d="M319.29,610.5s.46-.16.39.11-.45.23-.42,0"/><path class="cls-29" d="M317.24,610.53s.46-.15.39.11-.45.23-.42,0"/><path class="cls-29" d="M318.07,609s.46-.16.39.11-.45.23-.42,0"/><path class="cls-29" d="M318.79,611.72s.46-.16.4.11-.46.23-.43,0"/><path class="cls-29" d="M320.79,609.36s.46-.16.39.11-.45.23-.42,0"/><path class="cls-29" d="M319.16,614.81s.46-.15.4.11-.46.23-.43,0"/><path class="cls-29" d="M317.11,614.85s.46-.16.4.11-.46.23-.43,0"/><path class="cls-29" d="M317.94,613.28s.46-.15.39.12-.45.22-.42,0"/><path class="cls-29" d="M318.66,616s.47-.16.4.11-.46.23-.43,0"/><path class="cls-29" d="M320.66,613.67s.46-.16.39.11-.45.23-.42,0"/><path class="cls-29" d="M319.56,619.45s.46-.15.39.12-.45.23-.42,0"/><path class="cls-29" d="M317.51,619.49s.46-.16.39.11-.45.23-.42,0"/><path class="cls-29" d="M318.34,617.92s.46-.15.39.12-.45.23-.42,0"/><path class="cls-29" d="M319.06,620.67s.46-.16.39.11-.45.23-.42,0"/><path class="cls-29" d="M321.06,618.31s.46-.15.39.11-.45.23-.42,0"/><path class="cls-29" d="M319.43,623.77s.46-.16.4.11-.46.23-.43,0"/><path class="cls-29" d="M317.38,623.8s.46-.16.4.11-.46.23-.43,0"/><path class="cls-29" d="M318.21,622.24s.46-.16.39.11-.45.23-.42,0"/><path class="cls-29" d="M318.93,625s.46-.15.4.12-.46.23-.43,0"/><path class="cls-29" d="M320.93,622.63s.46-.16.39.11-.45.23-.42,0"/><path class="cls-29" d="M321.42,628.89s.46-.16.39.11-.45.23-.42,0"/><path class="cls-29" d="M319.37,628.92s.46-.15.39.12-.45.23-.42,0"/><path class="cls-29" d="M320.2,627.36s.46-.16.39.11-.45.23-.42,0"/><path class="cls-29" d="M320.92,630.11s.46-.16.39.11-.45.23-.42,0"/><path class="cls-29" d="M322.92,627.75s.46-.16.39.11-.45.23-.43,0"/><path class="cls-29" d="M321.29,633.2s.46-.15.39.12-.45.23-.42,0"/><path class="cls-29" d="M319.24,633.24s.46-.16.39.11-.45.23-.42,0"/><path class="cls-29" d="M320.07,631.67s.46-.15.39.12-.45.23-.42,0"/><path class="cls-29" d="M320.79,634.42s.46-.16.4.11-.46.23-.43,0"/><path class="cls-29" d="M322.79,632.06s.46-.15.39.11-.45.23-.42,0"/><path class="cls-29" d="M323,638.11s.46-.15.4.12-.46.23-.43,0"/><path class="cls-29" d="M321,638.15s.46-.16.4.11-.46.23-.43,0"/><path class="cls-29" d="M321.79,636.58s.46-.15.39.12-.45.23-.42,0"/><path class="cls-29" d="M322.51,639.33s.46-.16.4.11-.46.23-.43,0"/><path class="cls-29" d="M324.51,637s.46-.15.39.12-.45.23-.42,0"/><path class="cls-29" d="M322.88,642.43s.47-.16.4.11-.46.23-.43,0"/><path class="cls-29" d="M320.83,642.46s.47-.16.4.11-.46.23-.43,0"/><path class="cls-29" d="M321.66,640.9s.46-.16.4.11-.46.23-.43,0"/><path class="cls-29" d="M322.38,643.64s.47-.15.4.12-.45.23-.43,0"/><path class="cls-29" d="M324.38,641.29s.46-.16.39.11-.45.23-.42,0"/><path class="cls-29" d="M324.27,646.73s0,.48-.2.35-.11-.5.11-.41"/><path class="cls-29" d="M324.77,644.74s0,.48-.21.35-.11-.5.12-.41"/><path class="cls-29" d="M326.07,645.94s0,.48-.21.35-.11-.5.12-.41"/><path class="cls-29" d="M323.23,645.93s0,.49-.21.36-.11-.5.12-.41"/><path class="cls-29" d="M325,648.47s0,.48-.2.35-.11-.5.11-.41"/><path class="cls-29" d="M324.87,651.84s0,.48-.21.35-.1-.5.12-.41"/><path class="cls-29" d="M325.37,649.85s0,.48-.21.35-.11-.5.12-.41"/><path class="cls-29" d="M326.66,651.05s0,.48-.2.35-.11-.5.11-.41"/><path class="cls-29" d="M323.82,651s0,.49-.2.36-.11-.5.11-.41"/><path class="cls-29" d="M325.59,653.58s0,.48-.21.35-.1-.5.12-.41"/><path class="cls-29" d="M324.87,651.84s0,.48-.21.35-.1-.5.12-.41"/><path class="cls-29" d="M325.37,649.85s0,.48-.21.35-.11-.5.12-.41"/><path class="cls-29" d="M326.66,651.05s0,.48-.2.35-.11-.5.11-.41"/><path class="cls-29" d="M323.82,651s0,.49-.2.36-.11-.5.11-.41"/><path class="cls-29" d="M325.59,653.58s0,.48-.21.35-.1-.5.12-.41"/><path class="cls-29" d="M326.48,657.58s-.17-.46.1-.4.24.45,0,.43"/><path class="cls-29" d="M326.57,659.63s-.17-.46.1-.4.24.45,0,.42"/><path class="cls-29" d="M325,658.84s-.17-.45.1-.39.25.44,0,.42"/><path class="cls-29" d="M327.71,658s-.17-.46.1-.4.24.45,0,.43"/><path class="cls-29" d="M325.3,656.11s-.18-.45.1-.39.24.44,0,.42"/><path class="cls-29" d="M374.48,588.68s.77-.26.66.19-.76.38-.71,0"/><path class="cls-29" d="M371.07,588.74s.77-.26.65.19-.75.38-.71,0"/><path class="cls-29" d="M372.44,586.14s.77-.27.66.18-.75.38-.71,0"/><path class="cls-29" d="M373.65,590.71s.77-.26.66.19-.76.38-.71,0"/><path class="cls-29" d="M377,586.78s.77-.26.65.19-.75.38-.71,0"/><path class="cls-29" d="M375,596.83s.67-.23.57.16-.66.34-.62,0"/><path class="cls-29" d="M372,596.88s.67-.23.57.16-.66.34-.62,0"/><path class="cls-29" d="M373.21,594.61s.67-.22.57.17-.66.33-.62,0"/><path class="cls-29" d="M374.26,598.6s.67-.23.57.16-.66.33-.62,0"/><path class="cls-29" d="M377.15,595.18s.67-.23.57.16-.65.33-.61,0"/><path class="cls-29" d="M374.79,603.09s.67-.23.58.16-.66.33-.62,0"/><path class="cls-29" d="M371.82,603.14s.67-.23.57.16-.65.33-.61,0"/><path class="cls-29" d="M373,600.87s.67-.23.57.16-.65.33-.61,0"/><path class="cls-29" d="M374.07,604.85s.67-.23.57.16-.65.34-.61,0"/><path class="cls-29" d="M377,601.43s.67-.23.57.17-.66.33-.62,0"/><path class="cls-29" d="M374.56,610s.67-.22.57.17-.66.33-.62,0"/><path class="cls-29" d="M371.59,610.08s.67-.23.57.16-.66.34-.62,0"/><path class="cls-29" d="M372.79,607.82s.67-.23.57.16-.66.33-.62,0"/><path class="cls-29" d="M373.84,611.8s.67-.23.57.16-.66.33-.62,0"/><path class="cls-29" d="M376.73,608.38s.67-.23.57.16-.66.33-.61,0"/><path class="cls-29" d="M375.24,617.53s.17.69-.21.55-.28-.68.06-.61"/><path class="cls-29" d="M375.44,614.56s.17.69-.21.56-.28-.68.07-.61"/><path class="cls-29" d="M377.6,616s.17.69-.21.56-.28-.69.06-.62"/><path class="cls-29" d="M373.54,616.66s.17.69-.21.56-.28-.69.07-.62"/><path class="cls-29" d="M376.7,619.83s.17.69-.21.56-.27-.69.07-.62"/><path class="cls-29" d="M376.47,626.58s.17.69-.21.56-.28-.68.06-.61"/><path class="cls-29" d="M376.67,623.62s.17.68-.21.55-.28-.68.07-.61"/><path class="cls-29" d="M378.83,625s.17.68-.21.55-.28-.68.06-.61"/><path class="cls-29" d="M377.93,628.89s.17.68-.21.55-.27-.68.07-.61"/><path class="cls-29" d="M377.64,632.7s.17.68-.22.55-.27-.68.07-.61"/><path class="cls-29" d="M380,631.12s.17.69-.22.55-.27-.68.07-.61"/><path class="cls-29" d="M379.1,635s.17.69-.21.56-.28-.69.07-.62"/><path class="cls-29" d="M377.64,632.7s.17.68-.22.55-.27-.68.07-.61"/><path class="cls-29" d="M379.1,635s.17.69-.21.56-.28-.69.07-.62"/><path class="cls-29" d="M378.71,636.93s.17.68-.21.55-.28-.68.07-.61"/><path class="cls-29" d="M380.17,639.23s.17.69-.21.56-.27-.69.07-.62"/><path class="cls-29" d="M380,631.12s.17.69-.22.55-.27-.68.07-.61"/><path class="cls-29" d="M377.64,632.7s.17.68-.22.55-.27-.68.07-.61"/><path class="cls-29" d="M379.1,635s.17.69-.21.56-.28-.69.07-.62"/><path class="cls-29" d="M378.71,636.93s.17.68-.21.55-.28-.68.07-.61"/><path class="cls-29" d="M380.17,639.23s.17.69-.21.56-.27-.69.07-.62"/><path class="cls-29" d="M230.65,611.78s-.49.51-.58.12.43-.6.55-.27"/><path class="cls-29" d="M228.05,610.64s-.49.52-.58.12.43-.6.55-.27"/><path class="cls-29" d="M226.9,613.12s-.49.51-.58.12.42-.6.55-.27"/><path class="cls-29" d="M225.06,613.83s-.48.51-.58.12.43-.6.55-.28"/><path class="cls-29" d="M223.91,616.3s-.48.52-.58.12.43-.6.55-.27"/><path class="cls-29" d="M238.82,609s-.47.52-.58.13.42-.61.55-.28"/><path class="cls-29" d="M236.2,607.88s-.48.53-.58.14.42-.61.55-.29"/><path class="cls-29" d="M235.1,610.38s-.48.53-.58.14.41-.61.55-.29"/><path class="cls-29" d="M233.28,611.13s-.48.52-.58.13.41-.61.55-.28"/><path class="cls-29" d="M232.18,613.62s-.48.53-.58.14.41-.61.54-.29"/><path class="cls-29" d="M238.1,603.4s-.47.52-.58.13.42-.61.55-.29"/><path class="cls-29" d="M235.48,602.31s-.48.52-.58.13.41-.61.55-.28"/><path class="cls-29" d="M234.38,604.81s-.48.52-.58.13.41-.61.55-.28"/><path class="cls-29" d="M232.56,605.55s-.48.53-.58.14.41-.61.54-.29"/><path class="cls-29" d="M231.45,608.05s-.47.52-.58.13.42-.61.55-.28"/><path class="cls-29" d="M238.1,603.4s-.47.52-.58.13.42-.61.55-.29"/><path class="cls-29" d="M235.48,602.31s-.48.52-.58.13.41-.61.55-.28"/><path class="cls-29" d="M234.38,604.81s-.48.52-.58.13.41-.61.55-.28"/><path class="cls-29" d="M232.56,605.55s-.48.53-.58.14.41-.61.54-.29"/><path class="cls-29" d="M231.45,608.05s-.47.52-.58.13.42-.61.55-.28"/><path class="cls-29" d="M250.67,603.51s-.48.52-.58.13.42-.61.55-.28"/><path class="cls-29" d="M248.05,602.42s-.48.53-.58.14.41-.61.55-.29"/><path class="cls-29" d="M247,604.92s-.48.53-.58.14.41-.61.54-.29"/><path class="cls-29" d="M245.12,605.67s-.47.52-.57.13.41-.61.54-.28"/><path class="cls-29" d="M244,608.16s-.47.53-.58.14.42-.61.55-.29"/><path class="cls-29" d="M248.14,600.1s-.48.52-.58.13.41-.61.55-.28"/><path class="cls-29" d="M245.52,599s-.48.53-.58.14.41-.61.54-.29"/><path class="cls-29" d="M244.41,601.51s-.47.53-.58.14.42-.61.55-.29"/><path class="cls-29" d="M242.59,602.26s-.47.52-.58.13.42-.61.55-.28"/><path class="cls-29" d="M241.49,604.75s-.48.53-.58.14.42-.61.55-.29"/><path class="cls-29" d="M261,598.69s-.48.52-.58.14.42-.61.55-.29"/><path class="cls-29" d="M258.34,597.61s-.48.52-.58.13.41-.61.55-.29"/><path class="cls-29" d="M257.24,600.1s-.48.53-.58.14.41-.61.54-.29"/><path class="cls-29" d="M255.42,600.85s-.48.52-.58.13.41-.61.54-.28"/><path class="cls-29" d="M254.31,603.35s-.47.52-.58.13.42-.61.55-.29"/><path class="cls-29" d="M258,594.27s-.48.52-.58.13.41-.61.55-.28"/><path class="cls-29" d="M255.37,593.18s-.48.53-.58.14.41-.61.54-.29"/><path class="cls-29" d="M254.26,595.68s-.47.52-.58.13.42-.6.55-.28"/><path class="cls-29" d="M252.44,596.43s-.47.52-.58.13.42-.61.55-.29"/><path class="cls-29" d="M251.34,598.92s-.48.53-.58.14.42-.61.55-.29"/><path class="cls-29" d="M271.63,593.86s-.48.52-.58.13.41-.61.55-.28"/><path class="cls-29" d="M269,592.77s-.48.53-.58.14.41-.61.54-.29"/><path class="cls-29" d="M267.9,595.27s-.47.52-.58.13.42-.61.55-.28"/><path class="cls-29" d="M266.08,596s-.47.53-.58.14.42-.61.55-.29"/><path class="cls-29" d="M265,598.51s-.48.53-.58.14.42-.61.55-.29"/><path class="cls-29" d="M282.13,586.23s-.47.52-.58.13.42-.61.55-.28"/><path class="cls-29" d="M279.51,585.14s-.48.53-.58.14.42-.61.55-.29"/><path class="cls-29" d="M278.41,587.64s-.48.53-.58.14.41-.61.55-.29"/><path class="cls-29" d="M276.59,588.39s-.48.52-.58.13.41-.61.55-.28"/><path class="cls-29" d="M275.49,590.88s-.48.53-.58.14.41-.61.54-.29"/><path class="cls-29" d="M290.13,578.81s-.48.52-.58.13.41-.6.54-.28"/><path class="cls-29" d="M287.5,577.72s-.47.53-.58.14.42-.61.55-.29"/><path class="cls-29" d="M286.4,580.22s-.48.53-.58.14.42-.61.55-.29"/><path class="cls-29" d="M284.58,581s-.48.52-.58.13.42-.61.55-.28"/><path class="cls-29" d="M283.48,583.46s-.48.53-.58.14.41-.61.55-.29"/><path class="cls-29" d="M294.77,569.11s-.07.7-.39.45,0-.74.27-.56"/><path class="cls-29" d="M292,569.8s-.07.71-.38.46,0-.74.27-.56"/><path class="cls-29" d="M292.62,572.47s-.06.7-.38.45,0-.74.27-.56"/><path class="cls-29" d="M291.61,574.15s-.07.71-.38.45,0-.73.26-.55"/><path class="cls-29" d="M292.22,576.81s-.07.71-.38.46,0-.74.26-.56"/><path class="cls-29" d="M278.74,569.3s.71.1.44.4-.74,0-.54-.29"/><path class="cls-29" d="M279.32,572.08s.7.1.43.4-.74,0-.54-.29"/><path class="cls-29" d="M282,571.59s.7.1.44.41-.74,0-.54-.3"/><path class="cls-29" d="M283.64,572.68s.7.1.44.41-.74,0-.55-.3"/><path class="cls-29" d="M286.33,572.19s.7.1.43.41-.74,0-.54-.3"/><path class="cls-29" d="M267.88,571.25s.7.1.43.4-.74,0-.54-.29"/><path class="cls-29" d="M268.45,574s.7.1.43.4-.74,0-.54-.29"/><path class="cls-29" d="M271.13,573.54s.7.1.44.41-.74,0-.54-.3"/><path class="cls-29" d="M272.77,574.63s.7.1.44.41-.74,0-.55-.3"/><path class="cls-29" d="M275.46,574.14s.7.1.43.41-.74,0-.54-.3"/><path class="cls-29" d="M269.52,576.78s.7.1.43.41-.73,0-.54-.3"/><path class="cls-29" d="M270.09,579.56s.7.11.43.41-.73,0-.54-.3"/><path class="cls-29" d="M272.78,579.08s.7.1.43.4-.74,0-.54-.29"/><path class="cls-29" d="M274.41,580.17s.7.1.44.4-.74,0-.54-.29"/><path class="cls-29" d="M277.1,579.68s.7.1.43.4-.73,0-.54-.29"/><path class="cls-29" d="M262.56,581.38s.7.1.44.4-.74,0-.54-.29"/><path class="cls-29" d="M263.13,584.16s.71.1.44.4-.74,0-.54-.29"/><path class="cls-29" d="M265.82,583.67s.7.1.44.41-.74,0-.55-.3"/><path class="cls-29" d="M267.46,584.76s.7.1.43.41-.73,0-.54-.3"/><path class="cls-29" d="M270.14,584.27s.7.11.44.41-.74,0-.54-.29"/><path class="cls-29" d="M260.54,587.44s.7.1.44.41-.74,0-.55-.3"/><path class="cls-29" d="M261.11,590.22s.7.1.44.41-.74,0-.55-.3"/><path class="cls-29" d="M263.8,589.73s.7.11.43.41-.73,0-.54-.29"/><path class="cls-29" d="M265.43,590.82s.71.11.44.41-.74,0-.54-.29"/><path class="cls-29" d="M268.12,590.34s.7.1.44.4-.74,0-.55-.29"/><path class="cls-29" d="M269.89,580.37s.7.11.44.41-.74,0-.55-.3"/><path class="cls-29" d="M270.46,583.16s.7.1.44.4-.74,0-.55-.29"/><path class="cls-29" d="M273.15,582.67s.7.1.43.4-.73,0-.54-.29"/><path class="cls-29" d="M274.78,583.76s.71.1.44.4-.74,0-.54-.29"/><path class="cls-29" d="M277.47,583.27s.7.1.44.4-.74,0-.55-.29"/><path class="cls-29" d="M553.19,590s1.17-.83,1.2,0-1.08,1-1.2.33"/><path class="cls-29" d="M548.39,589.64s1.16-.83,1.2,0-1.08,1-1.2.33"/><path class="cls-29" d="M552,594.83s1.17-.83,1.2,0-1.08,1-1.2.33"/><path class="cls-29" d="M555.93,600.49s1.17-.83,1.2,0-1.08,1-1.2.33"/><path class="cls-29" d="M551.13,600.12s1.17-.83,1.2,0-1.08,1-1.2.33"/><path class="cls-29" d="M554.7,605.31s1.17-.83,1.2,0-1.08,1-1.2.33"/><path class="cls-29" d="M473.71,558.64s.92-.2.73.3-.92.33-.81-.12"/><path class="cls-29" d="M465,597.08s.91-.2.72.3-.91.33-.8-.12"/><path class="cls-29" d="M471.61,561.43s.92-.2.73.3-.92.34-.81-.12"/><path class="cls-29" d="M470.34,565.06s.91-.2.72.3-.91.33-.81-.12"/><path class="cls-29" d="M475.71,561.62s.92-.2.73.3-.91.33-.81-.12"/><path class="cls-29" d="M468.17,572.66s.91-.2.72.3-.91.33-.8-.12"/><path class="cls-29" d="M470,569.12s.91-.2.73.3-.92.33-.81-.12"/><path class="cls-29" d="M467.5,576.25s.91-.2.72.3-.91.34-.81-.11"/><path class="cls-29" d="M465.53,588.92s.91-.19.72.31-.91.33-.81-.12"/><path class="cls-29" d="M465.88,579.88s.91-.19.72.31-.91.33-.8-.12"/><path class="cls-29" d="M468.23,583.42s.91-.2.72.3-.91.33-.8-.12"/><path class="cls-29" d="M464.88,585.77s.92-.19.73.31-.92.33-.81-.12"/><path class="cls-29" d="M467.34,591.68s.91-.2.72.3-.91.34-.81-.12"/><path class="cls-29" d="M465,605.86s.91-.2.72.3-.91.33-.81-.12"/><path class="cls-29" d="M463.59,593.45s.91-.19.72.3-.91.34-.8-.11"/><path class="cls-29" d="M461.53,600.51s.92-.2.73.3-.92.34-.81-.11"/><path class="cls-29" d="M465.63,600.58s.91-.2.73.3-.92.34-.81-.12"/><path class="cls-29" d="M462.34,604.76s.91-.19.72.31-.91.33-.81-.12"/><path class="cls-29" d="M462.85,610s.92-.19.73.31-.92.33-.81-.12"/><path class="cls-29" d="M465,613.75s.91-.2.72.3-.91.33-.8-.12"/><path class="cls-29" d="M435.87,558.61s.74.26.39.54-.81-.17-.53-.44"/><path class="cls-29" d="M432.38,566.25s.75.26.39.54-.8-.17-.53-.44"/><path class="cls-29" d="M431.89,559.54s.74.27.39.54-.8-.17-.53-.44"/><path class="cls-29" d="M434.79,561.41s.74.26.39.53-.81-.16-.53-.44"/><path class="cls-29" d="M430.58,562.94s.74.26.39.54-.81-.17-.53-.44"/><path class="cls-29" d="M429.32,567.21s.74.26.38.53-.8-.16-.52-.44"/><path class="cls-29" d="M427,570.12s.74.26.39.54-.81-.17-.53-.44"/><path class="cls-29" d="M430,570.81s.74.26.38.54-.8-.17-.52-.44"/><path class="cls-29" d="M426.57,574.17s.74.27.38.54-.8-.16-.52-.44"/><path class="cls-29" d="M427.15,577.22s.74.27.39.54-.81-.17-.53-.44"/><path class="cls-29" d="M426.58,580.57s.75.27.39.54-.8-.17-.53-.44"/><path class="cls-29" d="M423.88,583.77s.74.26.39.54-.8-.17-.53-.44"/><path class="cls-29" d="M423.08,586.21s.74.26.39.53-.8-.16-.53-.44"/><path class="cls-29" d="M424.14,580.24s.74.26.38.54-.8-.17-.52-.44"/><path class="cls-29" d="M424.34,588.45s.74.26.38.53-.8-.16-.53-.44"/><path class="cls-29" d="M422.67,592s.74.26.38.54-.8-.17-.52-.44"/><path class="cls-29" d="M421,590.42s.74.26.39.54-.8-.17-.53-.44"/><path class="cls-29" d="M420.83,594.08s.75.27.39.54-.8-.16-.53-.44"/><path class="cls-29" d="M422.27,596.22s.74.26.38.53-.8-.16-.52-.44"/><path class="cls-29" d="M420.88,598.42s.74.26.38.53-.8-.16-.52-.44"/><path class="cls-29" d="M419.47,596.77s.74.26.39.53-.81-.16-.53-.44"/><path class="cls-29" d="M530.94,499.43s1.17-.83,1.2,0-1.08,1-1.2.32"/><path class="cls-29" d="M524.49,497.18s1.17-.83,1.2,0-1.08,1-1.2.33"/><path class="cls-29" d="M497.65,523s1.16-.83,1.2,0-1.08,1-1.2.33"/><path class="cls-29" d="M503.86,525.19s1.17-.83,1.2,0-1.08,1-1.2.32"/><path class="cls-29" d="M395.05,534s1.07-.45.95.21-1,.61-1,0"/><path class="cls-29" d="M399,540.15s1.07-.44.95.21-1,.62-1,0"/><path class="cls-29" d="M404.65,539.72s1.08-.44,1,.21-1.05.62-1,0"/><path class="cls-29" d="M399.92,536.75s1.08-.45,1,.2-1.05.62-1,0"/><path class="cls-29" d="M406.21,537.7s.9-.74,1-.08-.82.9-1,.34"/><path class="cls-29" d="M406.1,534.18s.91-.74,1-.08-.82.89-1,.33"/><path class="cls-29" d="M389.42,536s1.08-.45,1,.2-1.05.62-1,0"/><path class="cls-29" d="M393.41,539.18s1.07-.45.95.21-1,.61-1,0"/><path class="cls-29" d="M401.8,515.16s.24-.76.53-.41-.13.81-.42.55"/><path class="cls-29" d="M406.73,515.74s.23-.76.52-.42-.13.82-.42.55"/><path class="cls-29" d="M405.34,513.78s.23-.76.52-.41-.13.82-.42.55"/><path class="cls-29" d="M400.4,519s.23-.76.52-.41-.13.81-.42.55"/><path class="cls-29" d="M403.79,518.25s.24-.76.53-.41-.13.81-.42.55"/><path class="cls-29" d="M464.29,531.12s1.16-.83,1.2,0-1.08,1-1.2.33"/><path class="cls-29" d="M470.71,524.94s1.17-.83,1.2,0-1.08,1-1.2.33"/><path class="cls-29" d="M455.55,521.89s1.17-.83,1.2,0-1.08,1-1.2.32"/><path class="cls-29" d="M465.47,523.73s1.16-.83,1.2,0-1.08,1-1.2.33"/><path class="cls-29" d="M456.18,531s1.17-.83,1.2,0-1.08,1-1.2.32"/><path class="cls-29" d="M467.62,517.28s1.16-.83,1.2,0-1.08,1-1.21.33"/><path class="cls-29" d="M473.83,519.52s1.16-.83,1.2,0-1.08,1-1.2.33"/><path class="cls-29" d="M476.6,528.81s1.16-.83,1.2,0-1.08,1-1.21.33"/><path class="cls-29" d="M424.56,534.49s1.16-.83,1.2,0-1.08,1-1.2.32"/><path class="cls-29" d="M431,528.32s1.17-.83,1.2,0-1.08,1-1.2.33"/><path class="cls-29" d="M415.82,525.27s1.17-.83,1.2,0-1.08,1-1.2.33"/><path class="cls-29" d="M425.74,527.1s1.16-.83,1.2,0-1.08,1-1.2.32"/><path class="cls-29" d="M416.45,534.34s1.17-.83,1.2,0-1.08,1-1.2.33"/><path class="cls-29" d="M427.89,520.66s1.16-.83,1.2,0-1.08,1-1.21.33"/><path class="cls-29" d="M434.1,522.89s1.16-.83,1.2,0-1.08,1-1.2.32"/><path class="cls-29" d="M436.87,532.18s1.16-.83,1.2,0-1.08,1-1.21.32"/><path class="cls-29" d="M445.58,514.31s.9-.65.93,0-.84.8-.93.26"/><path class="cls-29" d="M450.58,509.5s.91-.65.93,0-.84.79-.93.25"/><path class="cls-29" d="M438.78,507.13s.9-.65.93,0-.84.8-.93.26"/><path class="cls-29" d="M446.5,508.55s.9-.64.93,0-.84.8-.93.25"/><path class="cls-29" d="M439.27,514.19s.9-.65.93,0-.84.8-.93.26"/><path class="cls-29" d="M448.17,503.53s.91-.64.93,0-.84.8-.93.26"/><path class="cls-29" d="M453,505.28s.9-.65.93,0-.84.8-.93.26"/><path class="cls-29" d="M455.16,512.51s.91-.65.94,0-.84.79-.94.25"/><path class="cls-29" d="M466.82,494s.9-.65.93,0-.84.8-.93.26"/><path class="cls-29" d="M471.82,489.16s.91-.65.93,0-.84.79-.93.25"/><path class="cls-29" d="M460,486.79s.9-.65.93,0-.84.8-.93.26"/><path class="cls-29" d="M467.74,488.21s.9-.64.93,0-.84.8-.93.25"/><path class="cls-29" d="M460.51,493.85s.9-.65.93,0-.84.8-.93.26"/><path class="cls-29" d="M469.41,483.19s.91-.64.93,0-.84.8-.93.26"/><path class="cls-29" d="M474.25,484.94s.9-.65.93,0-.84.8-.93.26"/><path class="cls-29" d="M476.4,492.17s.91-.65.94,0-.85.79-.94.25"/><path class="cls-28" d="M531.82,514.36s5.33-3.8,5.49-.08-4.94,4.69-5.5,1.5"/><path class="cls-29" d="M420.2,602.33s.74.27.38.54-.8-.17-.53-.44"/><path class="cls-29" d="M420.63,600.59s.74.26.38.54-.8-.17-.52-.44"/><path class="cls-27" d="M353.51,814.26s2.21-1.57,2.28,0-2.05,1.94-2.28.62"/><path class="cls-21" d="M367,805.24s2.21-1.57,2.27,0-2,1.95-2.28.62"/><path class="cls-21" d="M391.13,799.23s2.2-1.57,2.27,0-2,1.95-2.28.62"/><path class="cls-21" d="M374,817.27s2.21-1.57,2.28,0-2.05,1.94-2.28.62"/><path class="cls-21" d="M382.05,792.43s2.21-1.57,2.27,0-2,1.94-2.28.62"/><path class="cls-21" d="M362.55,821s2.21-1.58,2.27,0-2,1.94-2.28.62"/><path class="cls-21" d="M340.06,815.91s2.21-1.57,2.27,0-2,1.94-2.28.62"/><path class="cls-21" d="M348.6,821.7s2.21-1.57,2.28,0-2.05,2-2.28.62"/><path class="cls-21" d="M404.94,778.09s2.21-1.57,2.27,0-2,1.94-2.27.62"/><path class="cls-21" d="M429.7,768.36s2.21-1.57,2.28,0-2.05,1.94-2.28.62"/><path class="cls-21" d="M446,743s2.21-1.58,2.28,0-2.05,1.95-2.28.62"/><path class="cls-21" d="M443.26,758.09s2.21-1.57,2.27,0-2,2-2.28.62"/><path class="cls-21" d="M407.9,792.13s2.21-1.57,2.28,0-2.05,1.94-2.28.62"/><path class="cls-21" d="M417,767.76s2.21-1.57,2.27,0-2,1.94-2.28.62"/><path class="cls-21" d="M466.32,730.9s2.21-1.57,2.28,0-2.05,1.94-2.28.62"/><path class="cls-21" d="M480.89,717.8s2.2-1.57,2.27,0-2.05,1.94-2.28.62"/><path class="cls-21" d="M486.27,698.12s2.21-1.57,2.28,0-2.05,1.95-2.28.62"/><path class="cls-27" d="M381.38,807.56s2.21-1.58,2.28,0-2.05,1.94-2.28.62"/><path class="cls-27" d="M395.43,790.14s2.21-1.57,2.27,0-2,1.94-2.28.62"/><path class="cls-27" d="M368.32,812.58s2.2-1.57,2.27,0-2,1.94-2.28.62"/><path class="cls-27" d="M426.6,760.9s2.21-1.57,2.28,0-2.05,2-2.28.62"/><path class="cls-27" d="M455.44,736.28s2.21-1.57,2.27,0-2,2-2.28.62"/><path class="cls-27" d="M471.69,719.79s2.2-1.57,2.27,0-2,1.94-2.28.62"/><path class="cls-27" d="M398.16,799.13s2.21-1.57,2.28,0-2.05,1.95-2.28.62"/><path class="cls-27" d="M417.88,779.76s2.21-1.57,2.28,0-2.05,1.94-2.28.62"/><path class="cls-27" d="M433.54,755s2.2-1.58,2.27,0-2.05,1.95-2.28.62"/><path class="cls-27" d="M454.09,747.53s2.21-1.57,2.28,0-2.05,1.94-2.28.62"/><path class="cls-27" d="M460.88,724.53s2.21-1.58,2.28,0-2.05,2-2.28.62"/><path class="cls-27" d="M477.35,709.83s2.21-1.57,2.28,0-2.05,1.94-2.28.62"/><path class="cls-27" d="M493.92,704.05s2.21-1.58,2.28,0-2.05,1.94-2.28.62"/><path class="cls-30" d="M1050.38,1324.24s-14.94-9.63-15-4.6c0,0-23.07,9,77,82.38,0,0,179.06,136.2,203.25,142.42,0,0,29.19,17.31,36.5,6.3,0,0,1.6-7.45-6.6-9.17,0,0-52.65-18.34-103.52-58.71,0,0-122.11-78.29-137.89-97.39C1104.11,1385.47,1052.52,1348.18,1050.38,1324.24Z"/><path class="cls-31" d="M1049.65,1316.24a49,49,0,0,1-.71-11.67c1.16-19,14.08-35.78,30-46.36a93.36,93.36,0,0,1,46.33-15.43c16.53-.92,33.63,2.62,49.82-2.09,15.86-4.62,34.61,4.31,45,16.49,1.85,2.16,3.62,4.56,6.21,5.75,2.21,1,4.74,1,7.17,1.07,14.61.37,29.48,4,41.3,12.59s20.16,22.63,19.71,37.23c27.58,3.37,50.63,29.09,51,56.88,23.29,7.5,41.3,27.73,49.13,50.91s6.25,48.84-1.24,72.13c-3.92,12.21-9.57,24.13-18.47,33.37s-21.4,15.53-34.21,14.89-24.36-8-35.11-15.08c-20.87-13.82-41.6-27.84-62.33-41.88-52.79-35.73-105.65-71.65-154-113.21-10.29-8.84-20.46-18-28.19-29.19A68,68,0,0,1,1049.65,1316.24Z"/><path class="cls-32" d="M1155.06,1246.4s19.39-10.39,33.29-4.62c0,0,8.47,7.43,3.37,40.83,0,0-8.7,66.65.49,78.67,0,0-26.13-21.93-27.32-41.62S1163.44,1254.16,1155.06,1246.4Z"/><path class="cls-32" d="M1231.7,1265.47s15-5.18,26.34,3.22c0,0,7.7,29.94-1.21,64.44,0,0-10.65,50.37-.4,61,0,0-27.73-35.83-22.55-59.58S1241.23,1272.34,1231.7,1265.47Z"/><path class="cls-32" d="M1294.67,1316.71s18.12-.55,23.73,9c0,0,3.77,26.33-6.2,61.69,0,0-8.1,47.3.25,59.77,0,0-23-17-24.72-46.15,0,0-.48-42,3.35-53.67Z"/><path class="cls-32" d="M1345.78,1372.45s14.33,2.2,21.4,11.76c0,0,.1,28.25-8.53,48.1,0,0-11.61,44.84,2.9,58.51,0,0-36.22-32.84-25.31-64.89S1345.78,1372.45,1345.78,1372.45Z"/><path class="cls-33" d="M1159.15,1339a3.77,3.77,0,0,1,.82,1.3l.61,1.38c.41.91.76,1.82,1.18,2.7.8,1.76,1.63,3.47,2.53,5.11a61.5,61.5,0,0,0,6.21,9.25,80,80,0,0,0,7.73,8.14c2.79,2.59,5.78,5.06,8.82,7.75a34.71,34.71,0,0,1-11.19-4.62,37.41,37.41,0,0,1-9.24-8.12,33.8,33.8,0,0,1-5.93-10.87,30.54,30.54,0,0,1-1.29-6c-.09-1-.16-2-.17-3v-1.51A4.71,4.71,0,0,0,1159.15,1339Z"/><path class="cls-33" d="M1224.09,1376.69a30.26,30.26,0,0,0,2.18,4.21c.77,1.32,1.64,2.55,2.5,3.76a65.36,65.36,0,0,0,5.78,6.77c2,2.19,4.28,4.19,6.49,6.32,1.14,1,2.3,2.07,3.43,3.19a39.51,39.51,0,0,1,3.45,3.41,36.69,36.69,0,0,1-4.75-1.32c-1.5-.63-3-1.31-4.44-2.09a34.23,34.23,0,0,1-7.8-6.06,27.87,27.87,0,0,1-5.59-8.31,21.29,21.29,0,0,1-1.38-4.87A12.43,12.43,0,0,1,1224.09,1376.69Z"/><path class="cls-33" d="M1271.65,1398.67a35.34,35.34,0,0,0,1.34,7.95c.29,1.29.78,2.54,1.16,3.79s.95,2.45,1.41,3.67a78.68,78.68,0,0,0,7.67,13.7,150.48,150.48,0,0,0,9.72,12.59q2.7,3,5.35,6.06c1.85,2,3.72,4,5.47,6.14-2.43-1.3-4.75-2.8-7.09-4.3s-4.39-3.36-6.53-5.13a69.67,69.67,0,0,1-11.05-12.55,50.79,50.79,0,0,1-7.25-15.24c-.31-1.39-.65-2.76-.88-4.16a35.23,35.23,0,0,1-.4-4.22A22.31,22.31,0,0,1,1271.65,1398.67Z"/><path class="cls-33" d="M1327.8,1462.79c2.17,2.68,4.16,5.25,6.17,7.79s4,5.05,6,7.5,4.06,4.91,6.2,7.34,4.29,4.86,6.37,7.65a31.45,31.45,0,0,1-9-4.77,40.85,40.85,0,0,1-7.4-7,41.57,41.57,0,0,1-5.49-8.62A28.16,28.16,0,0,1,1327.8,1462.79Z"/><path class="cls-34" d="M1091.17,1261.08s-37.24,37.06-13,74.64,155,126.37,155,126.37,94.77,67.14,112.6,66.24c0,0,48.88-10.21,47.54-72.27,0,0,.48-8.37,2.16.18s-3.52,34.25-3.52,34.25-11.19,33-26.77,41.72c0,0-17.3,14.72-45.79-4.08l-78.2-51.65s-135.7-90.85-142.69-103.57c0,0-50.46-35.43-40.84-71.77,0,0,1.39-13.62,9.19-19.27C1066.86,1281.87,1082.56,1262.82,1091.17,1261.08Z"/></g></g></svg>